<?xml version="1.0" standalone="no"?>
<!DOCTYPE svg PUBLIC "-//W3C//DTD SVG 1.1//EN" "http://www.w3.org/Graphics/SVG/1.1/DTD/svg11.dtd" >
<svg>
<metadata>
Created by FontForge 20090914 at Mon Dec  5 10:05:09 2022
 By www-data
Copyright 2021 The Outfit Project Authors (https://github.com/Outfitio/Outfit-Fonts)
</metadata>
<defs>
<font id="Outfit-Bold" horiz-adv-x="595" >
  <font-face 
    font-family="Outfit"
    font-weight="700"
    font-stretch="normal"
    units-per-em="1000"
    panose-1="0 0 0 0 0 0 0 0 0 0"
    ascent="800"
    descent="-200"
    x-height="486"
    cap-height="706"
    bbox="-129.001 -218 3823 983"
    underline-thickness="50"
    underline-position="-75"
    unicode-range="U+000D-U+FB02"
  />
<missing-glyph horiz-adv-x="677" 
d="M67 0v706h542v-706h-542zM185 118h307v471h-307v-471zM208 429l55 55l206 -205l-56 -56zM418 490l56 -57l-215 -215l-56 57z" />
    <glyph glyph-name="fi" unicode="fi" horiz-adv-x="640" 
d="M116 0l-0.000976562 538.001c0 37.333 8.33301 71 25 101s40.167 53.833 70.5 71.5s66.5 26.5 108.5 26.5c22.667 0 43.334 -3 62.001 -9s36.667 -15.667 54 -29l-76 -112c-6.66699 4.66699 -13.167 8 -19.5 10s-13.166 3 -20.499 3
c-16.667 0 -29.334 -4.83301 -38.001 -14.5s-13 -22.834 -13 -39.501v-546h-153zM8.99902 356.001v130h489v-130h-489zM433.999 0.000976562v486h153v-486h-153zM510.999 521.001c-22.667 0 -41.5 7.83301 -56.5 23.5s-22.5 34.834 -22.5 57.501s7.5 41.667 22.5 57
s33.833 23 56.5 23c23.333 0 42.333 -7.66699 57 -23s22 -34.333 22 -57s-7.33301 -41.834 -22 -57.501s-33.667 -23.5 -57 -23.5z" />
    <glyph glyph-name="fl" unicode="fl" horiz-adv-x="631" 
d="M116 0l-0.00195312 523c0 38.667 8.83301 74.167 26.5 106.5s43.334 58.333 77.001 78s73.834 29.5 120.501 29.5v-137c-22 0 -39.333 -7 -52 -21s-19 -31 -19 -51v-528h-153zM8.99805 356v130h481v-130h-481zM423.998 0v726h153v-726h-153z" />
    <glyph glyph-name="f_f" unicode="ff" horiz-adv-x="744" 
d="M116 0v507.001c0 42 8.83301 79.5 26.5 112.5s43.167 59.167 76.5 78.5s72.666 29 117.999 29s83.333 -9.33301 114 -28s53.5 -42.667 68.5 -72s22.5 -61 22.5 -95l-118 -15c0 24.667 -6.66699 44 -20 58s-32.333 21 -57 21c-25.333 0 -44.666 -6.83301 -57.999 -20.5
s-20 -32.834 -20 -57.501v-518h-153zM9 356.001v130h708v-130h-708zM424 0.000976562l-0.000976562 526.999c0 40 8.83301 75.833 26.5 107.5s42.5 56.667 74.5 75s70 27.5 114 27.5c33.333 0 62.5 -5.5 87.5 -16.5s46.833 -26.167 65.5 -45.5l-96 -96
c-6.66699 6.66699 -14.167 11.834 -22.5 15.501s-18.166 5.5 -29.499 5.5c-20.667 0 -37 -6 -49 -18s-18 -28.333 -18 -49v-533h-153z" />
    <glyph glyph-name="o_u_t_f_i_t" unicode="outfit" horiz-adv-x="2440" 
d="M288 -11c-50 0 -95.168 11.167 -135.501 33.5s-72.166 52.833 -95.499 91.5s-35 82 -35 130s11.667 91 35 129s55 68.167 95 90.5s85.333 33.5 136 33.5s96 -11 136 -33s71.667 -52.167 95 -90.5s35 -81.5 35 -129.5s-11.667 -91.333 -35 -130s-55 -69.167 -95 -91.5
s-85.333 -33.5 -136 -33.5zM287.999 128c22 0 41.332 4.83203 57.999 14.499s29.5 23.334 38.5 41.001s13.5 37.834 13.5 60.501s-4.66699 42.5 -14 59.5s-22.166 30.333 -38.499 40s-35.5 14.5 -57.5 14.5c-21.333 0 -40.333 -4.83301 -57 -14.5s-29.667 -23.167 -39 -40.5
s-14 -37.333 -14 -60c0 -22 4.66699 -41.833 14 -59.5s22.333 -31.334 39 -41.001s35.667 -14.5 57 -14.5zM844.998 -11.001c-44 0 -83.166 9.16699 -117.499 27.5s-61.333 43.833 -81 76.5s-29.5 70 -29.5 112v281h153v-280c0 -16.667 3 -31 9 -43s14.667 -21.333 26 -28
s24.666 -10 39.999 -10c23.333 0 41.666 7.16699 54.999 21.5s20 34.166 20 59.499v280h153v-281c0 -42.667 -9.66699 -80.167 -29 -112.5s-46.166 -57.666 -80.499 -75.999s-73.833 -27.5 -118.5 -27.5zM1008 355.999v130h1419v-130h-1419zM1215 -0.000976562v687h153v-687
h-153zM1523 -0.000976562l-0.000976562 538.001c0 37.333 8.33301 71 25 101s40.167 53.833 70.5 71.5s66.5 26.5 108.5 26.5c22.667 0 43.334 -3 62.001 -9s36.667 -15.667 54 -29l-76 -112c-6.66699 4.66699 -13.167 8 -19.5 10s-13.166 3 -20.499 3
c-16.667 0 -29.334 -4.83301 -38.001 -14.5s-13 -22.834 -13 -39.501v-546h-153zM1841 0v486h153v-486h-153zM1918 520c-22.667 0 -41.334 7.66699 -56.001 23s-22 34 -22 56s7.33301 40.667 22 56s33.334 23 56.001 23s41.167 -7.66699 55.5 -23s21.5 -34 21.5 -56
s-7.16699 -40.667 -21.5 -56s-32.833 -23 -55.5 -23zM2149 0v687h153v-687h-153z" />
    <glyph glyph-name="o_u_t_f_i_t_t_e_d" unicode="outfitted" horiz-adv-x="3877" 
d="M288 -11c-50 0 -95.168 11.167 -135.501 33.5s-72.166 52.833 -95.499 91.5s-35 82 -35 130s11.667 91 35 129s55 68.167 95 90.5s85.333 33.5 136 33.5s96 -11 136 -33s71.667 -52.167 95 -90.5s35 -81.5 35 -129.5s-11.667 -91.333 -35 -130s-55 -69.167 -95 -91.5
s-85.333 -33.5 -136 -33.5zM287.999 128c22 0 41.332 4.83203 57.999 14.499s29.5 23.334 38.5 41.001s13.5 37.834 13.5 60.501s-4.66699 42.5 -14 59.5s-22.166 30.333 -38.499 40s-35.5 14.5 -57.5 14.5c-21.333 0 -40.333 -4.83301 -57 -14.5s-29.667 -23.167 -39 -40.5
s-14 -37.333 -14 -60c0 -22 4.66699 -41.833 14 -59.5s22.333 -31.334 39 -41.001s35.667 -14.5 57 -14.5zM844.998 -11.001c-44 0 -83.166 9.16699 -117.499 27.5s-61.333 43.833 -81 76.5s-29.5 70 -29.5 112v281h153v-280c0 -16.667 3 -31 9 -43s14.667 -21.333 26 -28
s24.666 -10 39.999 -10c23.333 0 41.666 7.16699 54.999 21.5s20 34.166 20 59.499v280h153v-281c0 -42.667 -9.66699 -80.167 -29 -112.5s-46.166 -57.666 -80.499 -75.999s-73.833 -27.5 -118.5 -27.5zM1215 -0.000976562v687h153v-687h-153zM1523 -0.000976562
l-0.000976562 538.001c0 37.333 8.33301 71 25 101s40.167 53.833 70.5 71.5s66.5 26.5 108.5 26.5c22.667 0 43.334 -3 62.001 -9s36.667 -15.667 54 -29l-76 -112c-6.66699 4.66699 -13.167 8 -19.5 10s-13.166 3 -20.499 3c-16.667 0 -29.334 -4.83301 -38.001 -14.5
s-13 -22.834 -13 -39.501v-546h-153zM1841 0v486h153v-486h-153zM1008 356v130h1727v-130h-1727zM1918 520c-22.667 0 -41.334 7.66699 -56.001 23s-22 34 -22 56s7.33301 40.667 22 56s33.334 23 56.001 23s41.167 -7.66699 55.5 -23s21.5 -34 21.5 -56
s-7.16699 -40.667 -21.5 -56s-32.833 -23 -55.5 -23zM2149 0v687h153v-687h-153zM2457 0v687h153v-687h-153zM3028 -11c-52.667 0 -99.5 10.834 -140.5 32.501s-73.167 51.834 -96.5 90.501s-35 82.334 -35 131.001s11.5 92.167 34.5 130.5s54.167 68.5 93.5 90.5
s83.666 33 133 33c48 0 90.333 -10.333 127 -31s65.5 -49.334 86.5 -86.001s31.5 -78.667 31.5 -126c0 -8.66699 -0.5 -17.834 -1.5 -27.501s-2.83301 -20.834 -5.5 -33.501l-419 -1v105l354 1l-66 -44c-0.666992 28 -5 51.167 -13 69.5s-19.833 32.333 -35.5 42
s-34.834 14.5 -57.5 14.5c-24 0 -44.833 -5.5 -62.5 -16.5s-31.334 -26.5 -41 -46.5c-9.66699 -20 -14.5 -44.333 -14.5 -73s5.16699 -53.167 15.5 -73.5s25 -36 44 -47s41.5 -16.5 67.5 -16.5c24 0 45.667 4.16699 65 12.5s36.333 20.833 51 37.5l84 -84
c-24 -28 -53 -49 -87 -63s-71.333 -21 -112 -21zM3543 -9.99902c-46 0 -86.833 11 -122.5 33s-63.667 52 -84 90s-30.5 81.333 -30.5 130s10.167 92 30.5 130s48.333 68 84 90s76.5 33 122.5 33c32.667 0 62.667 -6.33301 90 -19s49.666 -30.167 67 -52.5
c17.333 -22.333 27.333 -47.833 30 -76.5v-205c-2.66699 -28.667 -12.667 -54.5 -30 -77.5s-39.666 -41.333 -67 -55c-27.333 -13.667 -57.333 -20.5 -90 -20.5zM3570 128.001c22 0 41 4.83301 57 14.5s28.667 23.167 38 40.5s14 37.333 14 60s-4.5 42.667 -13.5 60
s-21.667 30.833 -38 40.5s-35.5 14.5 -57.5 14.5c-21.333 0 -40.166 -4.83301 -56.5 -14.5c-16.333 -9.66699 -29.166 -23.167 -38.5 -40.5c-9.33301 -17.333 -14 -37.333 -14 -60c0 -22 4.66699 -41.667 14 -59s22.166 -31 38.5 -41c16.333 -10 35.166 -15 56.5 -15z
M3672 0.000976562v131l23 118l-25 118v359h153v-726h-151z" />
    <glyph glyph-name="o_u_t_f_i_t_t_e_r" unicode="outfitter" horiz-adv-x="3725" 
d="M288 -11c-50 0 -95.168 11.167 -135.501 33.5s-72.166 52.833 -95.499 91.5s-35 82 -35 130s11.667 91 35 129s55 68.167 95 90.5s85.333 33.5 136 33.5s96 -11 136 -33s71.667 -52.167 95 -90.5s35 -81.5 35 -129.5s-11.667 -91.333 -35 -130s-55 -69.167 -95 -91.5
s-85.333 -33.5 -136 -33.5zM287.999 128c22 0 41.332 4.83203 57.999 14.499s29.5 23.334 38.5 41.001s13.5 37.834 13.5 60.501s-4.66699 42.5 -14 59.5s-22.166 30.333 -38.499 40s-35.5 14.5 -57.5 14.5c-21.333 0 -40.333 -4.83301 -57 -14.5s-29.667 -23.167 -39 -40.5
s-14 -37.333 -14 -60c0 -22 4.66699 -41.833 14 -59.5s22.333 -31.334 39 -41.001s35.667 -14.5 57 -14.5zM844.998 -11.001c-44 0 -83.166 9.16699 -117.499 27.5s-61.333 43.833 -81 76.5s-29.5 70 -29.5 112v281h153v-280c0 -16.667 3 -31 9 -43s14.667 -21.333 26 -28
s24.666 -10 39.999 -10c23.333 0 41.666 7.16699 54.999 21.5s20 34.166 20 59.499v280h153v-281c0 -42.667 -9.66699 -80.167 -29 -112.5s-46.166 -57.666 -80.499 -75.999s-73.833 -27.5 -118.5 -27.5zM1215 -0.000976562v687h153v-687h-153zM1523 -0.000976562
l-0.000976562 538.001c0 37.333 8.33301 71 25 101s40.167 53.833 70.5 71.5s66.5 26.5 108.5 26.5c22.667 0 43.334 -3 62.001 -9s36.667 -15.667 54 -29l-76 -112c-6.66699 4.66699 -13.167 8 -19.5 10s-13.166 3 -20.499 3c-16.667 0 -29.334 -4.83301 -38.001 -14.5
s-13 -22.834 -13 -39.501v-546h-153zM1841 0v486h153v-486h-153zM1008 356v130h1727v-130h-1727zM1918 520c-22.667 0 -41.334 7.66699 -56.001 23s-22 34 -22 56s7.33301 40.667 22 56s33.334 23 56.001 23s41.167 -7.66699 55.5 -23s21.5 -34 21.5 -56
s-7.16699 -40.667 -21.5 -56s-32.833 -23 -55.5 -23zM2149 0v687h153v-687h-153zM2457 0v687h153v-687h-153zM3028 -11c-52.667 0 -99.5 10.834 -140.5 32.501s-73.167 51.834 -96.5 90.501s-35 82.334 -35 131.001s11.5 92.167 34.5 130.5s54.167 68.5 93.5 90.5
s83.666 33 133 33c48 0 90.333 -10.333 127 -31s65.5 -49.334 86.5 -86.001s31.5 -78.667 31.5 -126c0 -8.66699 -0.5 -17.834 -1.5 -27.501s-2.83301 -20.834 -5.5 -33.501l-419 -1v105l354 1l-66 -44c-0.666992 28 -5 51.167 -13 69.5s-19.833 32.333 -35.5 42
s-34.834 14.5 -57.5 14.5c-24 0 -44.833 -5.5 -62.5 -16.5s-31.334 -26.5 -41 -46.5c-9.66699 -20 -14.5 -44.333 -14.5 -73s5.16699 -53.167 15.5 -73.5s25 -36 44 -47s41.5 -16.5 67.5 -16.5c24 0 45.667 4.16699 65 12.5s36.333 20.833 51 37.5l84 -84
c-24 -28 -53 -49 -87 -63s-71.333 -21 -112 -21zM3336 0.000976562v486h153v-486h-153zM3489 267.001l-65 50c12.667 56.667 34.167 100.667 64.5 132s71.833 47 124.5 47c23.333 0 44 -3.5 62 -10.5s33.667 -17.833 47 -32.5l-91 -115c-6.66699 7.33301 -15 13 -25 17
s-21.333 6 -34 6c-25.333 0 -45.5 -7.83301 -60.5 -23.5s-22.5 -39.167 -22.5 -70.5z" />
    <glyph glyph-name="t_t" unicode="tt" horiz-adv-x="707" 
d="M123 0v687h153v-687h-153zM13 356v130h681v-130h-681zM431 0v687h153v-687h-153z" />
    <glyph glyph-name=".notdef" horiz-adv-x="677" 
d="M67 0v706h542v-706h-542zM185 118h307v471h-307v-471zM208 429l55 55l206 -205l-56 -56zM418 490l56 -57l-215 -215l-56 57z" />
    <glyph glyph-name="CR" unicode="&#xd;" horiz-adv-x="600" 
 />
    <glyph glyph-name="space" unicode=" " horiz-adv-x="190" 
 />
    <glyph glyph-name="exclam" unicode="!" horiz-adv-x="286" 
d="M84 258l-25 468h165l-25 -468h-115zM141 -11c-26 0 -47.667 9 -65 27s-26 39.667 -26 65c0 26.667 8.66699 48.834 26 66.501s39 26.5 65 26.5c26.667 0 48.5 -8.83301 65.5 -26.5s25.5 -39.834 25.5 -66.501c0 -25.333 -8.5 -47 -25.5 -65s-38.833 -27 -65.5 -27z" />
    <glyph glyph-name="quotedbl" unicode="&#x22;" horiz-adv-x="456" 
d="M284 429l-28 297h148l-28 -297h-92zM81 429l-28 297h148l-29 -297h-91z" />
    <glyph glyph-name="numbersign" unicode="#" horiz-adv-x="662" 
d="M320 0l117 706h125l-118 -706h-124zM35 202v109h559v-109h-559zM95 0l117 706h124l-117 -706h-124zM69 411v108h558v-108h-558z" />
    <glyph glyph-name="dollar" unicode="$" horiz-adv-x="603" 
d="M290 -11c-54.667 0 -102.335 9.50098 -143.002 28.501s-77.667 47.833 -111 86.5l99 101c22 -26.667 46.333 -47.5 73 -62.5s57.334 -22.5 92.001 -22.5c32.667 0 58 6.16699 76 18.5s27 29.833 27 52.5c0 19.333 -5.83301 35 -17.5 47s-27.167 22.333 -46.5 31
s-40.666 17 -63.999 25s-46.5 17.167 -69.5 27.5s-44.167 23.333 -63.5 39s-35 35.334 -47 59.001s-18 53.5 -18 89.5c0 43.333 10.5 80.666 31.5 111.999s49.833 55.166 86.5 71.499s78.667 24.5 126 24.5c46 0 89 -8.66699 129 -26s72.667 -41 98 -71l-99 -101
c-20.667 22 -41.5 38.833 -62.5 50.5s-43.833 17.5 -68.5 17.5c-28.667 0 -51 -5.33301 -67 -16s-24 -26.334 -24 -47.001c0 -18 6 -32.5 18 -43.5s27.833 -20.5 47.5 -28.5s41 -16 64 -24s46.167 -17.333 69.5 -28s44.833 -24.167 64.5 -40.5s35.5 -37 47.5 -62
s18 -55.833 18 -92.5c0 -67.333 -23.5 -120.166 -70.5 -158.499s-112.167 -57.5 -195.5 -57.5zM256.999 -100.999v908h110v-908h-110z" />
    <glyph glyph-name="percent" unicode="%" horiz-adv-x="685" 
d="M181 422c-27.333 0 -52.168 6.5 -74.501 19.5s-40.166 30.667 -53.499 53s-20 47.5 -20 75.5c0 27.333 6.66699 52 20 74s31 39.5 53 52.5s46.667 19.5 74 19.5c28.667 0 54.167 -6.5 76.5 -19.5s40.166 -30.5 53.499 -52.5s20 -46.667 20 -74
c0 -28 -6.66699 -53.167 -20 -75.5s-31.166 -40 -53.499 -53s-47.5 -19.5 -75.5 -19.5zM180.998 526c12.667 0 23 4 31 12s12 18.333 12 31s-4 23 -12 31s-18.333 12 -31 12c-12 0 -22 -4 -30 -12s-12 -18.333 -12 -31s4 -23 12 -31s18 -12 30 -12zM502.998 -10
c-27.333 0 -52.168 6.66895 -74.501 20.002s-40.166 31.166 -53.499 53.499s-20 47.166 -20 74.499c0 28 6.66699 52.833 20 74.5s31 39.167 53 52.5s46.667 20 74 20c28.667 0 54.167 -6.66699 76.5 -20s40.166 -30.833 53.499 -52.5s20 -46.5 20 -74.5
c0 -27.333 -6.66699 -52.333 -20 -75s-31.166 -40.5 -53.499 -53.5s-47.5 -19.5 -75.5 -19.5zM502.996 94.002c12.667 0 23 4 31 12s12 18.667 12 32c0 12 -4 22.167 -12 30.5s-18.333 12.5 -31 12.5c-12 0 -22 -4.16699 -30 -12.5s-12 -18.5 -12 -30.5
c0 -13.333 4 -24 12 -32s18 -12 30 -12zM60.9961 0.00195312l423 706h140l-423 -706h-140z" />
    <glyph glyph-name="ampersand" unicode="&#x26;" horiz-adv-x="691" 
d="M509 0l-324.003 356.001c-25.333 28 -43.666 54.5 -54.999 79.5s-17 52.5 -17 82.5c0 36 9.16699 69.167 27.5 99.5s43.333 54.666 75 72.999s68.5 27.5 110.5 27.5c32.667 0 61.667 -4.83301 87 -14.5s47.333 -22 66 -37s33 -30.833 43 -47.5l-102 -97
c-13.333 18 -27.166 31.667 -41.499 41s-31.166 14 -50.499 14c-20 0 -36.5 -5.83301 -49.5 -17.5s-19.5 -26.167 -19.5 -43.5c0 -14.667 3.16699 -27.667 9.5 -39s15.5 -24 27.5 -38l392 -439h-179zM276.997 -10.999c-48 0 -89.832 9.50098 -125.499 28.501
s-63.334 45 -83.001 78s-29.5 69.833 -29.5 110.5c0 44 11.667 83.167 35 117.5s58.333 62.166 105 83.499l65 -99c-20 -9.33301 -35 -21.666 -45 -36.999s-15 -33.666 -15 -54.999c0 -17.333 3.83301 -32.5 11.5 -45.5s18.834 -23.167 33.501 -30.5s32 -11 52 -11
c22.667 0 42.167 4.83301 58.5 14.5s30.166 23.167 41.499 40.5l103 -106c-11.333 -14.667 -27.5 -28.834 -48.5 -42.501s-45 -24.834 -72 -33.501s-55.833 -13 -86.5 -13z" />
    <glyph glyph-name="quotesingle" unicode="'" horiz-adv-x="250" 
d="M79 429l-28 297h148l-28 -297h-92z" />
    <glyph glyph-name="parenleft" unicode="(" horiz-adv-x="310" 
d="M211 -127c-38 32.667 -70.333 72 -97 118s-47 96.333 -61 151s-21 112 -21 172s7 117.333 21 172s34.333 105 61 151s59 85.333 97 118l84 -81c-42.667 -41.333 -75.334 -92.333 -98.001 -153s-34 -129.667 -34 -207c0 -76.667 11.333 -145.5 34 -206.5
s55.334 -112.5 98.001 -154.5z" />
    <glyph glyph-name="parenright" unicode=")" horiz-adv-x="310" 
d="M99 -127l-84 80c42.667 42 75.334 93.5 98.001 154.5s34 129.833 34 206.5c0 77.333 -11.333 146.333 -34 207s-55.334 111.667 -98.001 153l84 81c38 -32.667 70.333 -72 97 -118s47 -96.333 61 -151s21 -112 21 -172s-7 -117.333 -21 -172s-34.333 -105 -61 -151
s-59 -85.333 -97 -118z" />
    <glyph glyph-name="asterisk" unicode="*" horiz-adv-x="490" 
d="M212 310l-1 157l-123 -89l-56 109l143 49l-119 88l87 88l87 -121l48 145l110 -57l-89 -125l154 -1l-20 -122l-145 48l47 -149z" />
    <glyph glyph-name="plus" unicode="+" horiz-adv-x="563" 
d="M49 271v127h465v-127h-465zM217 579h130v-487h-130v487z" />
    <glyph glyph-name="comma" unicode="," horiz-adv-x="283" 
d="M54 -120l73.002 136l45 13c-4.66699 -10 -10.334 -18.167 -17.001 -24.5s-14.334 -9.5 -23.001 -9.5c-19.333 0 -37 8 -53 24s-24 36 -24 60c0 26 8.83301 48.333 26.5 67s39.5 28 65.5 28c24.667 0 46.167 -9.16699 64.5 -27.5s27.5 -40.833 27.5 -67.5
c0 -10.667 -2 -23 -6 -37s-12 -32.333 -24 -55l-81 -148z" />
    <glyph glyph-name="hyphen" unicode="-" horiz-adv-x="462" 
d="M54 188v134h354v-134h-354z" />
    <glyph glyph-name="period" unicode="." horiz-adv-x="300" 
d="M150 -11c-26 0 -47.667 9 -65 27s-26 39.667 -26 65c0 26.667 8.66699 48.834 26 66.501s39 26.5 65 26.5c26.667 0 48.5 -8.83301 65.5 -26.5s25.5 -39.834 25.5 -66.501c0 -25.333 -8.5 -47 -25.5 -65s-38.833 -27 -65.5 -27z" />
    <glyph glyph-name="slash" unicode="/" horiz-adv-x="384" 
d="M3 -55l245 810h133l-245 -810h-133z" />
    <glyph glyph-name="zero" unicode="0" horiz-adv-x="666" 
d="M334 -11c-56.667 0 -107.998 15.3359 -153.998 46.0029s-82.167 73.5 -108.5 128.5s-39.5 118.5 -39.5 190.5c0 72.667 13 136.167 39 190.5s61.667 96.666 107 126.999s96.666 45.5 153.999 45.5c58 0 109.667 -15.167 155 -45.5s81.166 -72.833 107.499 -127.5
s39.5 -118.334 39.5 -191.001s-13.167 -136.334 -39.5 -191.001s-62 -97.167 -107 -127.5s-96.167 -45.5 -153.5 -45.5zM333.002 128.003c29.333 0 54.668 8.49707 76.001 25.4971s37.833 42.333 49.5 76s17.5 74.834 17.5 123.501c0 49.333 -5.83301 90.666 -17.5 123.999
s-28.167 58.5 -49.5 75.5s-47 25.5 -77 25.5c-28.667 0 -53.834 -8.33301 -75.501 -25s-38.167 -41.667 -49.5 -75s-17 -74.666 -17 -123.999s5.66699 -90.666 17 -123.999s27.833 -58.666 49.5 -75.999s47.167 -26 76.5 -26z" />
    <glyph glyph-name="one" unicode="1" horiz-adv-x="378" 
d="M156 0v706h156v-706h-156zM20 573v133h282v-133h-282z" />
    <glyph glyph-name="two" unicode="2" horiz-adv-x="564" 
d="M24 88l270.997 280c16.667 16.667 30 32 40 46s17.333 27.167 22 39.5s7 24.833 7 37.5c0 27.333 -8.83301 48.833 -26.5 64.5s-40.834 23.5 -69.501 23.5c-28 0 -53.167 -7.5 -75.5 -22.5s-43.833 -39.5 -64.5 -73.5l-105 91c28 47.333 63.667 83 107 107s93 36 149 36
c48.667 0 90.834 -9 126.501 -27s63.334 -43.667 83.001 -77s29.5 -72.333 29.5 -117c0 -28 -3.66699 -53.833 -11 -77.5s-19.166 -47 -35.499 -70s-38.166 -48.167 -65.499 -75.5l-188 -187zM23.9971 0v88l133 46h375v-134h-508z" />
    <glyph glyph-name="three" unicode="3" horiz-adv-x="559" 
d="M253 -11c-48.667 0 -93.3311 8.5 -133.998 25.5s-75 41.5 -103 73.5l101 101c12.667 -18.667 31.167 -33.834 55.5 -45.501s50.166 -17.5 77.499 -17.5c24.667 0 46 4.33301 64 13s32.167 21 42.5 37s15.5 35 15.5 57s-5.16699 40.833 -15.5 56.5
s-25.333 27.834 -45 36.501s-43.167 13 -70.5 13c-12.667 0 -25.834 -0.833008 -39.501 -2.5s-25.167 -4.16699 -34.5 -7.5l69 87c18.667 5.33301 36.5 9.83301 53.5 13.5s32.833 5.5 47.5 5.5c36 0 68.333 -8.5 97 -25.5s51.5 -41 68.5 -72s25.5 -67.833 25.5 -110.5
c0 -46.667 -11.5 -88 -34.5 -124s-55 -64 -96 -84s-89.167 -30 -144.5 -30zM167.003 329v87l172 202l176 1l-179 -204zM60.0029 573v133h455v-87l-123 -46h-332z" />
    <glyph glyph-name="four" unicode="4" horiz-adv-x="609" 
d="M21 245l232 461h171l-237 -461h-166zM21 157v88l52 45h514v-133h-566zM354 0v437h154v-437h-154z" />
    <glyph glyph-name="five" unicode="5" horiz-adv-x="560" 
d="M254 -11c-48.667 0 -94.1689 8.50195 -136.502 25.502s-77.5 41.5 -105.5 73.5l102 101c12.667 -18.667 31.167 -33.834 55.5 -45.501s50.833 -17.5 79.5 -17.5c25.333 0 47.333 4.5 66 13.5s33.334 22 44.001 39s16 36.833 16 59.5c0 23.333 -5.33301 43.333 -16 60
s-25.5 29.5 -44.5 38.5s-40.5 13.5 -64.5 13.5s-46 -3.16699 -66 -9.5s-38.333 -15.833 -55 -28.5l13 100c15.333 12 30 21.833 44 29.5s29.333 13.5 46 17.5s36.334 6 59.001 6c52 0 95.833 -10.667 131.5 -32s62.667 -49.666 81 -84.999s27.5 -74.333 27.5 -117
c0 -46.667 -11.5 -88.334 -34.5 -125.001s-55.167 -65.334 -96.5 -86.001s-90 -31 -146 -31zM128.998 312.002l-68 63l34 331h142l-37 -328zM115.998 573.002l-21 133h397v-133h-376z" />
    <glyph glyph-name="six" unicode="6" horiz-adv-x="573" 
d="M287 -11c-49.333 0 -93.834 11 -133.501 33s-71 51.5 -94 88.5s-34.5 78.5 -34.5 124.5c0 60 21 120.667 63 182l199 289h177l-221 -308l-59 -5c9.33301 16 19.166 29.833 29.499 41.5s23.5 20.667 39.5 27s36.333 9.5 61 9.5c44 0 83.5 -10.167 118.5 -30.5
s63.167 -48 84.5 -83s32 -75.167 32 -120.5c0 -46 -11.667 -87.833 -35 -125.5s-54.666 -67.5 -93.999 -89.5s-83.666 -33 -132.999 -33zM286.999 126c20.667 0 39.334 5 56.001 15s29.667 23.667 39 41s14 36.666 14 57.999c0 22 -4.66699 41.5 -14 58.5
s-22.333 30.333 -39 40s-35.334 14.5 -56.001 14.5c-21.333 0 -40.166 -4.83301 -56.499 -14.5s-29.166 -23 -38.499 -40s-14 -36.5 -14 -58.5c0 -21.333 4.66699 -40.666 14 -57.999s22.166 -31 38.499 -41s35.166 -15 56.499 -15z" />
    <glyph glyph-name="seven" unicode="7" horiz-adv-x="527" 
d="M114 0l240 618h153l-231 -618h-162zM20 573v133h487v-88l-52 -45h-435z" />
    <glyph glyph-name="eight" unicode="8" horiz-adv-x="562" 
d="M281 -11c-50.667 0 -94.8301 9 -132.497 27s-67 42.667 -88 74s-31.5 67 -31.5 107c0 33.333 6.5 63.333 19.5 90s31.333 49 55 67s51.167 30.333 82.5 37l-3 -32c-26.667 6 -49.334 17.167 -68.001 33.5s-33 36.166 -43 59.499s-15 47.666 -15 72.999
c0 37.333 9.5 70.5 28.5 99.5s45.5 51.833 79.5 68.5s72.667 25 116 25c44 0 82.833 -8.33301 116.5 -25s60 -39.5 79 -68.5s28.5 -62.167 28.5 -99.5c0 -25.333 -4.83301 -49.666 -14.5 -72.999s-23.834 -43.166 -42.501 -59.499s-41.334 -27.5 -68.001 -33.5l-4 32
c32 -6.66699 59.833 -19 83.5 -37s41.834 -40.333 54.501 -67s19 -56.667 19 -90c0 -40 -10.333 -75.667 -31 -107s-49.834 -56 -87.501 -74s-82.167 -27 -133.5 -27zM281.004 123c20 0 37.667 4.16699 53 12.5s27.5 19.833 36.5 34.5s13.5 31 13.5 49
c0 18.667 -4.5 35.167 -13.5 49.5s-21.167 25.666 -36.5 33.999s-33 12.5 -53 12.5s-37.667 -4.16699 -53 -12.5s-27.333 -19.666 -36 -33.999s-13 -30.833 -13 -49.5c0 -18 4.33301 -34.333 13 -49s20.667 -26.167 36 -34.5s33 -12.5 53 -12.5zM281.004 429
c23.333 0 42.5 7.5 57.5 22.5s22.5 33.833 22.5 56.5c0 23.333 -7.5 42.5 -22.5 57.5s-34.167 22.5 -57.5 22.5c-22.667 0 -41.667 -7.33301 -57 -22s-23 -33.667 -23 -57c0 -22.667 7.66699 -41.667 23 -57s34.333 -23 57 -23z" />
    <glyph glyph-name="nine" unicode="9" horiz-adv-x="573" 
d="M109 0l222.004 309l58 4c-8.66699 -15.333 -18.167 -28.833 -28.5 -40.5s-23.333 -20.667 -39 -27s-36.5 -9.5 -62.5 -9.5c-42.667 0 -81.834 10.167 -117.501 30.5s-64 48 -85 83s-31.5 74.833 -31.5 119.5c0 46.667 11.667 88.667 35 126s54.666 67 93.999 89
s83.666 33 132.999 33s93.666 -10.833 132.999 -32.5s70.5 -51 93.5 -88s34.5 -78.833 34.5 -125.5c0 -60 -20.667 -120.333 -62 -181l-199 -290h-178zM287.004 353c20.667 0 39.3311 5 55.998 15s29.667 23.5 39 40.5s14 36.167 14 57.5c0 22 -4.66699 41.667 -14 59
s-22.333 30.833 -39 40.5s-35.334 14.5 -56.001 14.5c-21.333 0 -40.166 -4.83301 -56.499 -14.5s-29.333 -23.167 -39 -40.5s-14.5 -37 -14.5 -59c0 -21.333 4.83301 -40.5 14.5 -57.5s22.834 -30.5 39.501 -40.5s35.334 -15 56.001 -15z" />
    <glyph glyph-name="colon" unicode=":" horiz-adv-x="290" 
d="M145 -11c-26 0 -47.667 9 -65 27s-26 39.667 -26 65c0 26.667 8.66699 48.834 26 66.501s39 26.5 65 26.5c26.667 0 48.5 -8.83301 65.5 -26.5s25.5 -39.834 25.5 -66.501c0 -25.333 -8.5 -47 -25.5 -65s-38.833 -27 -65.5 -27zM145 285c-26 0 -47.667 9 -65 27
s-26 39.667 -26 65c0 26.667 8.66699 48.834 26 66.501s39 26.5 65 26.5c26.667 0 48.5 -8.83301 65.5 -26.5s25.5 -39.834 25.5 -66.501c0 -25.333 -8.5 -47 -25.5 -65s-38.833 -27 -65.5 -27z" />
    <glyph glyph-name="semicolon" unicode=";" horiz-adv-x="280" 
d="M50 -120l73.001 136l46 13c-5.33301 -10 -11.333 -18.167 -18 -24.5s-14.334 -9.5 -23.001 -9.5c-18.667 0 -36 8 -52 24s-24 36 -24 60c0 26 8.83301 48.333 26.5 67s39.5 28 65.5 28c24.667 0 46.167 -9.16699 64.5 -27.5s27.5 -40.833 27.5 -67.5
c0 -10.667 -2.16699 -23 -6.5 -37s-12.5 -32.333 -24.5 -55l-80 -148zM142.001 285c-26.667 0 -48.5 9 -65.5 27s-25.5 39.667 -25.5 65c0 26.667 8.5 48.834 25.5 66.501s38.833 26.5 65.5 26.5c26 0 47.5 -8.83301 64.5 -26.5s25.5 -39.834 25.5 -66.501
c0 -25.333 -8.5 -47 -25.5 -65s-38.5 -27 -64.5 -27z" />
    <glyph glyph-name="less" unicode="&#x3c;" horiz-adv-x="570" 
d="M513 87l-467 196v105l467 196v-139l-354 -140v60l354 -140v-138z" />
    <glyph glyph-name="equal" unicode="=" horiz-adv-x="563" 
d="M49 389v127h465v-127h-465zM49 149v127h465v-127h-465z" />
    <glyph glyph-name="greater" unicode="&#x3e;" horiz-adv-x="570" 
d="M57 445v139l467 -196v-105l-467 -196v138l354 140v-60z" />
    <glyph glyph-name="question" unicode="?" horiz-adv-x="499" 
d="M200 255l-7.99902 192.001h43c16.667 0 31.167 3 43.5 9s22 14.5 29 25.5s10.5 24.167 10.5 39.5c0 14.667 -3.33301 27.5 -10 38.5s-16 19.333 -28 25s-26 8.5 -42 8.5c-24.667 0 -47.167 -7.16699 -67.5 -21.5s-36.833 -33.833 -49.5 -58.5l-98 92
c20 39.333 49 71.166 87 95.499s83 36.5 135 36.5c43.333 0 81.666 -9 114.999 -27s59.333 -42.5 78 -73.5s28 -65.833 28 -104.5c0 -39.333 -8 -73 -24 -101s-37.667 -50.833 -65 -68.5s-58.333 -30.167 -93 -37.5l45 59l-9 -129h-120zM260.001 -10.999
c-26.667 0 -48.5 9 -65.5 27s-25.5 39.667 -25.5 65c0 26.667 8.5 48.834 25.5 66.501s38.833 26.5 65.5 26.5c26 0 47.5 -8.83301 64.5 -26.5s25.5 -39.834 25.5 -66.501c0 -25.333 -8.5 -47 -25.5 -65s-38.5 -27 -64.5 -27z" />
    <glyph glyph-name="at" unicode="@" horiz-adv-x="756" 
d="M362 77c-25.333 0 -49 6.66699 -71 20s-39.667 31.5 -53 54.5s-20 48.5 -20 76.5c0 28.667 6.66699 54.667 20 78s31 41.833 53 55.5s45.667 20.5 71 20.5c31.333 0 56.5 -7.16699 75.5 -21.5s28.5 -38.5 28.5 -72.5v-119c0 -32.667 -9.33301 -56.167 -28 -70.5
s-44 -21.5 -76 -21.5zM369 170c17.333 0 30.833 5.66699 40.5 17s14.5 25.333 14.5 42s-4.83301 30.5 -14.5 41.5s-23.167 16.5 -40.5 16.5c-16 0 -29 -5.5 -39 -16.5s-15 -24.833 -15 -41.5c0 -17.333 5 -31.5 15 -42.5s23 -16.5 39 -16.5zM437 81v80l12 71l-12 71v71h94
v-293h-94zM534 45l72.9961 -74.9971c-30 -26.667 -64.167 -46.834 -102.5 -60.501s-79.166 -20.5 -122.499 -20.5c-48 0 -92.833 8.66699 -134.5 26s-78.167 41.166 -109.5 71.499s-55.833 66.166 -73.5 107.499s-26.5 86 -26.5 134s9 92.667 27 134s42.833 77.333 74.5 108
s68.834 54.667 111.501 72s88.334 26 137.001 26c65.333 0 122.666 -14.167 171.999 -42.5s88 -67.333 116 -117s42 -107.5 42 -173.5c0 -31.333 -3.16699 -59.666 -9.5 -84.999s-16.166 -48.333 -29.499 -69l-116 2c10.667 12.667 19.334 27 26.001 43s11.667 33.5 15 52.5
s5 39.167 5 60.5c0 48.667 -8.83301 89.667 -26.5 123s-42.667 58.5 -75 75.5s-71.166 25.5 -116.499 25.5c-46.667 0 -87.834 -9.33301 -123.501 -28s-63.5 -45.5 -83.5 -80.5s-30 -77.5 -30 -127.5c0 -48.667 9.5 -90.334 28.5 -125.001s45.667 -61.334 80 -80.001
s73.833 -28 118.5 -28c31.333 0 59.5 4.33301 84.5 13s47.833 21.334 68.5 38.001zM484.996 167.003h194v-86h-194v86z" />
    <glyph glyph-name="A" unicode="A" horiz-adv-x="729" 
d="M15 0l280 706h142l277 -706h-166l-212 586h57l-215 -586h-163zM174 128v128h385v-128h-385z" />
    <glyph glyph-name="B" unicode="B" horiz-adv-x="641" 
d="M188 0v122.001h166c30.667 0 54.667 9 72 27s26 40 26 66c0 18 -4 34 -12 48s-19.167 25 -33.5 33s-31.833 12 -52.5 12h-166v119h153c26 0 47 6.5 63 19.5s24 32.833 24 59.5c0 26 -8 45.5 -24 58.5s-37 19.5 -63 19.5h-153v122h183c45.333 0 83.833 -8.33301 115.5 -25
s55.834 -39 72.501 -67s25 -59 25 -93c0 -43.333 -14 -80 -42 -110s-69.333 -50.667 -124 -62l4 53c59.333 -11.333 105.166 -34.333 137.499 -69s48.5 -77.334 48.5 -128.001c0 -38.667 -9.5 -73.5 -28.5 -104.5s-46.333 -55.5 -82 -73.5s-78.5 -27 -128.5 -27h-181z
M68 0.000976562v706h155v-706h-155z" />
    <glyph glyph-name="C" unicode="C" horiz-adv-x="689" 
d="M403 -11c-52.667 0 -101.5 9.16699 -146.5 27.5s-84.333 44.166 -118 77.499s-59.834 72.166 -78.501 116.499s-28 92.166 -28 143.499s9.33301 99.166 28 143.499s44.667 82.833 78 115.5s72.5 58.167 117.5 76.5s93.833 27.5 146.5 27.5c56 0 105.833 -9 149.5 -27
s81.834 -42.667 114.501 -74l-105 -106c-18.667 20 -41.167 35.667 -67.5 47s-56.833 17 -91.5 17c-30.667 0 -58.834 -5.16699 -84.501 -15.5s-47.667 -25.166 -66 -44.499s-32.666 -42.666 -42.999 -69.999s-15.5 -57.333 -15.5 -90
c0 -33.333 5.16699 -63.666 15.5 -90.999s24.666 -50.666 42.999 -69.999s40.333 -34.333 66 -45s53.834 -16 84.501 -16c36 0 67.333 5.66699 94 17s49.667 27 69 47l106 -106c-34 -31.333 -72.833 -56 -116.5 -74s-94.167 -27 -151.5 -27z" />
    <glyph glyph-name="D" unicode="D" horiz-adv-x="754" 
d="M174 0l0.000976562 137.996h175c42.667 0 80 8.5 112 25.5s56.667 41.833 74 74.5s26 71.334 26 116.001s-8.83301 83 -26.5 115s-42.334 56.667 -74.001 74s-68.834 26 -111.501 26h-180v137h182c53.333 0 102.5 -8.5 147.5 -25.5s84.333 -41.333 118 -73
s59.667 -69 78 -112s27.5 -90.5 27.5 -142.5c0 -51.333 -9.16699 -98.666 -27.5 -141.999s-44.166 -80.666 -77.499 -111.999s-72.5 -55.666 -117.5 -72.999s-93.833 -26 -146.5 -26h-179zM68.001 -0.00390625v706h157v-706h-157z" />
    <glyph glyph-name="E" unicode="E" horiz-adv-x="615" 
d="M68 0v706h157v-706h-157zM188 0v136h387v-136h-387zM188 295v131h352v-131h-352zM188 571v135h382v-135h-382z" />
    <glyph glyph-name="F" unicode="F" horiz-adv-x="590" 
d="M68 0v706h157v-706h-157zM188 277v135h353v-135h-353zM188 571v135h369v-135h-369z" />
    <glyph glyph-name="G" unicode="G" horiz-adv-x="785" 
d="M401 -11c-51.333 0 -99.499 9.33301 -144.499 28s-84.167 44.5 -117.5 77.5s-59.5 71.667 -78.5 116s-28.5 92.166 -28.5 143.499s9.66699 99 29 143s46.166 82.5 80.499 115.5s74.5 58.667 120.5 77s95.333 27.5 148 27.5c60.667 0 115.834 -11 165.501 -33
s90.834 -52.333 123.501 -91l-107 -107c-22.667 29.333 -49.334 51.333 -80.001 66s-65.334 22 -104.001 22c-41.333 0 -78.333 -9.16699 -111 -27.5s-58.167 -44 -76.5 -77s-27.5 -71.5 -27.5 -115.5s9 -82.667 27 -116s42.667 -59.333 74 -78s67.333 -28 108 -28
c41.333 0 76.5 7.83301 105.5 23.5s51.333 38.334 67 68.001s23.5 65.834 23.5 108.501l104 -70l-315 5v133h371v-23c0 -84.667 -15.167 -155.834 -45.5 -213.501s-72.333 -101.167 -126 -130.5s-115.5 -44 -185.5 -44z" />
    <glyph glyph-name="H" unicode="H" horiz-adv-x="730" 
d="M68 0v706h157v-706h-157zM505 0v706h158v-706h-158zM162 295v136h395v-136h-395z" />
    <glyph glyph-name="I" unicode="I" horiz-adv-x="293" 
d="M68 0v706h157v-706h-157z" />
    <glyph glyph-name="J" unicode="J" horiz-adv-x="532" 
d="M215 -11c-44.667 0 -83.501 8.16992 -116.501 24.5029s-61.167 39.166 -84.5 68.499l105 101c12 -16.667 26.167 -29.334 42.5 -38.001s34.833 -13 55.5 -13c20 0 37.333 4.16699 52 12.5s26.334 20.333 35.001 36s13 35.167 13 58.5v467h158v-458
c0 -52.667 -10.667 -98.334 -32 -137.001s-51.333 -68.667 -90 -90s-84.667 -32 -138 -32z" />
    <glyph glyph-name="K" unicode="K" horiz-adv-x="705" 
d="M495 0l-286 368l277 338h194l-312 -367v64l322 -403h-195zM68 0v706h157v-706h-157z" />
    <glyph glyph-name="L" unicode="L" horiz-adv-x="561" 
d="M68 0v706h157v-706h-157zM189 0v138h349v-138h-349z" />
    <glyph glyph-name="M" unicode="M" horiz-adv-x="858" 
d="M68 0v706h112l278 -433h-57l277 433h113v-706h-157v441l28 -7l-181 -282h-104l-180 282l27 7v-441h-156z" />
    <glyph glyph-name="N" unicode="N" horiz-adv-x="738" 
d="M68 0v706h110l47 -141v-565h-157zM555 0l-416 533l39 173l416 -533zM555 0l-42 141v565h157v-706h-115z" />
    <glyph glyph-name="O" unicode="O" horiz-adv-x="806" 
d="M405 -12c-53.333 0 -102.501 9.33398 -147.501 28.001s-84.5 44.667 -118.5 78s-60.333 72.166 -79 116.499s-28 92.166 -28 143.499c0 52 9.33301 100 28 144s44.667 82.5 78 115.5s72.5 58.667 117.5 77s94.167 27.5 147.5 27.5c52.667 0 101.5 -9.16699 146.5 -27.5
s84.333 -44 118 -77s59.834 -71.667 78.501 -116s28 -92.5 28 -144.5c0 -51.333 -9.33301 -99.166 -28 -143.499s-44.667 -83 -78 -116s-72.5 -58.833 -117.5 -77.5s-93.5 -28 -145.5 -28zM402.999 131.001c42 0 78.834 9.33203 110.501 27.999s56.167 44.834 73.5 78.501
s26 72.5 26 116.5c0 33.333 -5 63.5 -15 90.5s-24.333 50.333 -43 70s-40.834 34.667 -66.501 45s-54.167 15.5 -85.5 15.5c-42 0 -78.833 -9.16699 -110.5 -27.5s-56.167 -44 -73.5 -77s-26 -71.833 -26 -116.5c0 -33.333 5 -63.666 15 -90.999s24.167 -50.833 42.5 -70.5
s40.5 -34.834 66.5 -45.501s54.667 -16 86 -16z" />
    <glyph glyph-name="P" unicode="P" horiz-adv-x="628" 
d="M188 257v122.001h152c19.333 0 37 4 53 12s28.667 19.667 38 35s14 34 14 56c0 21.333 -4.66699 39.666 -14 54.999s-22 27 -38 35s-33.667 12 -53 12h-152v122h175c44.667 0 85 -9 121 -27s64.5 -43.833 85.5 -77.5s31.5 -73.5 31.5 -119.5s-10.5 -85.833 -31.5 -119.5
s-49.5 -59.667 -85.5 -78s-76.333 -27.5 -121 -27.5h-175zM68 0.000976562v706h157v-706h-157z" />
    <glyph glyph-name="Q" unicode="Q" horiz-adv-x="819" 
d="M405 -12c-52.667 0 -101.666 9.33398 -146.999 28.001s-84.833 44.667 -118.5 78s-60 72.166 -79 116.499s-28.5 92.166 -28.5 143.499c0 52 9.33301 100 28 144s44.834 82.5 78.501 115.5s73 58.667 118 77s93.833 27.5 146.5 27.5c53.333 0 102.5 -9.16699 147.5 -27.5
s84.333 -44 118 -77s59.834 -71.667 78.501 -116s28 -92.5 28 -144.5c0 -51.333 -9.33301 -99.166 -28 -143.499s-44.834 -83 -78.501 -116s-72.834 -58.833 -117.501 -77.5s-93.334 -28 -146.001 -28zM403.001 131.001c42.667 0 79.667 9.33203 111 27.999
s55.833 44.834 73.5 78.501s26.5 72.5 26.5 116.5c0 33.333 -5 63.5 -15 90.5s-24.333 50.333 -43 70s-40.834 34.667 -66.501 45s-54.5 15.5 -86.5 15.5c-42 0 -78.667 -9.16699 -110 -27.5s-55.833 -44 -73.5 -77s-26.5 -71.833 -26.5 -116.5
c0 -33.333 5 -63.666 15 -90.999s24.333 -50.833 43 -70.5s40.834 -34.834 66.501 -45.501s54.167 -16 85.5 -16zM720.001 -56l-330 330l91 91l330 -330z" />
    <glyph glyph-name="R" unicode="R" horiz-adv-x="652" 
d="M188 291v116h149c31.333 0 55.5 8 72.5 24s25.5 37.667 25.5 65c0 25.333 -8.33301 46.333 -25 63s-40.667 25 -72 25h-150v122h168c46.667 0 87.667 -8.83301 123 -26.5s63 -42.167 83 -73.5s30 -67.333 30 -108c0 -41.333 -10 -77.5 -30 -108.5s-48 -55.167 -84 -72.5
s-78.333 -26 -127 -26h-163zM68 0v706h157v-706h-157zM452 0l-220 304l144 39l262 -343h-186z" />
    <glyph glyph-name="S" unicode="S" horiz-adv-x="583" 
d="M280 -11c-58 0 -107.833 9.49902 -149.5 28.499s-79.834 47.833 -114.501 86.5l102 101c22.667 -26 47.834 -46.167 75.501 -60.5s59.834 -21.5 96.501 -21.5c33.333 0 59.166 6 77.499 18s27.5 28.667 27.5 50c0 19.333 -6 35 -18 47s-27.833 22.333 -47.5 31
s-41.334 17 -65.001 25s-47.167 17.167 -70.5 27.5s-44.833 23.333 -64.5 39s-35.5 35.334 -47.5 59.001s-18 53.5 -18 89.5c0 43.333 10.5 80.666 31.5 111.999s50.167 55.166 87.5 71.499s80.333 24.5 129 24.5c49.333 0 94.5 -8.66699 135.5 -26s74.833 -41 101.5 -71
l-102 -101c-21.333 22 -42.833 38.333 -64.5 49s-46.167 16 -73.5 16s-49 -5.16699 -65 -15.5s-24 -25.166 -24 -44.499c0 -18 6 -32.5 18 -43.5s27.833 -20.5 47.5 -28.5s41.334 -16 65.001 -24s47.167 -17.333 70.5 -28s44.833 -24.167 64.5 -40.5s35.5 -37 47.5 -62
s18 -55.833 18 -92.5c0 -67.333 -24 -120.166 -72 -158.499s-114.333 -57.5 -199 -57.5z" />
    <glyph glyph-name="T" unicode="T" horiz-adv-x="639" 
d="M241 0v696h157v-696h-157zM20 569v137h599v-137h-599z" />
    <glyph glyph-name="U" unicode="U" horiz-adv-x="702" 
d="M352 -11c-58 0 -109.167 12.332 -153.5 36.999s-79 58.834 -104 102.501s-37.5 93.5 -37.5 149.5v428h158v-437c0 -28 6 -52.333 18 -73s28.5 -36.5 49.5 -47.5s44.167 -16.5 69.5 -16.5c26.667 0 50 5.5 70 16.5s35.833 26.667 47.5 47s17.5 44.5 17.5 72.5v438h158
v-429c0 -56 -12.333 -105.667 -37 -149s-59 -77.333 -103 -102s-95 -37 -153 -37z" />
    <glyph glyph-name="V" unicode="V" horiz-adv-x="713" 
d="M288 0l-272 706h168l207 -571h-69l210 571h166l-275 -706h-135z" />
    <glyph glyph-name="W" unicode="W" horiz-adv-x="1002" 
d="M244 0l-227 706h156l166 -543h-61l162 543h123l162 -543h-60l165 543h155l-227 -706h-123l-163 543h58l-163 -543h-123z" />
    <glyph glyph-name="X" unicode="X" horiz-adv-x="715" 
d="M516 0l-197 315h-19l-272 391h187l194 -296h19l272 -410h-184zM15 0l261 378l121 -68l-203 -310h-179zM434 333l-121 68l196 305h179z" />
    <glyph glyph-name="Y" unicode="Y" horiz-adv-x="687" 
d="M285 263l-272 443h182l209 -358h-117l209 358h178l-274 -443h-115zM266 0v335h157v-335h-157z" />
    <glyph glyph-name="Z" unicode="Z" horiz-adv-x="608" 
d="M30 110l355 487h190l-356 -487h-189zM30 0v110l104 25h432v-135h-536zM50 571v135h525v-109l-106 -26h-419z" />
    <glyph glyph-name="bracketleft" unicode="[" horiz-adv-x="349" 
d="M65 -96v822h123v-822h-123zM126 -96v112h191v-112h-191zM126 614v112h191v-112h-191z" />
    <glyph glyph-name="backslash" unicode="\" horiz-adv-x="384" 
d="M248 -55l-245 810h133l245 -810h-133z" />
    <glyph glyph-name="bracketright" unicode="]" horiz-adv-x="349" 
d="M161 -96v822h123v-822h-123zM32 -96v112h191v-112h-191zM32 614v112h191v-112h-191z" />
    <glyph glyph-name="asciicircum" unicode="^" horiz-adv-x="466" 
d="M315 452l-110 209h57l-110 -209h-118l152 274h94l153 -274h-118z" />
    <glyph glyph-name="underscore" unicode="_" horiz-adv-x="505" 
d="M0 -159v120h505v-120h-505z" />
    <glyph glyph-name="grave" unicode="`" horiz-adv-x="323" 
d="M233 516l-193 104l84 118l159 -149z" />
    <glyph glyph-name="a" unicode="a" 
d="M257 -10c-44.667 0 -84.499 11 -119.499 33s-62.667 52 -83 90s-30.5 81.333 -30.5 130s10.167 92 30.5 130s48 68 83 90s74.833 33 119.5 33c32.667 0 62.167 -6.33301 88.5 -19s47.833 -30.167 64.5 -52.5s26 -47.833 28 -76.5v-210
c-2 -28.667 -11.167 -54.167 -27.5 -76.5s-37.833 -39.833 -64.5 -52.5s-56.334 -19 -89.001 -19zM288.001 128c32.667 0 58.9971 10.833 78.9971 32.5s30 49.167 30 82.5c0 22.667 -4.5 42.667 -13.5 60s-21.667 30.833 -38 40.5s-35.166 14.5 -56.499 14.5
s-40.166 -4.83301 -56.499 -14.5s-29.333 -23.167 -39 -40.5s-14.5 -37.333 -14.5 -60c0 -22 4.66699 -41.667 14 -59s22.333 -31 39 -41s35.334 -15 56.001 -15zM390.998 0v131l23 118l-23 118v119h150v-486h-150z" />
    <glyph glyph-name="b" unicode="b" 
d="M334 -10c-32.667 0 -62.667 6.83301 -90 20.5s-49.666 32 -66.999 55s-27.333 48.833 -30 77.5v205c2.66699 28.667 12.667 54.167 30 76.5s39.666 39.833 66.999 52.5s57.333 19 90 19c46 0 86.833 -11 122.5 -33s63.667 -52 84 -90s30.5 -81.333 30.5 -130
s-10.167 -92 -30.5 -130s-48.333 -68 -84 -90s-76.5 -33 -122.5 -33zM307 128c21.333 0 40.168 5 56.501 15s29.166 23.667 38.499 41s14 37 14 59c0 22.667 -4.66699 42.667 -14 60s-22.166 30.833 -38.499 40.5s-35.166 14.5 -56.499 14.5s-40.333 -4.83301 -57 -14.5
s-29.5 -23.167 -38.5 -40.5s-13.5 -37.333 -13.5 -60s4.66699 -42.667 14 -60s22.166 -30.833 38.499 -40.5s35.166 -14.5 56.499 -14.5zM54.002 0v726h153v-359l-25 -118l23 -118v-131h-151z" />
    <glyph glyph-name="c" unicode="c" horiz-adv-x="496" 
d="M289 -11c-50 0 -95.335 11.001 -136.002 33.001s-72.667 52.333 -96 91s-35 82 -35 130c0 48.667 11.833 92.167 35.5 130.5s55.834 68.5 96.501 90.5s86.334 33 137.001 33c38 0 72.833 -6.5 104.5 -19.5s59.834 -32.5 84.501 -58.5l-98 -98
c-11.333 12.667 -24.5 22 -39.5 28s-32.167 9 -51.5 9c-22 0 -41.5 -4.83301 -58.5 -14.5s-30.333 -23 -40 -40s-14.5 -36.833 -14.5 -59.5s4.83301 -42.667 14.5 -60s23.167 -31 40.5 -41s36.666 -15 57.999 -15c20 0 37.833 3.5 53.5 10.5s29.167 16.833 40.5 29.5l97 -98
c-25.333 -26.667 -54 -46.834 -86 -60.501s-67.667 -20.5 -107 -20.5z" />
    <glyph glyph-name="d" unicode="d" 
d="M261 -10c-46 0 -86.835 11 -122.502 33s-63.667 52 -84 90s-30.5 81.333 -30.5 130s10.167 92 30.5 130s48.333 68 84 90s76.5 33 122.5 33c33.333 0 63.5 -6.33301 90.5 -19s49.333 -30.167 67 -52.5s27.5 -47.833 29.5 -76.5v-205c-2 -28.667 -11.667 -54.5 -29 -77.5
s-39.666 -41.333 -66.999 -55s-57.666 -20.5 -90.999 -20.5zM287.998 128c22 0 40.9971 4.83301 56.9971 14.5s28.667 23.167 38 40.5s14 37.333 14 60s-4.5 42.5 -13.5 59.5s-21.667 30.5 -38 40.5s-35.166 15 -56.499 15s-40.166 -5 -56.499 -15s-29.333 -23.667 -39 -41
s-14.5 -37 -14.5 -59s4.66699 -41.667 14 -59s22.333 -31 39 -41s35.334 -15 56.001 -15zM540.995 0h-150v131l23 118l-26 118v359h153v-726z" />
    <glyph glyph-name="e" unicode="e" horiz-adv-x="548" 
d="M294 -11c-52.667 0 -99.4971 10.834 -140.497 32.501s-73.167 51.834 -96.5 90.501s-35 82.334 -35 131.001s11.5 92.167 34.5 130.5s54.167 68.5 93.5 90.5s83.666 33 132.999 33c48 0 90.333 -10.333 127 -31s65.5 -49.334 86.5 -86.001s31.5 -78.667 31.5 -126
c0 -8.66699 -0.5 -17.834 -1.5 -27.501s-2.83301 -20.834 -5.5 -33.501l-419 -1v105l354 1l-66 -44c-0.666992 28 -5 51.167 -13 69.5s-19.833 32.333 -35.5 42s-34.834 14.5 -57.501 14.5c-24 0 -44.833 -5.5 -62.5 -16.5s-31.334 -26.5 -41.001 -46.5
s-14.5 -44.333 -14.5 -73s5.16699 -53.167 15.5 -73.5s25 -36 44 -47s41.5 -16.5 67.5 -16.5c24 0 45.667 4.16699 65 12.5s36.333 20.833 51 37.5l84 -84c-24 -28 -53 -49 -87 -63s-71.333 -21 -112 -21z" />
    <glyph glyph-name="f" unicode="f" horiz-adv-x="436" 
d="M116 0l-0.000976562 527.999c0 39.333 8.83301 74.833 26.5 106.5s42.5 56.667 74.5 75s70 27.5 114 27.5c33.333 0 62.5 -5.5 87.5 -16.5s46.833 -26.167 65.5 -45.5l-96 -96c-6.66699 6.66699 -14.167 11.834 -22.5 15.501s-18.166 5.5 -29.499 5.5
c-20.667 0 -37 -6 -49 -18s-18 -28.333 -18 -49v-533h-153zM8.99902 355.999v130h400v-130h-400z" />
    <glyph glyph-name="g" unicode="g" horiz-adv-x="584" 
d="M260 -218c-53.333 0 -100.169 9.16992 -140.502 27.5029s-72.166 44.166 -95.499 77.499l94 94c17.333 -20.667 36.833 -36.334 58.5 -47.001s47.834 -16 78.501 -16c38 0 67.833 9.33301 89.5 28s32.5 45 32.5 79v124l26 106l-23 106v125h150v-457
c0 -50 -11.667 -93.333 -35 -130s-55.333 -65.334 -96 -86.001s-87 -31 -139 -31zM252.997 15.0029c-44.667 0 -84.3311 10.665 -118.998 31.998s-62 50.333 -82 87s-30 77.334 -30 122.001c0 45.333 10 86.166 30 122.499s47.333 65 82 86s74.334 31.5 119.001 31.5
c33.333 0 63.166 -6.16699 89.499 -18.5s47.666 -29.666 63.999 -51.999s25.5 -48.166 27.5 -77.499v-185c-2 -28.667 -11.167 -54.167 -27.5 -76.5s-37.833 -39.833 -64.5 -52.5s-56.334 -19 -89.001 -19zM282 151.001c21.333 0 39.832 4.66602 55.499 13.999
s27.667 21.833 36 37.5s12.5 33.5 12.5 53.5s-4.16699 38 -12.5 54s-20.333 28.667 -36 38s-34.167 14 -55.5 14c-20.667 0 -39 -4.66699 -55 -14s-28.333 -22 -37 -38s-13 -34 -13 -54c0 -18.667 4.33301 -36.167 13 -52.5s20.834 -29.166 36.501 -38.499
s34.167 -14 55.5 -14z" />
    <glyph glyph-name="h" unicode="h" horiz-adv-x="572" 
d="M375 0v277.001c0 25.333 -7.83301 45.833 -23.5 61.5s-35.5 23.5 -59.5 23.5c-16.667 0 -31.334 -3.5 -44.001 -10.5s-22.667 -17 -30 -30s-11 -27.833 -11 -44.5l-59 29c0 38 8 71.333 24 100s38.333 50.834 67 66.501s61.667 23.5 99 23.5
c38 0 71.333 -7.83301 100 -23.5s50.834 -37.334 66.501 -65.001s23.5 -59.834 23.5 -96.501v-311h-153zM54 0.000976562v726h153v-726h-153z" />
    <glyph glyph-name="i" unicode="i" horiz-adv-x="261" 
d="M54 0v486h153v-486h-153zM131 553c-24 0 -43.833 8.16699 -59.5 24.5s-23.5 36.166 -23.5 59.499c0 24 7.83301 44 23.5 60s35.5 24 59.5 24s43.667 -8 59 -24s23 -36 23 -60c0 -23.333 -7.66699 -43.166 -23 -59.499s-35 -24.5 -59 -24.5z" />
    <glyph glyph-name="j" unicode="j" horiz-adv-x="273" 
d="M26 -218c-35.333 0 -65.333 5.83398 -90 17.501s-46.334 28.167 -65.001 49.5l95 95c7.33301 -8.66699 14.833 -14.834 22.5 -18.501s16.5 -5.5 26.5 -5.5c14.667 0 26.834 4.33301 36.501 13s14.5 22 14.5 40v513h153v-511c0 -39.333 -8.33301 -73.333 -25 -102
s-39.5 -51 -68.5 -67s-62.167 -24 -99.5 -24zM144 553.001c-24 0 -43.833 8.16699 -59.5 24.5s-23.5 36.166 -23.5 59.499c0 24 7.83301 44 23.5 60s35.5 24 59.5 24s43.667 -8 59 -24s23 -36 23 -60c0 -23.333 -7.66699 -43.166 -23 -59.499s-35 -24.5 -59 -24.5z" />
    <glyph glyph-name="k" unicode="k" horiz-adv-x="546" 
d="M365 0l-170 252l169 234h171l-204 -263l5 63l209 -286h-180zM54 0v726h153v-726h-153z" />
    <glyph glyph-name="l" unicode="l" horiz-adv-x="261" 
d="M54 0v726h153v-726h-153z" />
    <glyph glyph-name="m" unicode="m" horiz-adv-x="873" 
d="M54 0v486h153v-486h-153zM365 0l-0.000976562 283.996c0 24.667 -7.5 43.834 -22.5 57.501s-33.5 20.5 -55.5 20.5c-15.333 0 -29 -3.16699 -41 -9.5s-21.5 -15.166 -28.5 -26.499s-10.5 -25.333 -10.5 -42l-59 26c0 38.667 8.33301 71.834 25 99.501
s39.334 49 68.001 64s61 22.5 97 22.5c34 0 64.5 -7.66699 91.5 -23s48.5 -36.666 64.5 -63.999s24 -60 24 -98v-311h-153zM675.999 -0.00390625l0.00195312 283.998c0 24.667 -7.5 43.834 -22.5 57.501s-33.5 20.5 -55.5 20.5c-15.333 0 -29 -3.16699 -41 -9.5
s-21.5 -15.166 -28.5 -26.499s-10.5 -25.333 -10.5 -42l-88 12c1.33301 41.333 11.166 76.833 29.499 106.5s42.666 52.667 72.999 69s64.5 24.5 102.5 24.5c37.333 0 70.5 -7.83301 99.5 -23.5s52 -38 69 -67s25.5 -63.833 25.5 -104.5v-301h-153z" />
    <glyph glyph-name="n" unicode="n" horiz-adv-x="572" 
d="M375 0v276.999c0 25.333 -7.83301 45.833 -23.5 61.5s-35.5 23.5 -59.5 23.5c-16.667 0 -31.334 -3.5 -44.001 -10.5s-22.667 -17 -30 -30s-11 -27.833 -11 -44.5l-59 29c0 38 8.33301 71.333 25 100s39.834 50.834 69.501 66.501s63.167 23.5 100.5 23.5
c36 0 67.833 -8.5 95.5 -25.5s49.5 -39.5 65.5 -67.5s24 -58.667 24 -92v-311h-153zM54 -0.000976562v486h153v-486h-153z" />
    <glyph glyph-name="o" unicode="o" horiz-adv-x="576" 
d="M288 -11c-50 0 -95.168 11.167 -135.501 33.5s-72.166 52.833 -95.499 91.5s-35 82 -35 130s11.667 91 35 129s55 68.167 95 90.5s85.333 33.5 136 33.5s96 -11 136 -33s71.667 -52.167 95 -90.5s35 -81.5 35 -129.5s-11.667 -91.333 -35 -130s-55 -69.167 -95 -91.5
s-85.333 -33.5 -136 -33.5zM287.999 128c22 0 41.332 4.83203 57.999 14.499s29.5 23.334 38.5 41.001s13.5 37.834 13.5 60.501s-4.66699 42.5 -14 59.5s-22.166 30.333 -38.499 40s-35.5 14.5 -57.5 14.5c-21.333 0 -40.333 -4.83301 -57 -14.5s-29.667 -23.167 -39 -40.5
s-14 -37.333 -14 -60c0 -22 4.66699 -41.833 14 -59.5s22.333 -31.334 39 -41.001s35.667 -14.5 57 -14.5z" />
    <glyph glyph-name="p" unicode="p" 
d="M334 -10c-32.667 0 -62.667 6.33398 -90 19.001s-49.666 30.167 -66.999 52.5s-27.333 47.833 -30 76.5v205c2.66699 28.667 12.667 54.667 30 78s39.666 41.666 66.999 54.999s57.333 20 90 20c46 0 86.833 -11 122.5 -33s63.667 -52 84 -90s30.5 -81.333 30.5 -130
s-10.167 -92 -30.5 -130s-48.333 -68 -84 -90s-76.5 -33 -122.5 -33zM306 128.001c22 0 41.1631 5 57.4961 15s29.166 23.667 38.499 41s14 37 14 59c0 22.667 -4.66699 42.667 -14 60s-22.166 30.833 -38.499 40.5s-35.166 14.5 -56.499 14.5
s-40.166 -4.83301 -56.499 -14.5s-29.166 -23.167 -38.499 -40.5s-14 -37.333 -14 -60c0 -22 4.5 -41.667 13.5 -59s21.833 -31 38.5 -41s35.334 -15 56.001 -15zM53.9961 -204.999v691h153v-125l-25 -118l23 -118v-330h-151z" />
    <glyph glyph-name="q" unicode="q" 
d="M257 -10c-44.667 0 -84.499 11 -119.499 33s-62.667 52 -83 90s-30.5 81.333 -30.5 130s10.167 92 30.5 130s48 68 83 90s74.833 33 119.5 33c32.667 0 62.167 -6.33301 88.5 -19s47.833 -30.167 64.5 -52.5s26 -47.833 28 -76.5v-210
c-2 -28.667 -11.167 -54.167 -27.5 -76.5s-37.833 -39.833 -64.5 -52.5s-56.334 -19 -89.001 -19zM288.001 128c32.667 0 58.9971 10.833 78.9971 32.5s30 49.167 30 82.5c0 22.667 -4.5 42.667 -13.5 60s-21.667 30.833 -38 40.5s-35.166 14.5 -56.499 14.5
s-40.166 -4.83301 -56.499 -14.5s-29.333 -23.167 -39 -40.5s-14.5 -37.333 -14.5 -60c0 -22 4.66699 -41.667 14 -59s22.333 -31 39 -41s35.334 -15 56.001 -15zM390.998 -205v330l23 118l-23 118v125h150v-691h-150z" />
    <glyph glyph-name="r" unicode="r" horiz-adv-x="444" 
d="M54 0v486h153v-486h-153zM207 267l-64 50c12.667 56.667 34 100.667 64 132s71.667 47 125 47c23.333 0 43.833 -3.5 61.5 -10.5s33.167 -17.833 46.5 -32.5l-91 -115c-6.66699 7.33301 -15 13 -25 17s-21.333 6 -34 6c-25.333 0 -45.5 -7.83301 -60.5 -23.5
s-22.5 -39.167 -22.5 -70.5z" />
    <glyph glyph-name="s" unicode="s" horiz-adv-x="458" 
d="M231 -12c-28.667 0 -56.8291 3.66895 -84.4961 11.002s-53.334 17.833 -77.001 31.5s-43.834 29.5 -60.501 47.5l87 88c16 -17.333 35 -30.833 57 -40.5s46 -14.5 72 -14.5c18 0 31.833 2.66699 41.5 8s14.5 12.666 14.5 21.999c0 12 -5.83301 21.167 -17.5 27.5
s-26.5 12 -44.5 17l-57 16.5c-20 6 -39 14.333 -57 25s-32.667 25.5 -44 44.5s-17 43.167 -17 72.5c0 31.333 8 58.5 24 81.5s38.667 41.167 68 54.5s63.666 20 102.999 20c41.333 0 79.5 -7.16699 114.5 -21.5s63.5 -35.5 85.5 -63.5l-87 -88
c-15.333 18 -32.5 30.667 -51.5 38s-37.5 11 -55.5 11c-17.333 0 -30.333 -2.5 -39 -7.5s-13 -12.167 -13 -21.5c0 -10 5.66699 -18 17 -24s26 -11.333 44 -16s37 -10.334 57 -17.001s39 -15.667 57 -27s32.667 -26.5 44 -45.5s17 -43.833 17 -74.5
c0 -47.333 -17.833 -85 -53.5 -113s-83.834 -42 -144.501 -42z" />
    <glyph glyph-name="t" unicode="t" horiz-adv-x="399" 
d="M123 0v687h153v-687h-153zM13 356v130h373v-130h-373z" />
    <glyph glyph-name="u" unicode="u" horiz-adv-x="539" 
d="M270 -11c-44.667 0 -84.168 9.16797 -118.501 27.501s-61.166 43.666 -80.499 75.999s-29 69.5 -29 111.5v282h153v-280c0 -16.667 2.83301 -31 8.5 -43s14.167 -21.333 25.5 -28s25 -10 41 -10c22.667 0 40.667 7.16699 54 21.5s20 34.166 20 59.499v280h153v-281
c0 -42.667 -9.66699 -80.167 -29 -112.5s-46 -57.666 -80 -75.999s-73.333 -27.5 -118 -27.5z" />
    <glyph glyph-name="v" unicode="v" horiz-adv-x="537" 
d="M207 0l-206 486h165l140 -405h-72l140 405h162l-206 -485z" />
    <glyph glyph-name="w" unicode="w" horiz-adv-x="785" 
d="M173 0l-168 486h150l104 -353l-44 -1l115 354h124l116 -354l-45 1l105 353h150l-168 -486h-125l-113 336h38l-115 -336h-124z" />
    <glyph glyph-name="x" unicode="x" horiz-adv-x="536" 
d="M355 0l-117 189l-33 21l-191 276h179l109 -177l32 -20l198 -289h-177zM5 0l199 283l87 -98l-119 -185h-167zM333 211l-87 98l110 177h166z" />
    <glyph glyph-name="y" unicode="y" horiz-adv-x="534" 
d="M204 -2l-200 488h165l127 -387h-61l130 387h165l-208 -488h-118zM79 -205l146 315l97 -112l-86 -203h-157z" />
    <glyph glyph-name="z" unicode="z" horiz-adv-x="481" 
d="M23 90l244 307h186l-244 -307h-186zM23 0v90l109 38h315v-128h-424zM41 358v128h412v-89l-108 -39h-304z" />
    <glyph glyph-name="braceleft" unicode="{" horiz-adv-x="342" 
d="M249 -96c-58 0 -101.833 14.998 -131.5 44.998s-41.834 75 -36.501 135l11 121c2 20.667 -0.5 35.334 -7.5 44.001s-19.833 13 -38.5 13h-28v110h28c18.667 0 31.5 4.33301 38.5 13s9.5 23.334 7.5 44.001l-11 117c-6 59.333 6 104.166 36 134.499s74 45.5 132 45.5h61
v-112h-38c-28 0 -46.667 -5.66699 -56 -17s-12.666 -28.666 -9.99902 -51.999l8 -99c2.66699 -28 1.5 -51.667 -3.5 -71s-16 -35.333 -33 -48s-41.5 -23 -73.5 -31v38c32 -6.66699 56.5 -16.167 73.5 -28.5s28 -28.166 33 -47.499s6.16699 -43 3.5 -71l-8 -102
c-2 -22.667 1.5 -39.834 10.5 -51.501s27.5 -17.5 55.5 -17.5h38v-112h-61z" />
    <glyph glyph-name="bar" unicode="|" horiz-adv-x="300" 
d="M81 -130v906h138v-906h-138z" />
    <glyph glyph-name="braceright" unicode="}" horiz-adv-x="342" 
d="M88 -96l-61.001 0.00195312v112h38c28 0 46.5 5.83301 55.5 17.5s12.5 28.834 10.5 51.501l-8 102c-2.66699 28 -1.5 51.667 3.5 71s16 35.166 33 47.499s41.5 21.833 73.5 28.5v-38c-32 8 -56.5 18.333 -73.5 31s-28 28.667 -33 48s-6.16699 43 -3.5 71l8 99
c2.66699 23.333 -0.666016 40.666 -9.99902 51.999s-28 17 -56 17h-38v112h61c58 0 102 -15.167 132 -45.5s42 -75.166 36 -134.499l-11 -117c-2 -20.667 0.5 -35.334 7.5 -44.001s19.833 -13 38.5 -13h28v-110h-28c-18.667 0 -31.5 -4.33301 -38.5 -13
s-9.5 -23.334 -7.5 -44.001l11 -121c6 -60 -6 -105 -36 -135s-74 -45 -132 -45z" />
    <glyph glyph-name="asciitilde" unicode="~" horiz-adv-x="577" 
d="M373 264c-21.333 0 -39.499 2.66602 -54.499 7.99902s-28.333 11.5 -40 18.5s-23.334 13.167 -35.001 18.5s-25.167 8 -40.5 8c-16.667 0 -31.834 -3.66699 -45.501 -11s-27.167 -18.666 -40.5 -33.999l-79 80c24 31.333 49 54.666 75 69.999s55.333 23 88 23
c20.667 0 38.334 -2.66699 53.001 -8s28 -11.333 40 -18s24 -12.667 36 -18s25.667 -8 41 -8c17.333 0 33 3.33301 47 10s27.667 18 41 34l80 -80c-24 -31.333 -49.333 -54.666 -76 -69.999s-56.667 -23 -90 -23z" />
    <glyph glyph-name="uni00A0" unicode="&#xa0;" horiz-adv-x="190" 
 />
    <glyph glyph-name="exclamdown" unicode="&#xa1;" horiz-adv-x="287" 
d="M61 -205l25 433h115l25 -433h-165zM144 312c-26.667 0 -48.5 9 -65.5 27s-25.5 39.667 -25.5 65c0 26.667 8.5 48.667 25.5 66s38.833 26 65.5 26c26 0 47.5 -8.66699 64.5 -26s25.5 -39.333 25.5 -66c0 -25.333 -8.5 -47 -25.5 -65s-38.5 -27 -64.5 -27z" />
    <glyph glyph-name="cent" unicode="&#xa2;" horiz-adv-x="516" 
d="M298 99c-50 0 -95.335 11.001 -136.002 33.001s-72.667 52.333 -96 91s-35 82 -35 130c0 48.667 11.833 92.167 35.5 130.5s55.834 68.5 96.501 90.5s86.334 33 137.001 33c38 0 72.833 -6.5 104.5 -19.5s59.834 -32.5 84.501 -58.5l-98 -98
c-11.333 12.667 -24.5 22 -39.5 28s-32.167 9 -51.5 9c-22 0 -41.5 -4.83301 -58.5 -14.5s-30.333 -23 -40 -40s-14.5 -36.833 -14.5 -59.5s4.83301 -42.667 14.5 -60s23.167 -31 40.5 -41s36.666 -15 57.999 -15c20 0 37.833 3.5 53.5 10.5s29.167 16.833 40.5 29.5l97 -98
c-25.333 -26.667 -54 -46.834 -86 -60.501s-67.667 -20.5 -107 -20.5zM232.998 10.001v686h110v-686h-110z" />
    <glyph glyph-name="sterling" unicode="&#xa3;" horiz-adv-x="629" 
d="M150 0l0.000976562 491.003c0 47.333 10.167 88.666 30.5 123.999s48.666 62.666 84.999 81.999s77.166 29 122.499 29c46 0 85.833 -9 119.5 -27s60.167 -41.333 79.5 -70l-99 -99c-12.667 18.667 -25.834 32.667 -39.501 42s-31.5 14 -53.5 14
c-17.333 0 -32.666 -3.83301 -45.999 -11.5s-23.666 -18.334 -30.999 -32.001s-11 -30.167 -11 -49.5v-493h-157zM55.001 0.00292969v138h513v-138h-513zM55.001 289.003v115h427v-115h-427z" />
    <glyph glyph-name="currency" unicode="&#xa4;" horiz-adv-x="601" 
d="M301 147c-42 0 -79.8311 9 -113.498 27s-60.167 42.5 -79.5 73.5s-29 66.167 -29 105.5s9.66699 74.5 29 105.5s45.666 55.5 78.999 73.5s71 27 113 27c42.667 0 80.667 -9 114 -27s59.666 -42.5 78.999 -73.5s29 -66.167 29 -105.5c0 -38.667 -9.66699 -73.667 -29 -105
s-45.5 -56 -78.5 -74s-70.833 -27 -113.5 -27zM300.002 276c15.333 0 28.668 3.1709 40.001 9.50391s20.166 15.166 26.499 26.499s9.5 25 9.5 41s-3.33301 29.667 -10 41s-15.5 20.166 -26.5 26.499s-24.167 9.5 -39.5 9.5c-14 0 -26.833 -3.33301 -38.5 -10
s-20.667 -15.834 -27 -27.501s-9.5 -25.167 -9.5 -40.5c0 -14.667 3.16699 -27.834 9.5 -39.501s15.333 -20.667 27 -27s24.5 -9.5 38.5 -9.5zM443.004 418.004l-78 78l106 105l77 -78zM130.004 105.004l-78 78l105 105l78 -78zM365.004 210.004l78 78l105 -105l-77 -78z
M52.0039 523.004l78 78l105 -105l-78 -78z" />
    <glyph glyph-name="yen" unicode="&#xa5;" horiz-adv-x="672" 
d="M278 258l-232 448h171l164 -370h-87l164 370h168l-234 -448h-114zM258 0v325h158v-325h-158zM233 478l26 -95h-194v95h168zM65 223v95h542v-95h-542zM427 383l36 95h144v-95h-180z" />
    <glyph glyph-name="brokenbar" unicode="&#xa6;" horiz-adv-x="300" 
d="M81 396v380h138v-380h-138zM81 -130v380h138v-380h-138z" />
    <glyph glyph-name="section" unicode="&#xa7;" horiz-adv-x="538" 
d="M276 144l-5 98c22 0 39 4 51 12s18 19.667 18 35c0 16.667 -6.33301 29.667 -19 39s-29 17 -49 23s-41.333 12.833 -64 20.5s-44 17.667 -64 30s-36.5 29.333 -49.5 51s-19.5 50.167 -19.5 85.5s8.5 66.5 25.5 93.5s41.333 47.833 73 62.5s68.5 22 110.5 22
c44 0 84.833 -8.33301 122.5 -25s68.167 -41.334 91.5 -74.001l-89 -91c-16.667 21.333 -35.667 36.833 -57 46.5s-42.666 14.5 -63.999 14.5c-20.667 0 -36.334 -4 -47.001 -12s-16 -18.667 -16 -32c0 -14.667 6.33301 -26.334 19 -35.001s29 -16.167 49 -22.5l63.5 -21
c22.333 -7.66699 43.5 -17.667 63.5 -30s36.333 -28.833 49 -49.5s19 -47.667 19 -81c0 -31.333 -9 -59.166 -27 -83.499s-42.833 -43.166 -74.5 -56.499s-68.5 -20 -110.5 -20zM254 -121c-43.333 0 -83.833 8.33105 -121.5 24.998s-68.167 41.334 -91.5 74.001l89 91
c16 -21.333 34.667 -36.833 56 -46.5s42.666 -14.5 63.999 -14.5s37.333 4 48 12s16 18.667 16 32c0 14.667 -6.33301 26.334 -19 35.001s-29 16.167 -49 22.5l-64 21c-22.667 7.66699 -44 17.667 -64 30s-36.333 28.833 -49 49.5s-19 47.667 -19 81c0 32 9 60 27 84
s43 42.667 75 56s69 20 111 20l4 -98c-21.333 0 -38.166 -4 -50.499 -12s-18.5 -19.667 -18.5 -35c0 -16.667 6.5 -29.667 19.5 -39s29.5 -17 49.5 -23s41.333 -12.833 64 -20.5s44 -17.667 64 -30s36.333 -29.333 49 -51s19 -50.167 19 -85.5s-8.5 -66.333 -25.5 -93
s-41 -47.5 -72 -62.5s-68.167 -22.5 -111.5 -22.5z" />
    <glyph glyph-name="dieresis" unicode="&#xa8;" horiz-adv-x="495" 
d="M138 548c-24 0 -43.833 8.16699 -59.5 24.5s-23.5 36.166 -23.5 59.499c0 24 7.83301 44 23.5 60s35.5 24 59.5 24s43.667 -8 59 -24s23 -36 23 -60c0 -23.333 -7.66699 -43.166 -23 -59.499s-35 -24.5 -59 -24.5zM358 548c-24 0 -43.833 8.16699 -59.5 24.5
s-23.5 36.166 -23.5 59.499c0 24 7.83301 44 23.5 60s35.5 24 59.5 24s43.667 -8 59 -24s23 -36 23 -60c0 -23.333 -7.66699 -43.166 -23 -59.499s-35 -24.5 -59 -24.5z" />
    <glyph glyph-name="copyright" unicode="&#xa9;" horiz-adv-x="811" 
d="M406 -10c-52.667 0 -100.999 9.33203 -144.999 27.999s-82.167 44.667 -114.5 78s-57.333 72.166 -75 116.499s-26.5 91.833 -26.5 142.5c0 51.333 8.66699 99 26 143s42 82.333 74 115s70 58.334 114 77.001s92.333 28 145 28c53.333 0 102.166 -9.33301 146.499 -28
s82.5 -44.334 114.5 -77.001s56.833 -71 74.5 -115s26.5 -92 26.5 -144c0 -50.667 -8.83301 -98.167 -26.5 -142.5s-42.5 -83.166 -74.5 -116.499s-70 -59.166 -114 -77.499s-92.333 -27.5 -145 -27.5zM404.001 43.999c60.667 0 113.832 13.667 159.499 41
s81.5 64.666 107.5 111.999s39 100.333 39 159c0 57.333 -12.833 109.333 -38.5 156s-61.5 83.667 -107.5 111s-99.333 41 -160 41c-60 0 -112.833 -13.5 -158.5 -40.5s-81.167 -63.833 -106.5 -110.5s-38 -99 -38 -157c0 -58.667 12.833 -111.667 38.5 -159
s61.334 -84.666 107.001 -111.999s98.167 -41 157.5 -41zM417.999 149.999c-40.667 0 -77.498 8.83203 -110.498 26.499s-59.167 41.834 -78.5 72.501s-29 65.667 -29 105s9.66699 74.333 29 105s45.666 55 78.999 73s70.666 27 111.999 27
c30.667 0 58.667 -5.16699 84 -15.5s48 -25.5 68 -45.5l-86 -87c-8 8.66699 -17.333 15.167 -28 19.5s-23.334 6.5 -38.001 6.5c-15.333 0 -29.333 -3.5 -42 -10.5s-22.5 -16.667 -29.5 -29s-10.5 -26.5 -10.5 -42.5c0 -16.667 3.66699 -31.167 11 -43.5s17.333 -22 30 -29
s26.334 -10.5 41.001 -10.5c15.333 0 28.5 2.5 39.5 7.5s20.5 12.167 28.5 21.5l87 -87c-22 -22 -46 -38.167 -72 -48.5s-54.333 -15.5 -85 -15.5z" />
    <glyph glyph-name="ordfeminine" unicode="&#xaa;" horiz-adv-x="361" 
d="M153 407c-26.667 0 -50.665 6.5 -71.998 19.5s-38 31 -50 54s-18 49.167 -18 78.5s6 55.5 18 78.5s28.667 41.167 50 54.5s45.333 20 72 20c28 0 52 -7.66699 72 -23s31.333 -34.333 34 -57v-145c-2.66699 -22.667 -13.834 -41.667 -33.501 -57s-43.834 -23 -72.501 -23z
M175.002 499c17.333 0 31.334 5.66699 42.001 17s16 26 16 44c0 17.333 -5.33301 31.666 -16 42.999s-24.334 17 -41.001 17c-17.333 0 -31.5 -5.66699 -42.5 -17s-16.5 -25.666 -16.5 -42.999c0 -18 5.5 -32.667 16.5 -44s24.833 -17 41.5 -17zM229.003 413v78l15 72
l-15 71v72h102v-293h-102z" />
    <glyph glyph-name="guillemotleft" unicode="&#xab;" horiz-adv-x="510" 
d="M126 72l-102 173l102 173h142l-107 -173l107 -173h-142zM345 72l-102 173l102 173h143l-107 -173l107 -173h-143z" />
    <glyph glyph-name="logicalnot" unicode="&#xac;" horiz-adv-x="563" 
d="M49 326v127h465v-127h-465zM384 429h130v-257h-130v257z" />
    <glyph glyph-name="uni00AD" unicode="&#xad;" horiz-adv-x="462" 
d="M54 188v134h354v-134h-354z" />
    <glyph glyph-name="registered" unicode="&#xae;" horiz-adv-x="546" 
d="M273 267c-43.333 0 -81.666 9.99902 -114.999 29.999s-59.5 47.167 -78.5 81.5s-28.5 72.5 -28.5 114.5s9.33301 79.833 28 113.5s44.667 60.334 78 80.001s71.666 29.5 114.999 29.5c44 0 82.833 -10 116.5 -30s60 -46.833 79 -80.5s28.5 -71.167 28.5 -112.5
c0 -42.667 -9.5 -81 -28.5 -115s-45.167 -61 -78.5 -81s-72 -30 -116 -30zM272 309.999c36 0 67.333 8 94 24s47.667 37.833 63 65.5s23 58.834 23 93.501c0 34 -7.66699 64.5 -23 91.5s-36.333 48.667 -63 65s-58 24.5 -94 24.5c-34.667 0 -65.334 -8.16699 -92.001 -24.5
s-47.5 -38 -62.5 -65s-22.5 -57.5 -22.5 -91.5c0 -34.667 7.5 -65.834 22.5 -93.501s35.833 -49.5 62.5 -65.5s57.334 -24 92.001 -24zM235 475.999l0.000976562 37.001h48c9.33301 0 16.833 2.5 22.5 7.5s8.5 11.5 8.5 19.5s-2.83301 14.667 -8.5 20s-13.167 8 -22.5 8h-48
v39h53c22 0 39.833 -6.33301 53.5 -19s20.5 -28.334 20.5 -47.001c0 -19.333 -6.83301 -35 -20.5 -47s-31.834 -18 -54.501 -18h-52zM198.001 384v223h49v-223h-49zM319.001 384l-70 96l45 12l83 -108h-58z" />
    <glyph glyph-name="macron" unicode="&#xaf;" horiz-adv-x="464" 
d="M40 685h384v-114h-384v114z" />
    <glyph glyph-name="degree" unicode="&#xb0;" horiz-adv-x="396" 
d="M198 387c-32.667 0 -61.668 7.16699 -87.001 21.5s-45.166 33.833 -59.499 58.5s-21.5 52.334 -21.5 83.001c0 32 7.16699 60.333 21.5 85s34.166 44.334 59.499 59.001s54.333 22 87 22s61.5 -7.33301 86.5 -22s44.833 -34.334 59.5 -59.001s22 -53 22 -85
c0 -30.667 -7.16699 -58.334 -21.5 -83.001s-34.166 -44.167 -59.499 -58.5s-54.333 -21.5 -87 -21.5zM197.999 495c16 0 29.167 5.33301 39.5 16s15.5 24 15.5 40s-5.16699 29.5 -15.5 40.5s-23.5 16.5 -39.5 16.5s-29.167 -5.5 -39.5 -16.5s-15.5 -24.5 -15.5 -40.5
s5.16699 -29.333 15.5 -40s23.5 -16 39.5 -16z" />
    <glyph glyph-name="plusminus" unicode="&#xb1;" horiz-adv-x="563" 
d="M49 346v127h465v-127h-465zM217 579h130v-337h-130v337zM49 81v127h465v-127h-465z" />
    <glyph glyph-name="uni00B2" unicode="&#xb2;" horiz-adv-x="340" 
d="M26 409l145.999 145.001c6 5.33301 10 10.5 12 15.5s3 9.83301 3 14.5c0 9.33301 -3 17 -9 23s-14.667 9 -26 9c-9.33301 0 -18.333 -3.33301 -27 -10s-18.667 -17.667 -30 -33l-74 67c15.333 24.667 35.333 42.834 60 54.501s52 17.5 82 17.5
c42.667 0 76.334 -10.833 101.001 -32.5s37 -51.834 37 -90.501c0 -19.333 -4.16699 -37.833 -12.5 -55.5s-21.5 -34.834 -39.5 -51.501l-86 -79zM25.999 347.001v62l96 32h186v-94h-282z" />
    <glyph glyph-name="uni00B3" unicode="&#xb3;" horiz-adv-x="334" 
d="M147 341c-26 0 -50.335 4.33301 -73.002 13s-42 20.667 -58 36l72 70c5.33301 -6.66699 13.5 -12.334 24.5 -17.001s21.833 -7 32.5 -7c12.667 0 23.334 3 32.001 9s13 14.333 13 25s-4.66699 19 -14 25s-22 9 -38 9c-7.33301 0 -14.833 -0.5 -22.5 -1.5
s-13.167 -2.16699 -16.5 -3.5l51 62c15.333 3.33301 27.5 5.83301 36.5 7.5s16.5 2.5 22.5 2.5c26.667 0 48.834 -9.16699 66.501 -27.5s26.5 -43.833 26.5 -76.5c0 -37.333 -14 -67.666 -42 -90.999s-65.667 -35 -113 -35zM98.998 499v61l71 85h122l-74 -84zM44.998 612v94
h247v-61l-83 -33h-164z" />
    <glyph glyph-name="acute" unicode="&#xb4;" horiz-adv-x="323" 
d="M90 541l-50 73l159 149l84 -118z" />
    <glyph glyph-name="uni00B5" unicode="&#xb5;" horiz-adv-x="593" 
d="M81 -195v681h153v-681h-153zM343 -10c-58 0 -101.333 18.333 -130 55s-43 83.667 -43 141l64 22c0 -30 7.66699 -51.333 23 -64s33 -19 53 -19s37.333 6.33301 52 19s22 34 22 64v278h153v-301c0 -38 -8.5 -71.667 -25.5 -101s-40 -52.333 -69 -69s-62.167 -25 -99.5 -25
z" />
    <glyph glyph-name="paragraph" unicode="&#xb6;" horiz-adv-x="718" 
d="M397 257h-120c-44.667 0 -85 9 -121 27s-64.5 43.833 -85.5 77.5s-31.5 73.5 -31.5 119.5c0 46.667 10.5 86.667 31.5 120s49.5 59.166 85.5 77.499s76.333 27.5 121 27.5h408v-122h-400c-19.333 0 -37 -4 -53 -12s-28.667 -19.667 -38 -35s-14 -34 -14 -56
c0 -21.333 4.66699 -39.666 14 -54.999s22 -27 38 -35s33.667 -12 53 -12h112v-122zM432 -100h-122v806h122v-806zM612 -100h-122v806h122v-806z" />
    <glyph glyph-name="periodcentered" unicode="&#xb7;" horiz-adv-x="182" 
d="M91 277c-26 0 -47.667 9 -65 27s-26 39.667 -26 65c0 26.667 8.66699 48.834 26 66.501s39 26.5 65 26.5c26.667 0 48.5 -8.83301 65.5 -26.5s25.5 -39.834 25.5 -66.501c0 -25.333 -8.5 -47 -25.5 -65s-38.833 -27 -65.5 -27z" />
    <glyph glyph-name="cedilla" unicode="&#xb8;" horiz-adv-x="304" 
d="M145 -215c-26.667 0 -49.501 3.16992 -68.501 9.50293s-37.833 15.166 -56.5 26.499l47 62c8.66699 -6.66699 18.167 -11.834 28.5 -15.501s21.833 -5.5 34.5 -5.5c14 0 24 2.16699 30 6.5s9 9.5 9 15.5s-3.66699 11.333 -11 16s-18.666 7 -33.999 7h-32l34 106h86
l-26 -73l-44 35c44 0.666992 78.167 -7.83301 102.5 -25.5s36.5 -40.834 36.5 -69.501c0 -26.667 -12.333 -49.167 -37 -67.5s-57.667 -27.5 -99 -27.5z" />
    <glyph glyph-name="uni00B9" unicode="&#xb9;" horiz-adv-x="266" 
d="M85 347v359h115v-359h-115zM20 612v94h175v-94h-175z" />
    <glyph glyph-name="ordmasculine" unicode="&#xba;" horiz-adv-x="349" 
d="M175 405c-30.667 0 -58.5 6.66699 -83.5 20s-44.667 31.666 -59 54.999s-21.5 49.666 -21.5 78.999s7.16699 55.5 21.5 78.5s33.833 41.167 58.5 54.5s52.667 20 84 20s59.166 -6.66699 83.499 -20s43.666 -31.5 57.999 -54.5s21.5 -49.167 21.5 -78.5
s-7.16699 -55.666 -21.5 -78.999s-33.666 -41.666 -57.999 -54.999s-52.166 -20 -83.499 -20zM175 498c17.333 0 31.333 5.66699 42 17s16 26 16 44s-5.5 32.5 -16.5 43.5s-25.167 16.5 -42.5 16.5s-31.333 -5.66699 -42 -17s-16 -26 -16 -44s5.5 -32.5 16.5 -43.5
s25.167 -16.5 42.5 -16.5z" />
    <glyph glyph-name="guillemotright" unicode="&#xbb;" horiz-adv-x="510" 
d="M242 72l107 173l-107 173h143l102 -173l-102 -173h-143zM23 72l107 173l-107 173h142l102 -173l-102 -173h-142z" />
    <glyph glyph-name="onequarter" unicode="&#xbc;" horiz-adv-x="695" 
d="M283 312l57 -55l-220 -270l-101 101zM396 396l-57 55l220 270l101 -101zM132 347v359h114v-359h-114zM66 612v94h175v-94h-175zM362 118l101 238h117l-103 -238h-115zM362 57v61l29 33h273v-94h-302zM533 -3v207h108v-207h-108z" />
    <glyph glyph-name="onehalf" unicode="&#xbd;" horiz-adv-x="692" 
d="M278 312l57 -55l-215 -270l-101 101zM396 396l-57 55l220 270l101 -101zM132 347v359h114v-359h-114zM66 612v94h175v-94h-175zM367 59l146.001 145.001c5.33301 5.33301 9.16602 10.5 11.499 15.5s3.5 9.83301 3.5 14.5c0 9.33301 -3.16699 17 -9.5 23
s-14.833 9 -25.5 9c-10 0 -19.167 -3.33301 -27.5 -10s-18.166 -17.667 -29.499 -33l-75 67c15.333 24.667 35.333 42.834 60 54.501s52 17.5 82 17.5c43.333 0 77.166 -10.833 101.499 -32.5s36.5 -51.834 36.5 -90.501c0 -19.333 -4 -37.833 -12 -55.5
s-21.333 -34.834 -40 -51.501l-85 -79zM367.001 -2.99902v62l96 32h185v-94h-281z" />
    <glyph glyph-name="threequarters" unicode="&#xbe;" horiz-adv-x="690" 
d="M263 320l57 -53l-200 -280l-101 101zM426 389l-57 52l195 280l101 -101zM174 341c-26 0 -50.335 4.33301 -73.002 13s-42 20.667 -58 36l72 70c5.33301 -6.66699 13.5 -12.334 24.5 -17.001s21.833 -7 32.5 -7c12.667 0 23.334 3 32.001 9s13 14.333 13 25
s-4.66699 19 -14 25s-22 9 -38 9c-7.33301 0 -14.833 -0.5 -22.5 -1.5s-13.167 -2.16699 -16.5 -3.5l51 62c15.333 3.33301 27.5 5.83301 36.5 7.5s16.5 2.5 22.5 2.5c26.667 0 48.834 -9.16699 66.501 -27.5s26.5 -43.833 26.5 -76.5c0 -37.333 -14 -67.666 -42 -90.999
s-65.667 -35 -113 -35zM125.998 499v61l71 85h122l-74 -84zM71.998 612v94h247v-61l-83 -33h-164zM341.998 118l102 238h117l-104 -238h-115zM341.998 57v61l30 33h273v-94h-303zM512.998 -3v207h108v-207h-108z" />
    <glyph glyph-name="questiondown" unicode="&#xbf;" horiz-adv-x="488" 
d="M252 -216c-42 0 -79.501 8.5 -112.501 25.5s-58.833 40.5 -77.5 70.5s-28 64.333 -28 103c0 36.667 8 68.834 24 96.501s38.167 50.667 66.5 69s60.5 31.166 96.5 38.499l-50 -50l9 93h120l8 -155h-43c-24.667 0 -44.667 -6.66699 -60 -20s-23 -31.333 -23 -54
c0 -14.667 3.33301 -27.5 10 -38.5s15.834 -19.5 27.501 -25.5s25.167 -9 40.5 -9c24.667 0 47.167 7.33301 67.5 22s36.833 34 49.5 58l98 -91c-20 -39.333 -49 -71.333 -87 -96s-83.333 -37 -136 -37zM239.999 312c-26 0 -47.5 9 -64.5 27s-25.5 39.667 -25.5 65
c0 26.667 8.5 48.667 25.5 66s38.5 26 64.5 26c26.667 0 48.5 -8.66699 65.5 -26s25.5 -39.333 25.5 -66c0 -25.333 -8.5 -47 -25.5 -65s-38.833 -27 -65.5 -27z" />
    <glyph glyph-name="Agrave" unicode="&#xc0;" horiz-adv-x="729" 
d="M15 0l280 706h142l277 -706h-166l-212 586h57l-215 -586h-163zM174 128v128h385v-128h-385zM418 761l-193 104l84 118l159 -149z" />
    <glyph glyph-name="Aacute" unicode="&#xc1;" horiz-adv-x="729" 
d="M15 0l280 706h142l277 -706h-166l-212 586h57l-215 -586h-163zM174 128v128h385v-128h-385zM293 761l-50 73l159 149l84 -118z" />
    <glyph glyph-name="Acircumflex" unicode="&#xc2;" horiz-adv-x="729" 
d="M15 0l280 706h142l277 -706h-166l-212 586h57l-215 -586h-163zM174 128v128h385v-128h-385zM224 757l-50 66l146 145h88l146 -145l-50 -66l-197 122h116z" />
    <glyph glyph-name="Atilde" unicode="&#xc3;" horiz-adv-x="729" 
d="M15 0l280 706h142l277 -706h-166l-212 586h57l-215 -586h-163zM174 128v128h385v-128h-385zM438 762c-21.333 0 -39.834 3.66895 -55.501 11.002s-30 14.666 -43 21.999s-27.167 11 -42.5 11s-28.333 -3.16699 -39 -9.5s-20.667 -15.833 -30 -28.5l-73 72
c19.333 28.667 39.833 50 61.5 64s46.834 21 75.501 21c21.333 0 39.833 -3.66699 55.5 -11s30.167 -14.833 43.5 -22.5s27.333 -11.5 42 -11.5c16 0 29.333 3.16699 40 9.5s20.334 16.166 29.001 29.499l73 -73c-19.333 -28 -39.833 -49 -61.5 -63s-46.834 -21 -75.501 -21
z" />
    <glyph glyph-name="Adieresis" unicode="&#xc4;" horiz-adv-x="729" 
d="M15 0l280 706h142l277 -706h-166l-212 586h57l-215 -586h-163zM174 128v128h385v-128h-385zM255 768c-24 0 -43.833 8.16699 -59.5 24.5s-23.5 36.166 -23.5 59.499c0 24 7.83301 44 23.5 60s35.5 24 59.5 24s43.667 -8 59 -24s23 -36 23 -60
c0 -23.333 -7.66699 -43.166 -23 -59.499s-35 -24.5 -59 -24.5zM475 768c-24 0 -43.833 8.16699 -59.5 24.5s-23.5 36.166 -23.5 59.499c0 24 7.83301 44 23.5 60s35.5 24 59.5 24s43.667 -8 59 -24s23 -36 23 -60c0 -23.333 -7.66699 -43.166 -23 -59.499
s-35 -24.5 -59 -24.5z" />
    <glyph glyph-name="Aring" unicode="&#xc5;" horiz-adv-x="729" 
d="M15 0l280 706h142l277 -706h-166l-212 586h57l-215 -586h-163zM174 128v128h385v-128h-385zM365 658c-25.333 0 -47.833 5.66699 -67.5 17s-35.334 26.666 -47.001 45.999s-17.5 41.333 -17.5 66s5.83301 46.667 17.5 66s27.334 34.833 47.001 46.5
s42.167 17.5 67.5 17.5c24.667 0 46.834 -5.83301 66.501 -17.5s35.167 -27.167 46.5 -46.5s17 -41.333 17 -66s-5.66699 -46.667 -17 -66s-26.833 -34.666 -46.5 -45.999s-41.834 -17 -66.501 -17zM365 742c12 0 22.167 4.33496 30.5 13.002s12.5 19.334 12.5 32.001
c0 13.333 -4.16699 24.166 -12.5 32.499s-18.5 12.5 -30.5 12.5c-13.333 0 -24 -4.33301 -32 -13s-12 -19.334 -12 -32.001s4 -23.334 12 -32.001s18.667 -13 32 -13z" />
    <glyph glyph-name="AE" unicode="&#xc6;" horiz-adv-x="994" 
d="M15 0l280 706h253v-135h-159l-211 -571h-163zM174 203v128h365v-128h-365zM596 0v136h359v-136h-359zM475 0v706h158v-706h-158zM596 295v131h323v-131h-323zM596 571v135h353v-135h-353z" />
    <glyph glyph-name="Ccedilla" unicode="&#xc7;" horiz-adv-x="689" 
d="M403 -11c-52.667 0 -101.5 9.16699 -146.5 27.5s-84.333 44.166 -118 77.499s-59.834 72.166 -78.501 116.499s-28 92.166 -28 143.499s9.33301 99.166 28 143.499s44.667 82.833 78 115.5s72.5 58.167 117.5 76.5s93.833 27.5 146.5 27.5c56 0 105.833 -9 149.5 -27
s81.834 -42.667 114.501 -74l-105 -106c-18.667 20 -41.167 35.667 -67.5 47s-56.833 17 -91.5 17c-30.667 0 -58.834 -5.16699 -84.501 -15.5s-47.667 -25.166 -66 -44.499s-32.666 -42.666 -42.999 -69.999s-15.5 -57.333 -15.5 -90
c0 -33.333 5.16699 -63.666 15.5 -90.999s24.666 -50.666 42.999 -69.999s40.333 -34.333 66 -45s53.834 -16 84.501 -16c36 0 67.333 5.66699 94 17s49.667 27 69 47l106 -106c-34 -31.333 -72.833 -56 -116.5 -74s-94.167 -27 -151.5 -27zM356 -215
c-26.667 0 -49.501 3.16992 -68.501 9.50293s-37.833 15.166 -56.5 26.499l47 62c8.66699 -6.66699 18.167 -11.834 28.5 -15.501s21.833 -5.5 34.5 -5.5c14 0 24 2.16699 30 6.5s9 9.5 9 15.5s-3.66699 11.333 -11 16s-18.666 7 -33.999 7h-32l34 106h86l-26 -73l-44 35
c44 0.666992 78.167 -7.83301 102.5 -25.5s36.5 -40.834 36.5 -69.501c0 -26.667 -12.333 -49.167 -37 -67.5s-57.667 -27.5 -99 -27.5z" />
    <glyph glyph-name="Egrave" unicode="&#xc8;" horiz-adv-x="615" 
d="M68 0v706h157v-706h-157zM188 0v136h387v-136h-387zM188 295v131h352v-131h-352zM188 571v135h382v-135h-382zM381 761l-193 104l84 118l159 -149z" />
    <glyph glyph-name="Eacute" unicode="&#xc9;" horiz-adv-x="615" 
d="M68 0v706h157v-706h-157zM188 0v136h387v-136h-387zM188 295v131h352v-131h-352zM188 571v135h382v-135h-382zM256 761l-50 73l159 149l84 -118z" />
    <glyph glyph-name="Ecircumflex" unicode="&#xca;" horiz-adv-x="615" 
d="M68 0v706h157v-706h-157zM188 0v136h387v-136h-387zM188 295v131h352v-131h-352zM188 571v135h382v-135h-382zM187 757l-50 66l146 145h88l146 -145l-50 -66l-197 122h116z" />
    <glyph glyph-name="Edieresis" unicode="&#xcb;" horiz-adv-x="615" 
d="M68 0v706h157v-706h-157zM188 0v136h387v-136h-387zM188 295v131h352v-131h-352zM188 571v135h382v-135h-382zM218 768c-24 0 -43.833 8.16699 -59.5 24.5s-23.5 36.166 -23.5 59.499c0 24 7.83301 44 23.5 60s35.5 24 59.5 24s43.667 -8 59 -24s23 -36 23 -60
c0 -23.333 -7.66699 -43.166 -23 -59.499s-35 -24.5 -59 -24.5zM438 768c-24 0 -43.833 8.16699 -59.5 24.5s-23.5 36.166 -23.5 59.499c0 24 7.83301 44 23.5 60s35.5 24 59.5 24s43.667 -8 59 -24s23 -36 23 -60c0 -23.333 -7.66699 -43.166 -23 -59.499
s-35 -24.5 -59 -24.5z" />
    <glyph glyph-name="Igrave" unicode="&#xcc;" horiz-adv-x="293" 
d="M68 0v706h157v-706h-157zM200 761l-193 104l84 118l159 -149z" />
    <glyph glyph-name="Iacute" unicode="&#xcd;" horiz-adv-x="293" 
d="M68 0v706h157v-706h-157zM75 761l-50 73l159 149l84 -118z" />
    <glyph glyph-name="Icircumflex" unicode="&#xce;" horiz-adv-x="293" 
d="M68 0v706h157v-706h-157zM6 757l-50 66l146 145h88l146 -145l-50 -66l-197 122h116z" />
    <glyph glyph-name="Idieresis" unicode="&#xcf;" horiz-adv-x="293" 
d="M68 0v706h157v-706h-157zM37 768c-24 0 -43.833 8.16699 -59.5 24.5s-23.5 36.166 -23.5 59.499c0 24 7.83301 44 23.5 60s35.5 24 59.5 24s43.667 -8 59 -24s23 -36 23 -60c0 -23.333 -7.66699 -43.166 -23 -59.499s-35 -24.5 -59 -24.5zM257 768
c-24 0 -43.833 8.16699 -59.5 24.5s-23.5 36.166 -23.5 59.499c0 24 7.83301 44 23.5 60s35.5 24 59.5 24s43.667 -8 59 -24s23 -36 23 -60c0 -23.333 -7.66699 -43.166 -23 -59.499s-35 -24.5 -59 -24.5z" />
    <glyph glyph-name="Eth" unicode="&#xd0;" horiz-adv-x="774" 
d="M21 415h384v-120h-384v120zM194 0l0.000976562 137.996h175c42.667 0 80 8.5 112 25.5s56.667 41.833 74 74.5s26 71.334 26 116.001s-8.83301 83 -26.5 115s-42.334 56.667 -74.001 74s-68.834 26 -111.501 26h-180v137h182c53.333 0 102.5 -8.5 147.5 -25.5
s84.333 -41.333 118 -73s59.667 -69 78 -112s27.5 -90.5 27.5 -142.5c0 -51.333 -9.16699 -98.666 -27.5 -141.999s-44.166 -80.666 -77.499 -111.999s-72.5 -55.666 -117.5 -72.999s-93.833 -26 -146.5 -26h-179zM88.001 -0.00390625v706h157v-706h-157z" />
    <glyph glyph-name="Ntilde" unicode="&#xd1;" horiz-adv-x="738" 
d="M68 0v706h110l47 -141v-565h-157zM555 0l-416 533l39 173l416 -533zM555 0l-42 141v565h157v-706h-115zM442 762c-21.333 0 -39.834 3.66895 -55.501 11.002s-30 14.666 -43 21.999s-27.167 11 -42.5 11s-28.333 -3.16699 -39 -9.5s-20.667 -15.833 -30 -28.5l-73 72
c19.333 28.667 39.833 50 61.5 64s46.834 21 75.501 21c21.333 0 39.833 -3.66699 55.5 -11s30.167 -14.833 43.5 -22.5s27.333 -11.5 42 -11.5c16 0 29.333 3.16699 40 9.5s20.334 16.166 29.001 29.499l73 -73c-19.333 -28 -39.833 -49 -61.5 -63s-46.834 -21 -75.501 -21
z" />
    <glyph glyph-name="Ograve" unicode="&#xd2;" horiz-adv-x="806" 
d="M405 -12c-53.333 0 -102.501 9.33398 -147.501 28.001s-84.5 44.667 -118.5 78s-60.333 72.166 -79 116.499s-28 92.166 -28 143.499c0 52 9.33301 100 28 144s44.667 82.5 78 115.5s72.5 58.667 117.5 77s94.167 27.5 147.5 27.5c52.667 0 101.5 -9.16699 146.5 -27.5
s84.333 -44 118 -77s59.834 -71.667 78.501 -116s28 -92.5 28 -144.5c0 -51.333 -9.33301 -99.166 -28 -143.499s-44.667 -83 -78 -116s-72.5 -58.833 -117.5 -77.5s-93.5 -28 -145.5 -28zM402.999 131.001c42 0 78.834 9.33203 110.501 27.999s56.167 44.834 73.5 78.501
s26 72.5 26 116.5c0 33.333 -5 63.5 -15 90.5s-24.333 50.333 -43 70s-40.834 34.667 -66.501 45s-54.167 15.5 -85.5 15.5c-42 0 -78.833 -9.16699 -110.5 -27.5s-56.167 -44 -73.5 -77s-26 -71.833 -26 -116.5c0 -33.333 5 -63.666 15 -90.999s24.167 -50.833 42.5 -70.5
s40.5 -34.834 66.5 -45.501s54.667 -16 86 -16zM456 761l-193 104l84 118l159 -149z" />
    <glyph glyph-name="Oacute" unicode="&#xd3;" horiz-adv-x="806" 
d="M405 -12c-53.333 0 -102.501 9.33398 -147.501 28.001s-84.5 44.667 -118.5 78s-60.333 72.166 -79 116.499s-28 92.166 -28 143.499c0 52 9.33301 100 28 144s44.667 82.5 78 115.5s72.5 58.667 117.5 77s94.167 27.5 147.5 27.5c52.667 0 101.5 -9.16699 146.5 -27.5
s84.333 -44 118 -77s59.834 -71.667 78.501 -116s28 -92.5 28 -144.5c0 -51.333 -9.33301 -99.166 -28 -143.499s-44.667 -83 -78 -116s-72.5 -58.833 -117.5 -77.5s-93.5 -28 -145.5 -28zM402.999 131.001c42 0 78.834 9.33203 110.501 27.999s56.167 44.834 73.5 78.501
s26 72.5 26 116.5c0 33.333 -5 63.5 -15 90.5s-24.333 50.333 -43 70s-40.834 34.667 -66.501 45s-54.167 15.5 -85.5 15.5c-42 0 -78.833 -9.16699 -110.5 -27.5s-56.167 -44 -73.5 -77s-26 -71.833 -26 -116.5c0 -33.333 5 -63.666 15 -90.999s24.167 -50.833 42.5 -70.5
s40.5 -34.834 66.5 -45.501s54.667 -16 86 -16zM331 761l-50 73l159 149l84 -118z" />
    <glyph glyph-name="Ocircumflex" unicode="&#xd4;" horiz-adv-x="806" 
d="M405 -12c-53.333 0 -102.501 9.33398 -147.501 28.001s-84.5 44.667 -118.5 78s-60.333 72.166 -79 116.499s-28 92.166 -28 143.499c0 52 9.33301 100 28 144s44.667 82.5 78 115.5s72.5 58.667 117.5 77s94.167 27.5 147.5 27.5c52.667 0 101.5 -9.16699 146.5 -27.5
s84.333 -44 118 -77s59.834 -71.667 78.501 -116s28 -92.5 28 -144.5c0 -51.333 -9.33301 -99.166 -28 -143.499s-44.667 -83 -78 -116s-72.5 -58.833 -117.5 -77.5s-93.5 -28 -145.5 -28zM402.999 131.001c42 0 78.834 9.33203 110.501 27.999s56.167 44.834 73.5 78.501
s26 72.5 26 116.5c0 33.333 -5 63.5 -15 90.5s-24.333 50.333 -43 70s-40.834 34.667 -66.501 45s-54.167 15.5 -85.5 15.5c-42 0 -78.833 -9.16699 -110.5 -27.5s-56.167 -44 -73.5 -77s-26 -71.833 -26 -116.5c0 -33.333 5 -63.666 15 -90.999s24.167 -50.833 42.5 -70.5
s40.5 -34.834 66.5 -45.501s54.667 -16 86 -16zM263 757l-50 66l146 145h88l146 -145l-50 -66l-197 122h116z" />
    <glyph glyph-name="Otilde" unicode="&#xd5;" horiz-adv-x="806" 
d="M405 -12c-53.333 0 -102.501 9.33398 -147.501 28.001s-84.5 44.667 -118.5 78s-60.333 72.166 -79 116.499s-28 92.166 -28 143.499c0 52 9.33301 100 28 144s44.667 82.5 78 115.5s72.5 58.667 117.5 77s94.167 27.5 147.5 27.5c52.667 0 101.5 -9.16699 146.5 -27.5
s84.333 -44 118 -77s59.834 -71.667 78.501 -116s28 -92.5 28 -144.5c0 -51.333 -9.33301 -99.166 -28 -143.499s-44.667 -83 -78 -116s-72.5 -58.833 -117.5 -77.5s-93.5 -28 -145.5 -28zM402.999 131.001c42 0 78.834 9.33203 110.501 27.999s56.167 44.834 73.5 78.501
s26 72.5 26 116.5c0 33.333 -5 63.5 -15 90.5s-24.333 50.333 -43 70s-40.834 34.667 -66.501 45s-54.167 15.5 -85.5 15.5c-42 0 -78.833 -9.16699 -110.5 -27.5s-56.167 -44 -73.5 -77s-26 -71.833 -26 -116.5c0 -33.333 5 -63.666 15 -90.999s24.167 -50.833 42.5 -70.5
s40.5 -34.834 66.5 -45.501s54.667 -16 86 -16zM476 762c-21.333 0 -39.834 3.66895 -55.501 11.002s-30 14.666 -43 21.999s-27.167 11 -42.5 11s-28.333 -3.16699 -39 -9.5s-20.667 -15.833 -30 -28.5l-73 72c19.333 28.667 39.833 50 61.5 64s46.834 21 75.501 21
c21.333 0 39.833 -3.66699 55.5 -11s30.167 -14.833 43.5 -22.5s27.333 -11.5 42 -11.5c16 0 29.333 3.16699 40 9.5s20.334 16.166 29.001 29.499l73 -73c-19.333 -28 -39.833 -49 -61.5 -63s-46.834 -21 -75.501 -21z" />
    <glyph glyph-name="Odieresis" unicode="&#xd6;" horiz-adv-x="806" 
d="M405 -12c-53.333 0 -102.501 9.33398 -147.501 28.001s-84.5 44.667 -118.5 78s-60.333 72.166 -79 116.499s-28 92.166 -28 143.499c0 52 9.33301 100 28 144s44.667 82.5 78 115.5s72.5 58.667 117.5 77s94.167 27.5 147.5 27.5c52.667 0 101.5 -9.16699 146.5 -27.5
s84.333 -44 118 -77s59.834 -71.667 78.501 -116s28 -92.5 28 -144.5c0 -51.333 -9.33301 -99.166 -28 -143.499s-44.667 -83 -78 -116s-72.5 -58.833 -117.5 -77.5s-93.5 -28 -145.5 -28zM402.999 131.001c42 0 78.834 9.33203 110.501 27.999s56.167 44.834 73.5 78.501
s26 72.5 26 116.5c0 33.333 -5 63.5 -15 90.5s-24.333 50.333 -43 70s-40.834 34.667 -66.501 45s-54.167 15.5 -85.5 15.5c-42 0 -78.833 -9.16699 -110.5 -27.5s-56.167 -44 -73.5 -77s-26 -71.833 -26 -116.5c0 -33.333 5 -63.666 15 -90.999s24.167 -50.833 42.5 -70.5
s40.5 -34.834 66.5 -45.501s54.667 -16 86 -16zM294 768c-24 0 -43.833 8.16699 -59.5 24.5s-23.5 36.166 -23.5 59.499c0 24 7.83301 44 23.5 60s35.5 24 59.5 24s43.667 -8 59 -24s23 -36 23 -60c0 -23.333 -7.66699 -43.166 -23 -59.499s-35 -24.5 -59 -24.5zM514 768
c-24 0 -43.833 8.16699 -59.5 24.5s-23.5 36.166 -23.5 59.499c0 24 7.83301 44 23.5 60s35.5 24 59.5 24s43.667 -8 59 -24s23 -36 23 -60c0 -23.333 -7.66699 -43.166 -23 -59.499s-35 -24.5 -59 -24.5z" />
    <glyph glyph-name="multiply" unicode="&#xd7;" horiz-adv-x="542" 
d="M129 101l-92 92l377 376l92 -91zM405 108l-361 361l92 92l361 -361z" />
    <glyph glyph-name="Oslash" unicode="&#xd8;" horiz-adv-x="806" 
d="M681 730l99 -99l-655 -654l-98 98zM405 -12c-53.333 0 -102.501 9.33398 -147.501 28.001s-84.5 44.667 -118.5 78s-60.333 72.166 -79 116.499s-28 92.166 -28 143.499c0 52 9.33301 100 28 144s44.667 82.5 78 115.5s72.5 58.667 117.5 77s94.167 27.5 147.5 27.5
c52.667 0 101.5 -9.16699 146.5 -27.5s84.333 -44 118 -77s59.834 -71.667 78.501 -116s28 -92.5 28 -144.5c0 -51.333 -9.33301 -99.166 -28 -143.499s-44.667 -83 -78 -116s-72.5 -58.833 -117.5 -77.5s-93.5 -28 -145.5 -28zM402.999 131.001
c42 0 78.834 9.33203 110.501 27.999s56.167 44.834 73.5 78.501s26 72.5 26 116.5c0 33.333 -5 63.5 -15 90.5s-24.333 50.333 -43 70s-40.834 34.667 -66.501 45s-54.167 15.5 -85.5 15.5c-42 0 -78.833 -9.16699 -110.5 -27.5s-56.167 -44 -73.5 -77
s-26 -71.833 -26 -116.5c0 -33.333 5 -63.666 15 -90.999s24.167 -50.833 42.5 -70.5s40.5 -34.834 66.5 -45.501s54.667 -16 86 -16z" />
    <glyph glyph-name="Ugrave" unicode="&#xd9;" horiz-adv-x="702" 
d="M352 -11c-58 0 -109.167 12.332 -153.5 36.999s-79 58.834 -104 102.501s-37.5 93.5 -37.5 149.5v428h158v-437c0 -28 6 -52.333 18 -73s28.5 -36.5 49.5 -47.5s44.167 -16.5 69.5 -16.5c26.667 0 50 5.5 70 16.5s35.833 26.667 47.5 47s17.5 44.5 17.5 72.5v438h158
v-429c0 -56 -12.333 -105.667 -37 -149s-59 -77.333 -103 -102s-95 -37 -153 -37zM404 760.999l-193 104l84 118l159 -149z" />
    <glyph glyph-name="Uacute" unicode="&#xda;" horiz-adv-x="702" 
d="M352 -11c-58 0 -109.167 12.332 -153.5 36.999s-79 58.834 -104 102.501s-37.5 93.5 -37.5 149.5v428h158v-437c0 -28 6 -52.333 18 -73s28.5 -36.5 49.5 -47.5s44.167 -16.5 69.5 -16.5c26.667 0 50 5.5 70 16.5s35.833 26.667 47.5 47s17.5 44.5 17.5 72.5v438h158
v-429c0 -56 -12.333 -105.667 -37 -149s-59 -77.333 -103 -102s-95 -37 -153 -37zM279 760.999l-50 73l159 149l84 -118z" />
    <glyph glyph-name="Ucircumflex" unicode="&#xdb;" horiz-adv-x="702" 
d="M352 -11c-58 0 -109.167 12.332 -153.5 36.999s-79 58.834 -104 102.501s-37.5 93.5 -37.5 149.5v428h158v-437c0 -28 6 -52.333 18 -73s28.5 -36.5 49.5 -47.5s44.167 -16.5 69.5 -16.5c26.667 0 50 5.5 70 16.5s35.833 26.667 47.5 47s17.5 44.5 17.5 72.5v438h158
v-429c0 -56 -12.333 -105.667 -37 -149s-59 -77.333 -103 -102s-95 -37 -153 -37zM211 756.999l-50 66l146 145h88l146 -145l-50 -66l-197 122h116z" />
    <glyph glyph-name="Udieresis" unicode="&#xdc;" horiz-adv-x="702" 
d="M352 -11c-58 0 -109.167 12.332 -153.5 36.999s-79 58.834 -104 102.501s-37.5 93.5 -37.5 149.5v428h158v-437c0 -28 6 -52.333 18 -73s28.5 -36.5 49.5 -47.5s44.167 -16.5 69.5 -16.5c26.667 0 50 5.5 70 16.5s35.833 26.667 47.5 47s17.5 44.5 17.5 72.5v438h158
v-429c0 -56 -12.333 -105.667 -37 -149s-59 -77.333 -103 -102s-95 -37 -153 -37zM242 767.999c-24 0 -43.833 8.16699 -59.5 24.5s-23.5 36.166 -23.5 59.499c0 24 7.83301 44 23.5 60s35.5 24 59.5 24s43.667 -8 59 -24s23 -36 23 -60
c0 -23.333 -7.66699 -43.166 -23 -59.499s-35 -24.5 -59 -24.5zM462 767.999c-24 0 -43.833 8.16699 -59.5 24.5s-23.5 36.166 -23.5 59.499c0 24 7.83301 44 23.5 60s35.5 24 59.5 24s43.667 -8 59 -24s23 -36 23 -60c0 -23.333 -7.66699 -43.166 -23 -59.499
s-35 -24.5 -59 -24.5z" />
    <glyph glyph-name="Yacute" unicode="&#xdd;" horiz-adv-x="687" 
d="M285 263l-272 443h182l209 -358h-117l209 358h178l-274 -443h-115zM266 0v335h157v-335h-157zM272 761l-50 73l159 149l84 -118z" />
    <glyph glyph-name="Thorn" unicode="&#xde;" horiz-adv-x="628" 
d="M188 135v122.001h152c19.333 0 37 4 53 12s28.667 19.667 38 35s14 34 14 56c0 21.333 -4.66699 39.666 -14 54.999s-22 27 -38 35s-33.667 12 -53 12h-152v122h175c44.667 0 85 -9 121 -27s64.5 -43.833 85.5 -77.5s31.5 -73.5 31.5 -119.5s-10.5 -85.833 -31.5 -119.5
s-49.5 -59.667 -85.5 -78s-76.333 -27.5 -121 -27.5h-175zM68 0.000976562v706h157v-706h-157z" />
    <glyph glyph-name="germandbls" unicode="&#xdf;" horiz-adv-x="592" 
d="M337 -9c-25.333 0 -46.665 2.82812 -63.998 8.49512s-33 13.834 -47 24.501l51 114c6 -4 12.667 -7.5 20 -10.5s17 -4.5 29 -4.5c16.667 0 31.667 3.83301 45 11.5s24 18.667 32 33s12 30.833 12 49.5s-4.5 35.167 -13.5 49.5s-21.333 25.833 -37 34.5s-33.5 13 -53.5 13
h-44v124h26c15.333 0 28.833 3.33301 40.5 10s20.667 16.334 27 29.001s9.5 27.334 9.5 44.001c0 16 -3.16699 30 -9.5 42s-15.5 21.5 -27.5 28.5s-26.333 10.5 -43 10.5c-25.333 0 -46 -7.66699 -62 -23s-24 -36.666 -24 -63.999v-515h-150v509c0 42 9.66699 80 29 114
s46.833 61.167 82.5 81.5s78.167 30.5 127.5 30.5c47.333 0 87.666 -9.66699 120.999 -29s59 -44.166 77 -74.499s27 -63.166 27 -98.499c0 -36.667 -8.66699 -68.667 -26 -96s-42.333 -48.333 -75 -63l-6 39c34.667 -8 64 -21.5 88 -40.5s42 -42.167 54 -69.5
s18 -58.333 18 -93c0 -28.667 -5.5 -56.167 -16.5 -82.5s-26.833 -49.833 -47.5 -70.5s-45.334 -36.834 -74.001 -48.501s-60.667 -17.5 -96 -17.5z" />
    <glyph glyph-name="agrave" unicode="&#xe0;" 
d="M257 -10c-44.667 0 -84.499 11 -119.499 33s-62.667 52 -83 90s-30.5 81.333 -30.5 130s10.167 92 30.5 130s48 68 83 90s74.833 33 119.5 33c32.667 0 62.167 -6.33301 88.5 -19s47.833 -30.167 64.5 -52.5s26 -47.833 28 -76.5v-210
c-2 -28.667 -11.167 -54.167 -27.5 -76.5s-37.833 -39.833 -64.5 -52.5s-56.334 -19 -89.001 -19zM288.001 128c32.667 0 58.9971 10.833 78.9971 32.5s30 49.167 30 82.5c0 22.667 -4.5 42.667 -13.5 60s-21.667 30.833 -38 40.5s-35.166 14.5 -56.499 14.5
s-40.166 -4.83301 -56.499 -14.5s-29.333 -23.167 -39 -40.5s-14.5 -37.333 -14.5 -60c0 -22 4.66699 -41.667 14 -59s22.333 -31 39 -41s35.334 -15 56.001 -15zM390.998 0v131l23 118l-23 118v119h150v-486h-150zM340.998 541l-193 104l84 118l159 -149z" />
    <glyph glyph-name="aacute" unicode="&#xe1;" 
d="M257 -10c-44.667 0 -84.499 11 -119.499 33s-62.667 52 -83 90s-30.5 81.333 -30.5 130s10.167 92 30.5 130s48 68 83 90s74.833 33 119.5 33c32.667 0 62.167 -6.33301 88.5 -19s47.833 -30.167 64.5 -52.5s26 -47.833 28 -76.5v-210
c-2 -28.667 -11.167 -54.167 -27.5 -76.5s-37.833 -39.833 -64.5 -52.5s-56.334 -19 -89.001 -19zM288.001 128c32.667 0 58.9971 10.833 78.9971 32.5s30 49.167 30 82.5c0 22.667 -4.5 42.667 -13.5 60s-21.667 30.833 -38 40.5s-35.166 14.5 -56.499 14.5
s-40.166 -4.83301 -56.499 -14.5s-29.333 -23.167 -39 -40.5s-14.5 -37.333 -14.5 -60c0 -22 4.66699 -41.667 14 -59s22.333 -31 39 -41s35.334 -15 56.001 -15zM390.998 0v131l23 118l-23 118v119h150v-486h-150zM215.998 541l-50 73l159 149l84 -118z" />
    <glyph glyph-name="acircumflex" unicode="&#xe2;" 
d="M257 -10c-44.667 0 -84.499 11 -119.499 33s-62.667 52 -83 90s-30.5 81.333 -30.5 130s10.167 92 30.5 130s48 68 83 90s74.833 33 119.5 33c32.667 0 62.167 -6.33301 88.5 -19s47.833 -30.167 64.5 -52.5s26 -47.833 28 -76.5v-210
c-2 -28.667 -11.167 -54.167 -27.5 -76.5s-37.833 -39.833 -64.5 -52.5s-56.334 -19 -89.001 -19zM288.001 128c32.667 0 58.9971 10.833 78.9971 32.5s30 49.167 30 82.5c0 22.667 -4.5 42.667 -13.5 60s-21.667 30.833 -38 40.5s-35.166 14.5 -56.499 14.5
s-40.166 -4.83301 -56.499 -14.5s-29.333 -23.167 -39 -40.5s-14.5 -37.333 -14.5 -60c0 -22 4.66699 -41.667 14 -59s22.333 -31 39 -41s35.334 -15 56.001 -15zM390.998 0v131l23 118l-23 118v119h150v-486h-150zM146.998 537l-50 66l146 145h88l146 -145l-50 -66
l-197 122h116z" />
    <glyph glyph-name="atilde" unicode="&#xe3;" 
d="M257 -10c-44.667 0 -84.499 11 -119.499 33s-62.667 52 -83 90s-30.5 81.333 -30.5 130s10.167 92 30.5 130s48 68 83 90s74.833 33 119.5 33c32.667 0 62.167 -6.33301 88.5 -19s47.833 -30.167 64.5 -52.5s26 -47.833 28 -76.5v-210
c-2 -28.667 -11.167 -54.167 -27.5 -76.5s-37.833 -39.833 -64.5 -52.5s-56.334 -19 -89.001 -19zM288.001 128c32.667 0 58.9971 10.833 78.9971 32.5s30 49.167 30 82.5c0 22.667 -4.5 42.667 -13.5 60s-21.667 30.833 -38 40.5s-35.166 14.5 -56.499 14.5
s-40.166 -4.83301 -56.499 -14.5s-29.333 -23.167 -39 -40.5s-14.5 -37.333 -14.5 -60c0 -22 4.66699 -41.667 14 -59s22.333 -31 39 -41s35.334 -15 56.001 -15zM390.998 0v131l23 118l-23 118v119h150v-486h-150zM360.998 542c-21.333 0 -39.834 3.66895 -55.501 11.002
s-30 14.666 -43 21.999s-27.167 11 -42.5 11s-28.333 -3.16699 -39 -9.5s-20.667 -15.833 -30 -28.5l-73 72c19.333 28.667 39.833 50 61.5 64s46.834 21 75.501 21c21.333 0 39.833 -3.66699 55.5 -11s30.167 -14.833 43.5 -22.5s27.333 -11.5 42 -11.5
c16 0 29.333 3.16699 40 9.5s20.334 16.166 29.001 29.499l73 -73c-19.333 -28 -39.833 -49 -61.5 -63s-46.834 -21 -75.501 -21z" />
    <glyph glyph-name="adieresis" unicode="&#xe4;" 
d="M257 -10c-44.667 0 -84.499 11 -119.499 33s-62.667 52 -83 90s-30.5 81.333 -30.5 130s10.167 92 30.5 130s48 68 83 90s74.833 33 119.5 33c32.667 0 62.167 -6.33301 88.5 -19s47.833 -30.167 64.5 -52.5s26 -47.833 28 -76.5v-210
c-2 -28.667 -11.167 -54.167 -27.5 -76.5s-37.833 -39.833 -64.5 -52.5s-56.334 -19 -89.001 -19zM288.001 128c32.667 0 58.9971 10.833 78.9971 32.5s30 49.167 30 82.5c0 22.667 -4.5 42.667 -13.5 60s-21.667 30.833 -38 40.5s-35.166 14.5 -56.499 14.5
s-40.166 -4.83301 -56.499 -14.5s-29.333 -23.167 -39 -40.5s-14.5 -37.333 -14.5 -60c0 -22 4.66699 -41.667 14 -59s22.333 -31 39 -41s35.334 -15 56.001 -15zM390.998 0v131l23 118l-23 118v119h150v-486h-150zM177.998 548c-24 0 -43.833 8.16699 -59.5 24.5
s-23.5 36.166 -23.5 59.499c0 24 7.83301 44 23.5 60s35.5 24 59.5 24s43.667 -8 59 -24s23 -36 23 -60c0 -23.333 -7.66699 -43.166 -23 -59.499s-35 -24.5 -59 -24.5zM397.998 548c-24 0 -43.833 8.16699 -59.5 24.5s-23.5 36.166 -23.5 59.499c0 24 7.83301 44 23.5 60
s35.5 24 59.5 24s43.667 -8 59 -24s23 -36 23 -60c0 -23.333 -7.66699 -43.166 -23 -59.499s-35 -24.5 -59 -24.5z" />
    <glyph glyph-name="aring" unicode="&#xe5;" 
d="M257 -10c-44.667 0 -84.499 11 -119.499 33s-62.667 52 -83 90s-30.5 81.333 -30.5 130s10.167 92 30.5 130s48 68 83 90s74.833 33 119.5 33c32.667 0 62.167 -6.33301 88.5 -19s47.833 -30.167 64.5 -52.5s26 -47.833 28 -76.5v-210
c-2 -28.667 -11.167 -54.167 -27.5 -76.5s-37.833 -39.833 -64.5 -52.5s-56.334 -19 -89.001 -19zM288.001 128c32.667 0 58.9971 10.833 78.9971 32.5s30 49.167 30 82.5c0 22.667 -4.5 42.667 -13.5 60s-21.667 30.833 -38 40.5s-35.166 14.5 -56.499 14.5
s-40.166 -4.83301 -56.499 -14.5s-29.333 -23.167 -39 -40.5s-14.5 -37.333 -14.5 -60c0 -22 4.66699 -41.667 14 -59s22.333 -31 39 -41s35.334 -15 56.001 -15zM390.998 0v131l23 118l-23 118v119h150v-486h-150zM287.998 533c-25.333 0 -47.833 5.66699 -67.5 17
s-35.334 26.666 -47.001 45.999s-17.5 41.333 -17.5 66s5.83301 46.667 17.5 66s27.334 34.833 47.001 46.5s42.167 17.5 67.5 17.5c24.667 0 46.834 -5.83301 66.501 -17.5s35.167 -27.167 46.5 -46.5s17 -41.333 17 -66s-5.66699 -46.667 -17 -66
s-26.833 -34.666 -46.5 -45.999s-41.834 -17 -66.501 -17zM287.998 617c12 0 22.167 4.33496 30.5 13.002s12.5 19.334 12.5 32.001c0 13.333 -4.16699 24.166 -12.5 32.499s-18.5 12.5 -30.5 12.5c-13.333 0 -24 -4.33301 -32 -13s-12 -19.334 -12 -32.001
s4 -23.334 12 -32.001s18.667 -13 32 -13z" />
    <glyph glyph-name="ae" unicode="&#xe6;" horiz-adv-x="935" 
d="M257 -10c-44.667 0 -84.499 11 -119.499 33s-62.667 52 -83 90s-30.5 81.333 -30.5 130s10.167 92 30.5 130s48 68 83 90s74.833 33 119.5 33c32.667 0 62.167 -6.33301 88.5 -19s47.833 -30.167 64.5 -52.5s26 -47.833 28 -76.5v-210
c-2 -28.667 -11.167 -54.167 -27.5 -76.5s-37.833 -39.833 -64.5 -52.5s-56.334 -19 -89.001 -19zM288.001 128c32.667 0 58.9971 10.833 78.9971 32.5s30 49.167 30 82.5c0 22.667 -4.5 42.667 -13.5 60s-21.667 30.833 -38 40.5s-35.166 14.5 -56.499 14.5
s-40.166 -4.83301 -56.499 -14.5s-29.333 -23.167 -39 -40.5s-14.5 -37.333 -14.5 -60c0 -22 4.66699 -41.667 14 -59s22.333 -31 39 -41s35.334 -15 56.001 -15zM390.998 0v131l23 118l-23 118v119h150v-486h-150zM690.998 -11c-48 0 -89.8311 10.833 -125.498 32.5
s-63.167 51.834 -82.5 90.501s-29 82.334 -29 131.001c0 36.667 5.66699 70.334 17 101.001s27 57.5 47 80.5s43.667 40.833 71 53.5s57 19 89 19c46.667 0 87.834 -10.333 123.501 -31s63.5 -49.334 83.5 -86.001s30 -78.667 30 -126c0 -8.66699 -0.5 -17.834 -1.5 -27.501
s-2.83301 -20.834 -5.5 -33.501l-419 -1v105l354 1l-66 -44c-0.666992 28 -5 51.167 -13 69.5s-19.833 32.333 -35.5 42s-34.834 14.5 -57.501 14.5c-24 0 -44.833 -5.5 -62.5 -16.5s-31.334 -26.5 -41.001 -46.5s-14.5 -44.333 -14.5 -73s5.16699 -53.167 15.5 -73.5
s25 -36 44 -47s41.5 -16.5 67.5 -16.5c24 0 45.667 4.16699 65 12.5s36.333 20.833 51 37.5l84 -84c-24 -28 -51.833 -49 -83.5 -63s-66.834 -21 -105.501 -21z" />
    <glyph glyph-name="ccedilla" unicode="&#xe7;" horiz-adv-x="496" 
d="M289 -11c-50 0 -95.335 11.001 -136.002 33.001s-72.667 52.333 -96 91s-35 82 -35 130c0 48.667 11.833 92.167 35.5 130.5s55.834 68.5 96.501 90.5s86.334 33 137.001 33c38 0 72.833 -6.5 104.5 -19.5s59.834 -32.5 84.501 -58.5l-98 -98
c-11.333 12.667 -24.5 22 -39.5 28s-32.167 9 -51.5 9c-22 0 -41.5 -4.83301 -58.5 -14.5s-30.333 -23 -40 -40s-14.5 -36.833 -14.5 -59.5s4.83301 -42.667 14.5 -60s23.167 -31 40.5 -41s36.666 -15 57.999 -15c20 0 37.833 3.5 53.5 10.5s29.167 16.833 40.5 29.5l97 -98
c-25.333 -26.667 -54 -46.834 -86 -60.501s-67.667 -20.5 -107 -20.5zM252.998 -214.999c-26.667 0 -49.501 3.16992 -68.501 9.50293s-37.833 15.166 -56.5 26.499l47 62c8.66699 -6.66699 18.167 -11.834 28.5 -15.501s21.833 -5.5 34.5 -5.5c14 0 24 2.16699 30 6.5
s9 9.5 9 15.5s-3.66699 11.333 -11 16s-18.666 7 -33.999 7h-32l34 106h86l-26 -73l-44 35c44 0.666992 78.167 -7.83301 102.5 -25.5s36.5 -40.834 36.5 -69.501c0 -26.667 -12.333 -49.167 -37 -67.5s-57.667 -27.5 -99 -27.5z" />
    <glyph glyph-name="egrave" unicode="&#xe8;" horiz-adv-x="548" 
d="M294 -11c-52.667 0 -99.4971 10.834 -140.497 32.501s-73.167 51.834 -96.5 90.501s-35 82.334 -35 131.001s11.5 92.167 34.5 130.5s54.167 68.5 93.5 90.5s83.666 33 132.999 33c48 0 90.333 -10.333 127 -31s65.5 -49.334 86.5 -86.001s31.5 -78.667 31.5 -126
c0 -8.66699 -0.5 -17.834 -1.5 -27.501s-2.83301 -20.834 -5.5 -33.501l-419 -1v105l354 1l-66 -44c-0.666992 28 -5 51.167 -13 69.5s-19.833 32.333 -35.5 42s-34.834 14.5 -57.501 14.5c-24 0 -44.833 -5.5 -62.5 -16.5s-31.334 -26.5 -41.001 -46.5
s-14.5 -44.333 -14.5 -73s5.16699 -53.167 15.5 -73.5s25 -36 44 -47s41.5 -16.5 67.5 -16.5c24 0 45.667 4.16699 65 12.5s36.333 20.833 51 37.5l84 -84c-24 -28 -53 -49 -87 -63s-71.333 -21 -112 -21zM336.003 541.001l-193 104l84 118l159 -149z" />
    <glyph glyph-name="eacute" unicode="&#xe9;" horiz-adv-x="548" 
d="M294 -11c-52.667 0 -99.4971 10.834 -140.497 32.501s-73.167 51.834 -96.5 90.501s-35 82.334 -35 131.001s11.5 92.167 34.5 130.5s54.167 68.5 93.5 90.5s83.666 33 132.999 33c48 0 90.333 -10.333 127 -31s65.5 -49.334 86.5 -86.001s31.5 -78.667 31.5 -126
c0 -8.66699 -0.5 -17.834 -1.5 -27.501s-2.83301 -20.834 -5.5 -33.501l-419 -1v105l354 1l-66 -44c-0.666992 28 -5 51.167 -13 69.5s-19.833 32.333 -35.5 42s-34.834 14.5 -57.501 14.5c-24 0 -44.833 -5.5 -62.5 -16.5s-31.334 -26.5 -41.001 -46.5
s-14.5 -44.333 -14.5 -73s5.16699 -53.167 15.5 -73.5s25 -36 44 -47s41.5 -16.5 67.5 -16.5c24 0 45.667 4.16699 65 12.5s36.333 20.833 51 37.5l84 -84c-24 -28 -53 -49 -87 -63s-71.333 -21 -112 -21zM211.003 541.001l-50 73l159 149l84 -118z" />
    <glyph glyph-name="ecircumflex" unicode="&#xea;" horiz-adv-x="548" 
d="M294 -11c-52.667 0 -99.4971 10.834 -140.497 32.501s-73.167 51.834 -96.5 90.501s-35 82.334 -35 131.001s11.5 92.167 34.5 130.5s54.167 68.5 93.5 90.5s83.666 33 132.999 33c48 0 90.333 -10.333 127 -31s65.5 -49.334 86.5 -86.001s31.5 -78.667 31.5 -126
c0 -8.66699 -0.5 -17.834 -1.5 -27.501s-2.83301 -20.834 -5.5 -33.501l-419 -1v105l354 1l-66 -44c-0.666992 28 -5 51.167 -13 69.5s-19.833 32.333 -35.5 42s-34.834 14.5 -57.501 14.5c-24 0 -44.833 -5.5 -62.5 -16.5s-31.334 -26.5 -41.001 -46.5
s-14.5 -44.333 -14.5 -73s5.16699 -53.167 15.5 -73.5s25 -36 44 -47s41.5 -16.5 67.5 -16.5c24 0 45.667 4.16699 65 12.5s36.333 20.833 51 37.5l84 -84c-24 -28 -53 -49 -87 -63s-71.333 -21 -112 -21zM143.003 537.001l-50 66l146 145h88l146 -145l-50 -66l-197 122h116
z" />
    <glyph glyph-name="edieresis" unicode="&#xeb;" horiz-adv-x="548" 
d="M294 -11c-52.667 0 -99.4971 10.834 -140.497 32.501s-73.167 51.834 -96.5 90.501s-35 82.334 -35 131.001s11.5 92.167 34.5 130.5s54.167 68.5 93.5 90.5s83.666 33 132.999 33c48 0 90.333 -10.333 127 -31s65.5 -49.334 86.5 -86.001s31.5 -78.667 31.5 -126
c0 -8.66699 -0.5 -17.834 -1.5 -27.501s-2.83301 -20.834 -5.5 -33.501l-419 -1v105l354 1l-66 -44c-0.666992 28 -5 51.167 -13 69.5s-19.833 32.333 -35.5 42s-34.834 14.5 -57.501 14.5c-24 0 -44.833 -5.5 -62.5 -16.5s-31.334 -26.5 -41.001 -46.5
s-14.5 -44.333 -14.5 -73s5.16699 -53.167 15.5 -73.5s25 -36 44 -47s41.5 -16.5 67.5 -16.5c24 0 45.667 4.16699 65 12.5s36.333 20.833 51 37.5l84 -84c-24 -28 -53 -49 -87 -63s-71.333 -21 -112 -21zM174.003 548.001c-24 0 -43.833 8.16699 -59.5 24.5
s-23.5 36.166 -23.5 59.499c0 24 7.83301 44 23.5 60s35.5 24 59.5 24s43.667 -8 59 -24s23 -36 23 -60c0 -23.333 -7.66699 -43.166 -23 -59.499s-35 -24.5 -59 -24.5zM394.003 548.001c-24 0 -43.833 8.16699 -59.5 24.5s-23.5 36.166 -23.5 59.499
c0 24 7.83301 44 23.5 60s35.5 24 59.5 24s43.667 -8 59 -24s23 -36 23 -60c0 -23.333 -7.66699 -43.166 -23 -59.499s-35 -24.5 -59 -24.5z" />
    <glyph glyph-name="igrave" unicode="&#xec;" horiz-adv-x="261" 
d="M54 0v486h153v-486h-153zM184 541l-193 104l84 118l159 -149z" />
    <glyph glyph-name="iacute" unicode="&#xed;" horiz-adv-x="261" 
d="M54 0v486h153v-486h-153zM59 541l-50 73l159 149l84 -118z" />
    <glyph glyph-name="icircumflex" unicode="&#xee;" horiz-adv-x="261" 
d="M54 0v486h153v-486h-153zM-10 537l-50 66l146 145h88l146 -145l-50 -66l-197 122h116z" />
    <glyph glyph-name="idieresis" unicode="&#xef;" horiz-adv-x="261" 
d="M54 0v486h153v-486h-153zM21 548c-24 0 -43.833 8.16699 -59.5 24.5s-23.5 36.166 -23.5 59.499c0 24 7.83301 44 23.5 60s35.5 24 59.5 24s43.667 -8 59 -24s23 -36 23 -60c0 -23.333 -7.66699 -43.166 -23 -59.499s-35 -24.5 -59 -24.5zM241 548
c-24 0 -43.833 8.16699 -59.5 24.5s-23.5 36.166 -23.5 59.499c0 24 7.83301 44 23.5 60s35.5 24 59.5 24s43.667 -8 59 -24s23 -36 23 -60c0 -23.333 -7.66699 -43.166 -23 -59.499s-35 -24.5 -59 -24.5z" />
    <glyph glyph-name="eth" unicode="&#xf0;" horiz-adv-x="573" 
d="M287 -11c-48.667 0 -92.8301 11 -132.497 33s-71.167 51.833 -94.5 89.5s-35 79.5 -35 125.5c0 45.333 10.667 85.5 32 120.5s49.666 62.667 84.999 83s74.666 30.5 117.999 30.5c25.333 0 45.833 -3.16699 61.5 -9.5s28.667 -15.333 39 -27s20.166 -25.5 29.499 -41.5
l-59 5l-221 308h177l199 -289c42 -61.333 63 -122 63 -182c0 -46 -11.5 -87.5 -34.5 -124.5s-54.167 -66.5 -93.5 -88.5s-84 -33 -134 -33zM287.004 126c21.333 0 40.166 5 56.499 15s29.166 23.667 38.499 41s14 36.666 14 57.999c0 22 -4.66699 41.5 -14 58.5
s-22.166 30.333 -38.499 40s-35.166 14.5 -56.499 14.5c-20.667 0 -39.334 -4.83301 -56.001 -14.5s-29.667 -23 -39 -40s-14 -36.5 -14 -58.5c0 -21.333 4.66699 -40.666 14 -57.999s22.333 -31 39 -41s35.334 -15 56.001 -15zM98.0039 480l-34 86l380 140l33 -86z" />
    <glyph glyph-name="ntilde" unicode="&#xf1;" horiz-adv-x="572" 
d="M375 0v276.999c0 25.333 -7.83301 45.833 -23.5 61.5s-35.5 23.5 -59.5 23.5c-16.667 0 -31.334 -3.5 -44.001 -10.5s-22.667 -17 -30 -30s-11 -27.833 -11 -44.5l-59 29c0 38 8.33301 71.333 25 100s39.834 50.834 69.501 66.501s63.167 23.5 100.5 23.5
c36 0 67.833 -8.5 95.5 -25.5s49.5 -39.5 65.5 -67.5s24 -58.667 24 -92v-311h-153zM54 -0.000976562v486h153v-486h-153zM360 541.999c-21.333 0 -39.834 3.66895 -55.501 11.002s-30 14.666 -43 21.999s-27.167 11 -42.5 11s-28.333 -3.16699 -39 -9.5
s-20.667 -15.833 -30 -28.5l-73 72c19.333 28.667 39.833 50 61.5 64s46.834 21 75.501 21c21.333 0 39.833 -3.66699 55.5 -11s30.167 -14.833 43.5 -22.5s27.333 -11.5 42 -11.5c16 0 29.333 3.16699 40 9.5s20.334 16.166 29.001 29.499l73 -73
c-19.333 -28 -39.833 -49 -61.5 -63s-46.834 -21 -75.501 -21z" />
    <glyph glyph-name="ograve" unicode="&#xf2;" horiz-adv-x="576" 
d="M288 -11c-50 0 -95.168 11.167 -135.501 33.5s-72.166 52.833 -95.499 91.5s-35 82 -35 130s11.667 91 35 129s55 68.167 95 90.5s85.333 33.5 136 33.5s96 -11 136 -33s71.667 -52.167 95 -90.5s35 -81.5 35 -129.5s-11.667 -91.333 -35 -130s-55 -69.167 -95 -91.5
s-85.333 -33.5 -136 -33.5zM287.999 128c22 0 41.332 4.83203 57.999 14.499s29.5 23.334 38.5 41.001s13.5 37.834 13.5 60.501s-4.66699 42.5 -14 59.5s-22.166 30.333 -38.499 40s-35.5 14.5 -57.5 14.5c-21.333 0 -40.333 -4.83301 -57 -14.5s-29.667 -23.167 -39 -40.5
s-14 -37.333 -14 -60c0 -22 4.66699 -41.833 14 -59.5s22.333 -31.334 39 -41.001s35.667 -14.5 57 -14.5zM340.998 540.999l-193 104l84 118l159 -149z" />
    <glyph glyph-name="oacute" unicode="&#xf3;" horiz-adv-x="576" 
d="M288 -11c-50 0 -95.168 11.167 -135.501 33.5s-72.166 52.833 -95.499 91.5s-35 82 -35 130s11.667 91 35 129s55 68.167 95 90.5s85.333 33.5 136 33.5s96 -11 136 -33s71.667 -52.167 95 -90.5s35 -81.5 35 -129.5s-11.667 -91.333 -35 -130s-55 -69.167 -95 -91.5
s-85.333 -33.5 -136 -33.5zM287.999 128c22 0 41.332 4.83203 57.999 14.499s29.5 23.334 38.5 41.001s13.5 37.834 13.5 60.501s-4.66699 42.5 -14 59.5s-22.166 30.333 -38.499 40s-35.5 14.5 -57.5 14.5c-21.333 0 -40.333 -4.83301 -57 -14.5s-29.667 -23.167 -39 -40.5
s-14 -37.333 -14 -60c0 -22 4.66699 -41.833 14 -59.5s22.333 -31.334 39 -41.001s35.667 -14.5 57 -14.5zM215.998 540.999l-50 73l159 149l84 -118z" />
    <glyph glyph-name="ocircumflex" unicode="&#xf4;" horiz-adv-x="576" 
d="M288 -11c-50 0 -95.168 11.167 -135.501 33.5s-72.166 52.833 -95.499 91.5s-35 82 -35 130s11.667 91 35 129s55 68.167 95 90.5s85.333 33.5 136 33.5s96 -11 136 -33s71.667 -52.167 95 -90.5s35 -81.5 35 -129.5s-11.667 -91.333 -35 -130s-55 -69.167 -95 -91.5
s-85.333 -33.5 -136 -33.5zM287.999 128c22 0 41.332 4.83203 57.999 14.499s29.5 23.334 38.5 41.001s13.5 37.834 13.5 60.501s-4.66699 42.5 -14 59.5s-22.166 30.333 -38.499 40s-35.5 14.5 -57.5 14.5c-21.333 0 -40.333 -4.83301 -57 -14.5s-29.667 -23.167 -39 -40.5
s-14 -37.333 -14 -60c0 -22 4.66699 -41.833 14 -59.5s22.333 -31.334 39 -41.001s35.667 -14.5 57 -14.5zM147.998 536.999l-50 66l146 145h88l146 -145l-50 -66l-197 122h116z" />
    <glyph glyph-name="otilde" unicode="&#xf5;" horiz-adv-x="576" 
d="M288 -11c-50 0 -95.168 11.167 -135.501 33.5s-72.166 52.833 -95.499 91.5s-35 82 -35 130s11.667 91 35 129s55 68.167 95 90.5s85.333 33.5 136 33.5s96 -11 136 -33s71.667 -52.167 95 -90.5s35 -81.5 35 -129.5s-11.667 -91.333 -35 -130s-55 -69.167 -95 -91.5
s-85.333 -33.5 -136 -33.5zM287.999 128c22 0 41.332 4.83203 57.999 14.499s29.5 23.334 38.5 41.001s13.5 37.834 13.5 60.501s-4.66699 42.5 -14 59.5s-22.166 30.333 -38.499 40s-35.5 14.5 -57.5 14.5c-21.333 0 -40.333 -4.83301 -57 -14.5s-29.667 -23.167 -39 -40.5
s-14 -37.333 -14 -60c0 -22 4.66699 -41.833 14 -59.5s22.333 -31.334 39 -41.001s35.667 -14.5 57 -14.5zM360.998 541.999c-21.333 0 -39.834 3.66895 -55.501 11.002s-30 14.666 -43 21.999s-27.167 11 -42.5 11s-28.333 -3.16699 -39 -9.5s-20.667 -15.833 -30 -28.5
l-73 72c19.333 28.667 39.833 50 61.5 64s46.834 21 75.501 21c21.333 0 39.833 -3.66699 55.5 -11s30.167 -14.833 43.5 -22.5s27.333 -11.5 42 -11.5c16 0 29.333 3.16699 40 9.5s20.334 16.166 29.001 29.499l73 -73c-19.333 -28 -39.833 -49 -61.5 -63
s-46.834 -21 -75.501 -21z" />
    <glyph glyph-name="odieresis" unicode="&#xf6;" horiz-adv-x="576" 
d="M288 -11c-50 0 -95.168 11.167 -135.501 33.5s-72.166 52.833 -95.499 91.5s-35 82 -35 130s11.667 91 35 129s55 68.167 95 90.5s85.333 33.5 136 33.5s96 -11 136 -33s71.667 -52.167 95 -90.5s35 -81.5 35 -129.5s-11.667 -91.333 -35 -130s-55 -69.167 -95 -91.5
s-85.333 -33.5 -136 -33.5zM287.999 128c22 0 41.332 4.83203 57.999 14.499s29.5 23.334 38.5 41.001s13.5 37.834 13.5 60.501s-4.66699 42.5 -14 59.5s-22.166 30.333 -38.499 40s-35.5 14.5 -57.5 14.5c-21.333 0 -40.333 -4.83301 -57 -14.5s-29.667 -23.167 -39 -40.5
s-14 -37.333 -14 -60c0 -22 4.66699 -41.833 14 -59.5s22.333 -31.334 39 -41.001s35.667 -14.5 57 -14.5zM178.998 547.999c-24 0 -43.833 8.16699 -59.5 24.5s-23.5 36.166 -23.5 59.499c0 24 7.83301 44 23.5 60s35.5 24 59.5 24s43.667 -8 59 -24s23 -36 23 -60
c0 -23.333 -7.66699 -43.166 -23 -59.499s-35 -24.5 -59 -24.5zM398.998 547.999c-24 0 -43.833 8.16699 -59.5 24.5s-23.5 36.166 -23.5 59.499c0 24 7.83301 44 23.5 60s35.5 24 59.5 24s43.667 -8 59 -24s23 -36 23 -60c0 -23.333 -7.66699 -43.166 -23 -59.499
s-35 -24.5 -59 -24.5z" />
    <glyph glyph-name="divide" unicode="&#xf7;" horiz-adv-x="563" 
d="M49 271v127h465v-127h-465zM282 65c-24 0 -44 8.33301 -60 25s-24 36.667 -24 60c0 24.667 8 45.167 24 61.5s36 24.5 60 24.5c24.667 0 44.834 -8.16699 60.501 -24.5s23.5 -36.833 23.5 -61.5c0 -23.333 -7.83301 -43.333 -23.5 -60s-35.834 -25 -60.501 -25zM282 435
c-24 0 -44 8.16699 -60 24.5s-24 36.166 -24 59.499c0 24.667 8 45.167 24 61.5s36 24.5 60 24.5c24.667 0 44.834 -8.16699 60.501 -24.5s23.5 -36.833 23.5 -61.5c0 -23.333 -7.83301 -43.166 -23.5 -59.499s-35.834 -24.5 -60.501 -24.5z" />
    <glyph glyph-name="oslash" unicode="&#xf8;" horiz-adv-x="576" 
d="M287 -11c-50 0 -95.001 11.167 -135.001 33.5s-71.667 52.833 -95 91.5s-35 82 -35 130s11.667 91 35 129s55 68.167 95 90.5s85.333 33.5 136 33.5s96 -11 136 -33s71.667 -52.167 95 -90.5s35 -81.5 35 -129.5s-11.667 -91.333 -35 -130s-55.166 -69.167 -95.499 -91.5
s-85.833 -33.5 -136.5 -33.5zM286.999 113c25.333 0 47.3311 5.5 65.998 16.5s33.334 26.333 44.001 46s16 42.167 16 67.5c0 26 -5.33301 48.833 -16 68.5s-25.334 35 -44.001 46s-40.667 16.5 -66 16.5c-24 0 -45.5 -5.5 -64.5 -16.5s-33.833 -26.167 -44.5 -45.5
s-16 -42 -16 -68s5.33301 -48.833 16 -68.5s25.334 -35 44.001 -46s40.334 -16.5 65.001 -16.5zM87.9971 -30l-72 72l472 473l72 -72z" />
    <glyph glyph-name="ugrave" unicode="&#xf9;" horiz-adv-x="539" 
d="M270 -11c-44.667 0 -84.168 9.16797 -118.501 27.501s-61.166 43.666 -80.499 75.999s-29 69.5 -29 111.5v282h153v-280c0 -16.667 2.83301 -31 8.5 -43s14.167 -21.333 25.5 -28s25 -10 41 -10c22.667 0 40.667 7.16699 54 21.5s20 34.166 20 59.499v280h153v-281
c0 -42.667 -9.66699 -80.167 -29 -112.5s-46 -57.666 -80 -75.999s-73.333 -27.5 -118 -27.5zM322.999 541.001l-193 104l84 118l159 -149z" />
    <glyph glyph-name="uacute" unicode="&#xfa;" horiz-adv-x="539" 
d="M270 -11c-44.667 0 -84.168 9.16797 -118.501 27.501s-61.166 43.666 -80.499 75.999s-29 69.5 -29 111.5v282h153v-280c0 -16.667 2.83301 -31 8.5 -43s14.167 -21.333 25.5 -28s25 -10 41 -10c22.667 0 40.667 7.16699 54 21.5s20 34.166 20 59.499v280h153v-281
c0 -42.667 -9.66699 -80.167 -29 -112.5s-46 -57.666 -80 -75.999s-73.333 -27.5 -118 -27.5zM197.999 541.001l-50 73l159 149l84 -118z" />
    <glyph glyph-name="ucircumflex" unicode="&#xfb;" horiz-adv-x="539" 
d="M270 -11c-44.667 0 -84.168 9.16797 -118.501 27.501s-61.166 43.666 -80.499 75.999s-29 69.5 -29 111.5v282h153v-280c0 -16.667 2.83301 -31 8.5 -43s14.167 -21.333 25.5 -28s25 -10 41 -10c22.667 0 40.667 7.16699 54 21.5s20 34.166 20 59.499v280h153v-281
c0 -42.667 -9.66699 -80.167 -29 -112.5s-46 -57.666 -80 -75.999s-73.333 -27.5 -118 -27.5zM129.999 537.001l-50 66l146 145h88l146 -145l-50 -66l-197 122h116z" />
    <glyph glyph-name="udieresis" unicode="&#xfc;" horiz-adv-x="539" 
d="M270 -11c-44.667 0 -84.168 9.16797 -118.501 27.501s-61.166 43.666 -80.499 75.999s-29 69.5 -29 111.5v282h153v-280c0 -16.667 2.83301 -31 8.5 -43s14.167 -21.333 25.5 -28s25 -10 41 -10c22.667 0 40.667 7.16699 54 21.5s20 34.166 20 59.499v280h153v-281
c0 -42.667 -9.66699 -80.167 -29 -112.5s-46 -57.666 -80 -75.999s-73.333 -27.5 -118 -27.5zM160.999 548.001c-24 0 -43.833 8.16699 -59.5 24.5s-23.5 36.166 -23.5 59.499c0 24 7.83301 44 23.5 60s35.5 24 59.5 24s43.667 -8 59 -24s23 -36 23 -60
c0 -23.333 -7.66699 -43.166 -23 -59.499s-35 -24.5 -59 -24.5zM380.999 548.001c-24 0 -43.833 8.16699 -59.5 24.5s-23.5 36.166 -23.5 59.499c0 24 7.83301 44 23.5 60s35.5 24 59.5 24s43.667 -8 59 -24s23 -36 23 -60c0 -23.333 -7.66699 -43.166 -23 -59.499
s-35 -24.5 -59 -24.5z" />
    <glyph glyph-name="yacute" unicode="&#xfd;" horiz-adv-x="534" 
d="M204 -2l-200 488h165l127 -387h-61l130 387h165l-208 -488h-118zM79 -205l146 315l97 -112l-86 -203h-157zM195 541l-50 73l159 149l84 -118z" />
    <glyph glyph-name="thorn" unicode="&#xfe;" 
d="M334 -10c-32.667 0 -62.667 6.33398 -90 19.001s-49.666 30.167 -66.999 52.5s-27.333 47.833 -30 76.5v205c2.66699 28.667 12.667 54.667 30 78s39.666 41.666 66.999 54.999s57.333 20 90 20c46 0 86.833 -11 122.5 -33s63.667 -52 84 -90s30.5 -81.333 30.5 -130
s-10.167 -92 -30.5 -130s-48.333 -68 -84 -90s-76.5 -33 -122.5 -33zM307 128.001c21.333 0 40.1641 4.83301 56.4971 14.5s29.166 23.167 38.499 40.5s14 37.333 14 60s-4.66699 42.667 -14 60s-22.166 30.833 -38.499 40.5s-35.166 14.5 -56.499 14.5
s-40.166 -4.83301 -56.499 -14.5s-29.166 -23.167 -38.499 -40.5s-14 -37.333 -14 -60c0 -22 4.5 -41.667 13.5 -59s21.667 -31 38 -41s35.5 -15 57.5 -15zM53.998 -204.999v931h153v-365l-25 -118l23 -118v-330h-151z" />
    <glyph glyph-name="ydieresis" unicode="&#xff;" horiz-adv-x="534" 
d="M204 -2l-200 488h165l127 -387h-61l130 387h165l-208 -488h-118zM79 -205l146 315l97 -112l-86 -203h-157zM158 548c-24 0 -43.833 8.16699 -59.5 24.5s-23.5 36.166 -23.5 59.499c0 24 7.83301 44 23.5 60s35.5 24 59.5 24s43.667 -8 59 -24s23 -36 23 -60
c0 -23.333 -7.66699 -43.166 -23 -59.499s-35 -24.5 -59 -24.5zM378 548c-24 0 -43.833 8.16699 -59.5 24.5s-23.5 36.166 -23.5 59.499c0 24 7.83301 44 23.5 60s35.5 24 59.5 24s43.667 -8 59 -24s23 -36 23 -60c0 -23.333 -7.66699 -43.166 -23 -59.499
s-35 -24.5 -59 -24.5z" />
    <glyph glyph-name="dotlessi" unicode="&#x131;" horiz-adv-x="261" 
d="M54 0v486h153v-486h-153z" />
    <glyph glyph-name="OE" unicode="&#x152;" horiz-adv-x="1160" 
d="M400 -12c-52 0 -100.167 9.33398 -144.5 28.001s-83.333 44.667 -117 78s-59.834 72.166 -78.501 116.499s-28 92.166 -28 143.499c0 52 9.33301 100 28 144s44.5 82.5 77.5 115.5s71.667 58.667 116 77s92.5 27.5 144.5 27.5c52.667 0 98.667 -9.16699 138 -27.5
s72.333 -44 99 -77s46.5 -71.667 59.5 -116s19.5 -92.5 19.5 -144.5c0 -51.333 -6.5 -99.166 -19.5 -143.499s-32.667 -83 -59 -116s-59.166 -58.833 -98.499 -77.5s-85 -28 -137 -28zM403 131.001c42 0 78.833 9.33301 110.5 28s56.167 44.834 73.5 78.501
s26 72.5 26 116.5s-8.83301 82.667 -26.5 116s-42.167 59.166 -73.5 77.499s-68 27.5 -110 27.5s-78.833 -9.16699 -110.5 -27.5s-56.167 -44 -73.5 -77s-26 -71.833 -26 -116.5c0 -33.333 5 -63.666 15 -90.999s24.167 -50.833 42.5 -70.5s40.5 -34.834 66.5 -45.501
s54.667 -16 86 -16zM613 0.000976562v706h158v-706h-158zM734 0.000976562v136h387v-136h-387zM734 295.001v131h351v-131h-351zM734 571.001v135h381v-135h-381z" />
    <glyph glyph-name="oe" unicode="&#x153;" horiz-adv-x="935" 
d="M288 -11c-50 0 -95.168 11.167 -135.501 33.5s-72.166 52.833 -95.499 91.5s-35 82 -35 130s11.667 91 35 129s55 68.167 95 90.5s85.333 33.5 136 33.5s96 -11 136 -33s71.667 -52.167 95 -90.5s35 -81.5 35 -129.5s-11.667 -91.333 -35 -130s-55 -69.167 -95 -91.5
s-85.333 -33.5 -136 -33.5zM287.999 128c22 0 41.332 4.83203 57.999 14.499s29.5 23.334 38.5 41.001s13.5 37.834 13.5 60.501s-4.66699 42.5 -14 59.5s-22.166 30.333 -38.499 40s-35.5 14.5 -57.5 14.5c-21.333 0 -40.333 -4.83301 -57 -14.5s-29.667 -23.167 -39 -40.5
s-14 -37.333 -14 -60c0 -22 4.66699 -41.833 14 -59.5s22.333 -31.334 39 -41.001s35.667 -14.5 57 -14.5zM680.998 -11.001c-52.667 0 -99.4971 10.834 -140.497 32.501s-73.167 51.834 -96.5 90.501s-35 82.334 -35 131.001s11.5 92.167 34.5 130.5s54.167 68.5 93.5 90.5
s83.666 33 132.999 33c48 0 90.333 -10.333 127 -31s65.5 -49.334 86.5 -86.001s31.5 -78.667 31.5 -126c0 -8.66699 -0.5 -17.834 -1.5 -27.501s-2.83301 -20.834 -5.5 -33.501l-419 -1v105l354 1l-66 -44c-0.666992 28 -5 51.167 -13 69.5s-19.833 32.333 -35.5 42
s-34.834 14.5 -57.501 14.5c-24 0 -44.833 -5.5 -62.5 -16.5s-31.334 -26.5 -41.001 -46.5s-14.5 -44.333 -14.5 -73s5.16699 -53.167 15.5 -73.5s25 -36 44 -47s41.5 -16.5 67.5 -16.5c24 0 45.667 4.16699 65 12.5s36.333 20.833 51 37.5l84 -84c-24 -28 -53 -49 -87 -63
s-71.333 -21 -112 -21z" />
    <glyph glyph-name="apostrophe" unicode="&#x2bc;" horiz-adv-x="270" 
d="M32 442l91.001 137l47 12c-4.66699 -9.33301 -10.334 -17.333 -17.001 -24s-14.334 -10 -23.001 -10c-19.333 0 -37 8 -53 24s-24 36.333 -24 61c0 26 8.83301 48.167 26.5 66.5s39.834 27.5 66.501 27.5c25.333 0 46.833 -9 64.5 -27s26.5 -40 26.5 -66
c0 -11.333 -2.16699 -24.333 -6.5 -39s-13.5 -32.667 -27.5 -54l-97 -148z" />
    <glyph glyph-name="circumflex" unicode="&#x2c6;" horiz-adv-x="460" 
d="M90 537l-50 66l146 145h88l146 -145l-50 -66l-197 122h116z" />
    <glyph glyph-name="ring" unicode="&#x2da;" horiz-adv-x="342" 
d="M172 533c-25.333 0 -47.833 5.66699 -67.5 17s-35.334 26.666 -47.001 45.999s-17.5 41.333 -17.5 66s5.83301 46.667 17.5 66s27.334 34.833 47.001 46.5s42.167 17.5 67.5 17.5c24.667 0 46.834 -5.83301 66.501 -17.5s35.167 -27.167 46.5 -46.5s17 -41.333 17 -66
s-5.66699 -46.667 -17 -66s-26.833 -34.666 -46.5 -45.999s-41.834 -17 -66.501 -17zM172 617c12 0 22.167 4.33496 30.5 13.002s12.5 19.334 12.5 32.001c0 13.333 -4.16699 24.166 -12.5 32.499s-18.5 12.5 -30.5 12.5c-13.333 0 -24 -4.33301 -32 -13
s-12 -19.334 -12 -32.001s4 -23.334 12 -32.001s18.667 -13 32 -13z" />
    <glyph glyph-name="tilde" unicode="&#x2dc;" horiz-adv-x="500" 
d="M323 542c-21.333 0 -39.834 3.66895 -55.501 11.002s-30 14.666 -43 21.999s-27.167 11 -42.5 11s-28.333 -3.16699 -39 -9.5s-20.667 -15.833 -30 -28.5l-73 72c19.333 28.667 39.833 50 61.5 64s46.834 21 75.501 21c21.333 0 39.833 -3.66699 55.5 -11
s30.167 -14.833 43.5 -22.5s27.333 -11.5 42 -11.5c16 0 29.333 3.16699 40 9.5s20.334 16.166 29.001 29.499l73 -73c-19.333 -28 -39.833 -49 -61.5 -63s-46.834 -21 -75.501 -21z" />
    <glyph glyph-name="gravecomb" unicode="&#x300;" horiz-adv-x="0" 
d="M233 541l-193 104l84 118l159 -149z" />
    <glyph glyph-name="acutecomb" unicode="&#x301;" horiz-adv-x="0" 
d="M90 541l-50 73l159 149l84 -118z" />
    <glyph glyph-name="uni0302" unicode="&#x302;" horiz-adv-x="0" 
d="M90 537l-50 66l146 145h88l146 -145l-50 -66l-197 122h116z" />
    <glyph glyph-name="tildecomb" unicode="&#x303;" horiz-adv-x="0" 
d="M323 542c-21.333 0 -39.834 3.66895 -55.501 11.002s-30 14.666 -43 21.999s-27.167 11 -42.5 11s-28.333 -3.16699 -39 -9.5s-20.667 -15.833 -30 -28.5l-73 72c19.333 28.667 39.833 50 61.5 64s46.834 21 75.501 21c21.333 0 39.833 -3.66699 55.5 -11
s30.167 -14.833 43.5 -22.5s27.333 -11.5 42 -11.5c16 0 29.333 3.16699 40 9.5s20.334 16.166 29.001 29.499l73 -73c-19.333 -28 -39.833 -49 -61.5 -63s-46.834 -21 -75.501 -21z" />
    <glyph glyph-name="uni0304" unicode="&#x304;" horiz-adv-x="0" 
d="M40 685h384v-114h-384v114z" />
    <glyph glyph-name="uni0308" unicode="&#x308;" horiz-adv-x="0" 
d="M138 548c-24 0 -43.833 8.16699 -59.5 24.5s-23.5 36.166 -23.5 59.499c0 24 7.83301 44 23.5 60s35.5 24 59.5 24s43.667 -8 59 -24s23 -36 23 -60c0 -23.333 -7.66699 -43.166 -23 -59.499s-35 -24.5 -59 -24.5zM358 548c-24 0 -43.833 8.16699 -59.5 24.5
s-23.5 36.166 -23.5 59.499c0 24 7.83301 44 23.5 60s35.5 24 59.5 24s43.667 -8 59 -24s23 -36 23 -60c0 -23.333 -7.66699 -43.166 -23 -59.499s-35 -24.5 -59 -24.5z" />
    <glyph glyph-name="uni030A" unicode="&#x30a;" horiz-adv-x="0" 
d="M172 533c-25.333 0 -47.833 5.66699 -67.5 17s-35.334 26.666 -47.001 45.999s-17.5 41.333 -17.5 66s5.83301 46.667 17.5 66s27.334 34.833 47.001 46.5s42.167 17.5 67.5 17.5c24.667 0 46.834 -5.83301 66.501 -17.5s35.167 -27.167 46.5 -46.5s17 -41.333 17 -66
s-5.66699 -46.667 -17 -66s-26.833 -34.666 -46.5 -45.999s-41.834 -17 -66.501 -17zM172 617c12 0 22.167 4.33496 30.5 13.002s12.5 19.334 12.5 32.001c0 13.333 -4.16699 24.166 -12.5 32.499s-18.5 12.5 -30.5 12.5c-13.333 0 -24 -4.33301 -32 -13
s-12 -19.334 -12 -32.001s4 -23.334 12 -32.001s18.667 -13 32 -13z" />
    <glyph glyph-name="uni0327" unicode="&#x327;" horiz-adv-x="0" 
d="M145 -215c-26.667 0 -49.501 3.16992 -68.501 9.50293s-37.833 15.166 -56.5 26.499l47 62c8.66699 -6.66699 18.167 -11.834 28.5 -15.501s21.833 -5.5 34.5 -5.5c14 0 24 2.16699 30 6.5s9 9.5 9 15.5s-3.66699 11.333 -11 16s-18.666 7 -33.999 7h-32l34 106h86
l-26 -73l-44 35c44 0.666992 78.167 -7.83301 102.5 -25.5s36.5 -40.834 36.5 -69.501c0 -26.667 -12.333 -49.167 -37 -67.5s-57.667 -27.5 -99 -27.5z" />
    <glyph glyph-name="endash" unicode="&#x2013;" horiz-adv-x="568" 
d="M54 193v124h460v-124h-460z" />
    <glyph glyph-name="emdash" unicode="&#x2014;" horiz-adv-x="867" 
d="M54 194v122h755v-122h-755z" />
    <glyph glyph-name="quoteleft" unicode="&#x2018;" horiz-adv-x="261" 
d="M219 695l-73.001 -135.999l-46 -13c5.33301 10 11.333 18.167 18 24.5s14.334 9.5 23.001 9.5c19.333 0 36.833 -7.83301 52.5 -23.5s23.5 -35.834 23.5 -60.501c0 -26 -8.83301 -48.333 -26.5 -67s-39.5 -28 -65.5 -28c-24.667 0 -46.167 9.16699 -64.5 27.5
s-27.5 40.833 -27.5 67.5c0 10.667 2.16699 23 6.5 37s12.5 32.333 24.5 55l80 148z" />
    <glyph glyph-name="quoteright" unicode="&#x2019;" horiz-adv-x="261" 
d="M43 422l73.002 137l45 12c-4.66699 -9.33301 -10.334 -17.333 -17.001 -24s-14.334 -10 -23.001 -10c-19.333 0 -37 8 -53 24s-24 36.333 -24 61c0 26 8.83301 48.167 26.5 66.5s39.5 27.5 65.5 27.5c24.667 0 46.167 -9.16699 64.5 -27.5s27.5 -40.5 27.5 -66.5
c0 -10.667 -2 -23.167 -6 -37.5s-12 -32.5 -24 -54.5l-81 -148z" />
    <glyph glyph-name="quotesinglbase" unicode="&#x201a;" horiz-adv-x="283" 
d="M54 -120l73.002 136l45 13c-4.66699 -10 -10.334 -18.167 -17.001 -24.5s-14.334 -9.5 -23.001 -9.5c-19.333 0 -37 8 -53 24s-24 36 -24 60c0 26 8.83301 48.333 26.5 67s39.5 28 65.5 28c24.667 0 46.167 -9.16699 64.5 -27.5s27.5 -40.833 27.5 -67.5
c0 -10.667 -2 -23 -6 -37s-12 -32.333 -24 -55l-81 -148z" />
    <glyph glyph-name="quotedblleft" unicode="&#x201c;" horiz-adv-x="487" 
d="M219 695l-73.001 -135.999l-46 -13c5.33301 10 11.333 18.167 18 24.5s14.334 9.5 23.001 9.5c19.333 0 36.833 -7.83301 52.5 -23.5s23.5 -35.834 23.5 -60.501c0 -26 -8.83301 -48.333 -26.5 -67s-39.5 -28 -65.5 -28c-24.667 0 -46.167 9.16699 -64.5 27.5
s-27.5 40.833 -27.5 67.5c0 10.667 2.16699 23 6.5 37s12.5 32.333 24.5 55l80 148zM443.999 695.001l-73 -135.999l-45 -13c4.66699 10 10.5 18.167 17.5 24.5s14.5 9.5 22.5 9.5c19.333 0 37 -7.83301 53 -23.5s24 -35.834 24 -60.501c0 -26 -8.83301 -48.333 -26.5 -67
s-39.5 -28 -65.5 -28c-24.667 0 -46.167 9.16699 -64.5 27.5s-27.5 40.833 -27.5 67.5c0 10.667 2 23 6 37s12 32.333 24 55l81 148z" />
    <glyph glyph-name="quotedblright" unicode="&#x201d;" horiz-adv-x="487" 
d="M268 422l73.001 137l46 12c-5.33301 -9.33301 -11.333 -17.333 -18 -24s-14.334 -10 -23.001 -10c-18.667 0 -36 8 -52 24s-24 36.333 -24 61c0 26 8.83301 48.167 26.5 66.5s39.5 27.5 65.5 27.5c24.667 0 46.167 -9.16699 64.5 -27.5s27.5 -40.5 27.5 -66.5
c0 -10.667 -2.16699 -23.167 -6.5 -37.5s-12.5 -32.5 -24.5 -54.5l-80 -148zM43.001 422l73.002 137l45 12c-4.66699 -9.33301 -10.334 -17.333 -17.001 -24s-14.334 -10 -23.001 -10c-19.333 0 -37 8 -53 24s-24 36.333 -24 61c0 26 8.83301 48.167 26.5 66.5
s39.5 27.5 65.5 27.5c24.667 0 46.167 -9.16699 64.5 -27.5s27.5 -40.5 27.5 -66.5c0 -10.667 -2 -23.167 -6 -37.5s-12 -32.5 -24 -54.5l-81 -148z" />
    <glyph glyph-name="quotedblbase" unicode="&#x201e;" horiz-adv-x="509" 
d="M279 -120l73.001 137l46 12c-5.33301 -9.33301 -11.333 -17.333 -18 -24s-14.334 -10 -23.001 -10c-18.667 0 -36 8 -52 24s-24 36.333 -24 61c0 26 8.83301 48.167 26.5 66.5s39.5 27.5 65.5 27.5c24.667 0 46.167 -9.16699 64.5 -27.5s27.5 -40.5 27.5 -66.5
c0 -10.667 -2.16699 -23.167 -6.5 -37.5s-12.5 -32.5 -24.5 -54.5l-80 -148zM54.001 -120l73.002 137l45 12c-4.66699 -9.33301 -10.334 -17.333 -17.001 -24s-14.334 -10 -23.001 -10c-19.333 0 -37 8 -53 24s-24 36.333 -24 61c0 26 8.83301 48.167 26.5 66.5
s39.5 27.5 65.5 27.5c24.667 0 46.167 -9.16699 64.5 -27.5s27.5 -40.5 27.5 -66.5c0 -10.667 -2 -23.167 -6 -37.5s-12 -32.5 -24 -54.5l-81 -148z" />
    <glyph glyph-name="bullet" unicode="&#x2022;" horiz-adv-x="351" 
d="M176 248c-24 0 -45.167 5.33301 -63.5 16s-32.666 25.334 -42.999 44.001s-15.5 39.334 -15.5 62.001c0 22 5.16699 42.333 15.5 61s24.666 33.5 42.999 44.5s39.5 16.5 63.5 16.5c23.333 0 44.166 -5.5 62.499 -16.5s32.666 -25.833 42.999 -44.5s15.5 -39 15.5 -61
c0 -22.667 -5.16699 -43.334 -15.5 -62.001s-24.666 -33.334 -42.999 -44.001s-39.166 -16 -62.499 -16z" />
    <glyph glyph-name="ellipsis" unicode="&#x2026;" horiz-adv-x="840" 
d="M420 -11c-26 0 -47.667 9 -65 27s-26 39.667 -26 65c0 26.667 8.66699 48.834 26 66.501s39 26.5 65 26.5c26.667 0 48.5 -8.83301 65.5 -26.5s25.5 -39.834 25.5 -66.501c0 -25.333 -8.5 -47 -25.5 -65s-38.833 -27 -65.5 -27zM690 -11c-26 0 -47.667 9 -65 27
s-26 39.667 -26 65c0 26.667 8.66699 48.834 26 66.501s39 26.5 65 26.5c26.667 0 48.5 -8.83301 65.5 -26.5s25.5 -39.834 25.5 -66.501c0 -25.333 -8.5 -47 -25.5 -65s-38.833 -27 -65.5 -27zM150 -11c-26 0 -47.667 9 -65 27s-26 39.667 -26 65
c0 26.667 8.66699 48.834 26 66.501s39 26.5 65 26.5c26.667 0 48.5 -8.83301 65.5 -26.5s25.5 -39.834 25.5 -66.501c0 -25.333 -8.5 -47 -25.5 -65s-38.833 -27 -65.5 -27z" />
    <glyph glyph-name="guilsinglleft" unicode="&#x2039;" horiz-adv-x="291" 
d="M126 72l-102 173l102 173h142l-107 -173l107 -173h-142z" />
    <glyph glyph-name="guilsinglright" unicode="&#x203a;" horiz-adv-x="291" 
d="M23 72l107 173l-107 173h142l102 -173l-102 -173h-142z" />
    <glyph glyph-name="fraction" unicode="&#x2044;" horiz-adv-x="692" 
d="M283 317l57 -60l-220 -270l-101 101zM396 391l-57 60l220 270l101 -101z" />
    <glyph glyph-name="uni2074" unicode="&#x2074;" horiz-adv-x="346" 
d="M21 468l102 238h117l-104 -238h-115zM21 407v61l30 33h273v-94h-303zM192 347v207h108v-207h-108z" />
    <glyph glyph-name="Euro" unicode="&#x20ac;" horiz-adv-x="714" 
d="M420 -11c-51.333 0 -98.4971 9.16992 -141.497 27.5029s-80.667 44.166 -113 77.499s-57.333 72.166 -75 116.499s-26.5 92.166 -26.5 143.499s8.83301 99.166 26.5 143.499s42.5 82.833 74.5 115.5s69.5 58.167 112.5 76.5s90.167 27.5 141.5 27.5
c54 0 102.167 -9 144.5 -27s79.833 -42.667 112.5 -74l-105 -106c-18.667 20.667 -40.5 36.834 -65.5 48.501s-54.5 17.5 -88.5 17.5c-38.667 0 -72.5 -9.16699 -101.5 -27.5s-51.5 -44.166 -67.5 -77.499s-24 -72.333 -24 -117s8.16699 -83.834 24.5 -117.501
s39.166 -59.667 68.499 -78s63.666 -27.5 102.999 -27.5c33.333 0 62.666 5.66699 87.999 17s47.666 27.333 66.999 48l106 -106c-34 -31.333 -72.167 -56 -114.5 -74s-91.166 -27 -146.499 -27zM-2.99707 383.003v95h481l-24 -95h-457zM-2.99707 223.003v95h445l-24 -95
h-421z" />
    <glyph glyph-name="minus" unicode="&#x2212;" horiz-adv-x="563" 
d="M49 271v127h465v-127h-465z" />
    <glyph glyph-name="uni2215" unicode="&#x2215;" horiz-adv-x="384" 
d="M3 -55l245 810h133l-245 -810h-133z" />
    <glyph glyph-name="uni2713" unicode="&#x2713;" horiz-adv-x="838" 
d="M271 63l-253 250l97 96l235 -233l-60 -2l432 489l98 -98l-458 -502h-91z" />
    <glyph glyph-name="e.ss01" horiz-adv-x="525" 
d="M299 -11c-54 0 -101.663 11.167 -142.996 33.5s-73.833 52.833 -97.5 91.5s-35.5 82 -35.5 130s11.5 91 34.5 129s54.667 68.167 95 90.5s85.833 33.5 136.5 33.5c53.333 0 98.666 -12.167 135.999 -36.5s65.666 -59.166 84.999 -104.499l-296 -286l-78 79l268 258
l-9 -101c-8 22 -20.5 39 -37.5 51s-39.5 18 -67.5 18c-26 0 -48.333 -5.16699 -67 -15.5s-33 -25 -43 -44s-15 -41.167 -15 -66.5c0 -28 5.66699 -52.5 17 -73.5s27.666 -37.5 48.999 -49.5s45.666 -18 72.999 -18c24 0 45.5 4.16699 64.5 12.5s36.167 21.166 51.5 38.499
l84 -84c-26 -28.667 -56.167 -50.167 -90.5 -64.5s-72.5 -21.5 -114.5 -21.5z" />
    <glyph glyph-name="g.ss01" horiz-adv-x="520" 
d="M246 -216c-44.667 0 -84.8301 8.00195 -120.497 24.002s-63.667 38.167 -84 66.5s-30.5 60.833 -30.5 97.5c0 29.333 4.16699 53.333 12.5 72s21.166 37 38.499 55l109 -70c-6 -6.66699 -10.667 -13.667 -14 -21s-5 -16 -5 -26c0 -20 8.33301 -36 25 -48s40 -18 70 -18
c32 0 56.667 7.5 74 22.5s26 36.167 26 63.5c0 18 -4.33301 33.833 -13 47.5s-20.834 24.334 -36.501 32.001s-33.5 11.5 -53.5 11.5c-38 0 -72.167 8.83301 -102.5 26.5s-54.333 41.667 -72 72s-26.5 64.5 -26.5 102.5c0 39.333 9.16699 74.166 27.5 104.499
s43.333 54.166 75 71.499s67.167 26 106.5 26s74.833 -8.5 106.5 -25.5s56.667 -39.833 75 -68.5s27.5 -61.334 27.5 -98.001s-8.83301 -69 -26.5 -97s-41.834 -50 -72.501 -66s-65.667 -24 -105 -24l-1 82c45.333 -0.666992 85 -10.167 119 -28.5s60.667 -42.833 80 -73.5
s29 -65.667 29 -105c0 -40.667 -10 -76.667 -30 -108s-47.667 -55.833 -83 -73.5s-77 -26.5 -125 -26.5zM252.004 219.002c15.333 0 28.6641 3.16699 39.9971 9.5s20.333 15.166 27 26.499s10 24.333 10 39s-3.16699 27.667 -9.5 39s-15.333 20.166 -27 26.499
s-25.167 9.5 -40.5 9.5s-28.666 -3.16699 -39.999 -9.5s-20.333 -15.166 -27 -26.499s-10 -24.333 -10 -39s3.33301 -27.667 10 -39s15.834 -20.166 27.501 -26.499s24.834 -9.5 39.501 -9.5zM402.002 357.002l-89 89l112 110l88 -88z" />
    <glyph glyph-name="k.ss01" horiz-adv-x="533" 
d="M408 -18l-213 270l211 255l107 -85l-180 -201l5 67l186 -217zM54 0v726h153v-726h-153z" />
    <glyph glyph-name="m.ss01" horiz-adv-x="851" 
d="M43 0v282c0 42 9 79.167 27 111.5s43.667 57.666 77 75.999s72 27.5 116 27.5s82 -9.5 114 -28.5s56.667 -47.833 74 -86.5h-50c17.333 38.667 42 67.5 74 86.5s69.667 28.5 113 28.5c45.333 0 84.333 -9.16699 117 -27.5s58.167 -43.666 76.5 -75.999
s27.5 -69.5 27.5 -111.5v-282h-153v275c0 27.333 -6.83301 48.5 -20.5 63.5s-32.5 22.5 -56.5 22.5s-42.833 -7.5 -56.5 -22.5s-20.5 -36.167 -20.5 -63.5v-275h-153v275c0 27.333 -6.66699 48.5 -20 63.5s-32 22.5 -56 22.5s-42.833 -7.5 -56.5 -22.5
s-20.5 -36.167 -20.5 -63.5v-275h-153z" />
    <glyph glyph-name="n.ss01" horiz-adv-x="549" 
d="M42 0l-0.000976562 272.997c0 44.667 9.83301 83.834 29.5 117.501s47 59.834 82 78.501s75.5 28 121.5 28c46.667 0 87.334 -9.33301 122.001 -28s61.667 -44.667 81 -78s29 -72.666 29 -117.999v-273h-153v270c0 28 -6.83301 50.167 -20.5 66.5
s-33.167 24.5 -58.5 24.5c-26 0 -45.833 -8.16699 -59.5 -24.5s-20.5 -38.5 -20.5 -66.5v-270h-153z" />
    <glyph glyph-name="ntilde.ss01" horiz-adv-x="549" 
d="M42 0l-0.000976562 272.997c0 44.667 9.83301 83.834 29.5 117.501s47 59.834 82 78.501s75.5 28 121.5 28c46.667 0 87.334 -9.33301 122.001 -28s61.667 -44.667 81 -78s29 -72.666 29 -117.999v-273h-153v270c0 28 -6.83301 50.167 -20.5 66.5
s-33.167 24.5 -58.5 24.5c-26 0 -45.833 -8.16699 -59.5 -24.5s-20.5 -38.5 -20.5 -66.5v-270h-153zM347.999 541.997c-21.333 0 -39.834 3.66895 -55.501 11.002s-30 14.666 -43 21.999s-27.167 11 -42.5 11s-28.333 -3.16699 -39 -9.5s-20.667 -15.833 -30 -28.5l-73 72
c19.333 28.667 39.833 50 61.5 64s46.834 21 75.501 21c21.333 0 39.833 -3.66699 55.5 -11s30.167 -14.833 43.5 -22.5s27.333 -11.5 42 -11.5c16 0 29.333 3.16699 40 9.5s20.334 16.166 29.001 29.499l73 -73c-19.333 -28 -39.833 -49 -61.5 -63s-46.834 -21 -75.501 -21
z" />
    <glyph glyph-name="t.ss01" horiz-adv-x="480" 
d="M316 -11c-38.667 0 -72.5 7.66602 -101.5 22.999s-51.5 37.333 -67.5 66s-24 62.667 -24 102v507h153v-508c0 -17.333 4.83301 -30.333 14.5 -39s21.167 -13 34.5 -13c11.333 0 21.166 1.83301 29.499 5.5s15.833 9.16699 22.5 16.5l93 -94
c-18.667 -21.333 -39.667 -37.666 -63 -48.999s-53.666 -17 -90.999 -17zM15 354.999v131h420v-131h-420z" />
    <glyph glyph-name="T_T" horiz-adv-x="1136" 
d="M241 0v696h157v-696h-157zM20 569v137h599v-137h-599zM737 0v696h158v-696h-158zM517 569v137h599v-137h-599z" />
    <glyph glyph-name="T_h" horiz-adv-x="1123" 
d="M241 0v696h157v-696h-157zM20 569v137h608v-137h-608zM926 0l0.00390625 277.001c0 25.333 -7.83301 45.833 -23.5 61.5s-35.834 23.5 -60.501 23.5c-16.667 0 -31.334 -3.5 -44.001 -10.5s-22.5 -17 -29.5 -30s-10.5 -27.833 -10.5 -44.5l-60 29
c0 38 8.16699 71.333 24.5 100s38.666 50.834 66.999 66.501s61.166 23.5 98.499 23.5c38 0 71.333 -7.83301 100 -23.5s51 -37.334 67 -65.001s24 -59.834 24 -96.501v-311h-153zM605.004 0.000976562v706h153v-706h-153z" />
    <glyph glyph-name="T_l" horiz-adv-x="812" 
d="M241 0v696h157v-696h-157zM20 569v137h629v-137h-629zM605 0v706h153v-706h-153z" />
    <glyph glyph-name="f_t" horiz-adv-x="700" 
d="M116 0v528c0 39.333 8.66699 74.833 26 106.5s42.5 56.667 75.5 75s71.833 27.5 116.5 27.5l-1 -137c-19.333 0 -34.833 -6 -46.5 -18s-17.5 -28.333 -17.5 -49v-533h-153zM9 356v130h678v-130h-678zM424 0v687h153v-687h-153z" />
    <glyph glyph-name="r_f" horiz-adv-x="733" 
d="M54 0v486h153v-486h-153zM413 0l-0.000976562 527.999c0 39.333 8.83301 74.833 26.5 106.5s42.5 56.667 74.5 75s70 27.5 114 27.5c33.333 0 62.5 -5.5 87.5 -16.5s46.833 -26.167 65.5 -45.5l-96 -96c-6.66699 6.66699 -14.167 11.834 -22.5 15.501
s-18.166 5.5 -29.499 5.5c-20.667 0 -37 -6 -49 -18s-18 -28.333 -18 -49v-533h-153zM206.999 265.999l-63.999 45.999c12.667 57.333 35.167 100.833 67.5 130.5s81.166 44.5 146.499 44.5h349v-131h-386c-37.333 0 -65.5 -7.16699 -84.5 -21.5
s-28.5 -37.166 -28.5 -68.499z" />
    <glyph glyph-name="r_t" horiz-adv-x="691" 
d="M54 0v486h153v-486h-153zM207 266l-63.999 45.999c12.667 57.333 35.167 100.833 67.5 130.5s81.166 44.5 146.499 44.5h321v-131h-358c-37.333 0 -65.5 -7.16699 -84.5 -21.5s-28.5 -37.166 -28.5 -68.499zM415.001 -0.000976562v687h153v-687h-153z" />
    <glyph glyph-name="t_f" horiz-adv-x="751" 
d="M123 0v687h153v-687h-153zM13 356v130h711v-130h-711zM431 0l-0.000976562 527.999c0 39.333 8.83301 74.833 26.5 106.5s42.5 56.667 74.5 75s70 27.5 114 27.5c33.333 0 62.5 -5.5 87.5 -16.5s46.833 -26.167 65.5 -45.5l-96 -96
c-6.66699 6.66699 -14.167 11.834 -22.5 15.501s-18.166 5.5 -29.499 5.5c-20.667 0 -37 -6 -49 -18s-18 -28.333 -18 -49v-533h-153z" />
    <glyph glyph-name="one.ss01" horiz-adv-x="409" 
d="M189 0v627l33 79h122v-706h-155zM97 418l-85 93l210 195l37 -132z" />
    <glyph glyph-name="zero.tf" horiz-adv-x="590" 
d="M296 -11c-54.667 0 -104.003 15.3359 -148.003 46.0029s-78.833 73.5 -104.5 128.5s-38.5 118.5 -38.5 190.5c0 72.667 12.667 136.167 38 190.5s59.833 96.666 103.5 126.999s92.834 45.5 147.501 45.5c55.333 0 105 -15.167 149 -45.5s78.667 -72.833 104 -127.5
s38 -118.334 38 -191.001s-12.667 -136.334 -38 -191.001s-59.666 -97.167 -102.999 -127.5s-92.666 -45.5 -147.999 -45.5zM294.997 128.003c28 0 51.834 8.49707 71.501 25.4971s34.834 42.333 45.501 76s16 74.834 16 123.501c0 49.333 -5.5 90.666 -16.5 123.999
s-26.333 58.5 -46 75.5s-43.5 25.5 -71.5 25.5c-26.667 0 -49.834 -8.33301 -69.501 -25s-34.834 -41.667 -45.501 -75s-16 -74.666 -16 -123.999s5.33301 -90.666 16 -123.999s26 -58.666 46 -75.999s43.333 -26 70 -26z" />
    <glyph glyph-name="one.tf" horiz-adv-x="590" 
d="M244 0v706h154v-706h-154zM74 573v133h310v-133h-310zM74 0v134h453v-134h-453z" />
    <glyph glyph-name="two.tf" horiz-adv-x="590" 
d="M33 88l276 280.001c17.333 17.333 31.333 32.833 42 46.5s18.167 26.667 22.5 39s6.5 24.833 6.5 37.5c0 27.333 -9 48.833 -27 64.5s-41.667 23.5 -71 23.5c-28 0 -53.667 -7.33301 -77 -22s-46 -39.334 -68 -74.001l-105 91c28.667 47.333 65 83 109 107
s94.333 36 151 36c49.333 0 92 -9 128 -27s64 -43.667 84 -77s30 -72.333 30 -117c0 -28.667 -3.66699 -54.667 -11 -78s-19.333 -46.5 -36 -69.5s-39 -48.167 -67 -75.5l-193 -187zM33 0.000976562v88l133 46h383v-134h-516z" />
    <glyph glyph-name="three.tf" horiz-adv-x="590" 
d="M268 -11c-50 0 -95.668 8.5 -137.001 25.5s-76.333 41.5 -105 73.5l102 101c13.333 -18.667 32.5 -33.834 57.5 -45.501s51.5 -17.5 79.5 -17.5c25.333 0 47.5 4.33301 66.5 13s33.833 21 44.5 37s16 35 16 57s-5.5 40.833 -16.5 56.5s-26.5 27.834 -46.5 36.501
s-44.333 13 -73 13c-13.333 0 -26.833 -0.833008 -40.5 -2.5s-25.167 -4.16699 -34.5 -7.5l69 87c18.667 5.33301 36.667 9.83301 54 13.5s33.333 5.5 48 5.5c36.667 0 69.834 -8.5 99.501 -25.5s53.167 -41 70.5 -72s26 -67.833 26 -110.5c0 -46.667 -11.667 -88 -35 -124
s-56 -64 -98 -84s-91 -30 -147 -30zM180.999 329v87l178 202l176 1l-185 -204zM70.999 573v133h464v-87l-124 -46h-340z" />
    <glyph glyph-name="four.tf" horiz-adv-x="590" 
d="M15 245l228 461h171l-234 -461h-165zM15 157v88l51 45h509v-133h-560zM344 0v437h154v-437h-154z" />
    <glyph glyph-name="five.tf" horiz-adv-x="590" 
d="M268 -11c-48 0 -93.666 8.33203 -136.999 24.999s-79.333 41.334 -108 74.001l102 101c13.333 -19.333 32.5 -34.666 57.5 -45.999s51.833 -17 80.5 -17c26 0 48.833 4.5 68.5 13.5s35 22 46 39s16.5 36.833 16.5 59.5c0 23.333 -5.5 43.333 -16.5 60
s-26.333 29.5 -46 38.5s-42.167 13.5 -67.5 13.5c-24 0 -46.333 -3.16699 -67 -9.5s-39.334 -15.833 -56.001 -28.5l12 100c16 12 31.167 21.833 45.5 29.5s30 13.5 47 17.5s36.833 6 59.5 6c53.333 0 98.166 -10.667 134.499 -32s63.833 -49.666 82.5 -84.999
s28 -74.333 28 -117c0 -46.667 -11.667 -88.334 -35 -125.001s-56.166 -65.334 -98.499 -86.001s-91.833 -31 -148.5 -31zM141.001 311.999l-69 63l35 331h142l-38 -328zM129.001 572.999l-22 133h403v-133h-381z" />
    <glyph glyph-name="six.tf" horiz-adv-x="590" 
d="M295 -11c-49.333 0 -94 11 -134 33s-71.667 51.5 -95 88.5s-35 78.5 -35 124.5c0 60.667 21 121.334 63 182.001l202 289h178l-224 -308l-58 -5c8.66699 16.667 18.334 30.667 29.001 42s24 20.166 40 26.499s36.667 9.5 62 9.5c44 0 83.833 -10.167 119.5 -30.5
s64.167 -48 85.5 -83s32 -75.167 32 -120.5c0 -46 -11.833 -87.833 -35.5 -125.5s-55.334 -67.5 -95.001 -89.5s-84.5 -33 -134.5 -33zM295 126c21.333 0 40.5 5 57.5 15s30.333 23.667 40 41s14.5 36.666 14.5 57.999c0 22 -4.83301 41.5 -14.5 58.5s-23 30.333 -40 40
s-36.167 14.5 -57.5 14.5s-40.333 -4.83301 -57 -14.5s-29.834 -23 -39.501 -40s-14.5 -36.5 -14.5 -58.5c0 -21.333 4.83301 -40.666 14.5 -57.999s22.834 -31 39.501 -41s35.667 -15 57 -15z" />
    <glyph glyph-name="seven.tf" horiz-adv-x="590" 
d="M150 0l249 618h154l-241 -618h-162zM36 573v133h517v-88l-53 -45h-464z" />
    <glyph glyph-name="eight.tf" horiz-adv-x="590" 
d="M295 -11c-51.333 0 -96.333 9 -135 27s-68.5 42.667 -89.5 74s-31.5 67 -31.5 107c0 34 6.66699 64.333 20 91s32 49 56 67s51.667 30 83 36l-2 -32c-27.333 6 -50.666 17.167 -69.999 33.5s-34 36.166 -44 59.499s-15 47.666 -15 72.999
c0 37.333 9.83301 70.5 29.5 99.5s46.667 51.833 81 68.5s73.5 25 117.5 25s83.167 -8.33301 117.5 -25s61.166 -39.5 80.499 -68.5s29 -62.167 29 -99.5c0 -25.333 -5 -49.666 -15 -72.999s-24.333 -43.166 -43 -59.499s-42 -27.5 -70 -33.5l-3 32c32 -6 60 -18 84 -36
s42.667 -40.333 56 -67s20 -57 20 -91c0 -40 -10.5 -75.667 -31.5 -107s-50.667 -56 -89 -74s-83.5 -27 -135.5 -27zM295 123c20.667 0 39.167 4.16699 55.5 12.5s29 19.833 38 34.5s13.5 31 13.5 49c0 18.667 -4.5 35.167 -13.5 49.5s-21.667 25.666 -38 33.999
s-34.833 12.5 -55.5 12.5s-39.167 -4.16699 -55.5 -12.5s-29 -19.666 -38 -33.999s-13.5 -30.833 -13.5 -49.5c0 -18 4.5 -34.333 13.5 -49s21.667 -26.167 38 -34.5s34.833 -12.5 55.5 -12.5zM295 429c24 0 43.833 7.5 59.5 22.5s23.5 33.833 23.5 56.5
c0 23.333 -7.83301 42.5 -23.5 57.5s-35.5 22.5 -59.5 22.5s-44 -7.33301 -60 -22s-24 -33.667 -24 -57c0 -22.667 8 -41.667 24 -57s36 -23 60 -23z" />
    <glyph glyph-name="nine.tf" horiz-adv-x="590" 
d="M117 0l223.999 309l58 4c-9.33301 -15.333 -19.166 -29 -29.499 -41s-23.5 -21 -39.5 -27s-36.667 -9 -62 -9c-43.333 0 -83 10.167 -119 30.5s-64.667 48 -86 83s-32 74.833 -32 119.5c0 46.667 11.667 88.667 35 126s55 67 95 89s84.667 33 134 33
c50 0 95 -10.833 135 -32.5s71.5 -51 94.5 -88s34.5 -78.833 34.5 -125.5c0 -60 -21 -120.333 -63 -181l-202 -290h-177zM294.999 353c21.333 0 40.5 5 57.5 15s30.333 23.5 40 40.5s14.5 36.167 14.5 57.5c0 22 -4.83301 41.667 -14.5 59s-23 30.833 -40 40.5
s-36.167 14.5 -57.5 14.5s-40.333 -4.83301 -57 -14.5s-30 -23.167 -40 -40.5s-15 -37 -15 -59c0 -21.333 5 -40.5 15 -57.5s23.5 -30.5 40.5 -40.5s35.833 -15 56.5 -15z" />
    <glyph glyph-name="ampersand.ss01" horiz-adv-x="660" 
d="M306 -11c-53.333 0 -99.667 8.83301 -139 26.5s-69.666 42.5 -90.999 74.5s-32 68.667 -32 110c0 48 13.833 89 41.5 123s66.167 56.333 115.5 67l-4 -31c-26 6.66699 -48.333 18 -67 34s-33 35.333 -43 58s-15 47 -15 73c0 38.667 9.83301 72.5 29.5 101.5
s46.667 51.667 81 68s73.833 24.5 118.5 24.5c50 0 93 -9.66699 129 -29s63.667 -44.333 83 -75l-100 -95c-14 20.667 -29.333 36.667 -46 48s-37.667 17 -63 17c-27.333 0 -48.833 -7.33301 -64.5 -22s-23.5 -33 -23.5 -55c0 -14.667 3.5 -27.667 10.5 -39
s16.167 -20.333 27.5 -27s24.333 -10 39 -10v-118c-18.667 0 -35.5 -4 -50.5 -12s-26.833 -19 -35.5 -33s-13 -30.333 -13 -49s4.66699 -35.167 14 -49.5s22.666 -25.666 39.999 -33.999s37.333 -12.5 60 -12.5c24 0 44.5 4.16699 61.5 12.5s30.167 19.666 39.5 33.999
s14 30.833 14 49.5c0 16 -2.66699 30 -8 42s-12.666 22.167 -21.999 30.5s-20.333 14.166 -33 17.499l48 81c33.333 -8 62.166 -21.5 86.499 -40.5s43.333 -41.667 57 -68s20.5 -55.166 20.5 -86.499c0 -40 -11.333 -75.5 -34 -106.5s-54 -55.333 -94 -73
s-86 -26.5 -138 -26.5zM359.999 309v122h278v-122h-278z" />
    <glyph glyph-name="cent.BRACKET.600" horiz-adv-x="516" 
d="M298 99c-50 0 -95.335 11.001 -136.002 33.001s-72.667 52.333 -96 91s-35 82 -35 130c0 48.667 11.833 92.167 35.5 130.5s55.834 68.5 96.501 90.5s86.334 33 137.001 33c38 0 72.833 -6.5 104.5 -19.5s59.834 -32.5 84.501 -58.5l-98 -98
c-11.333 12.667 -24.5 22 -39.5 28s-32.167 9 -51.5 9c-22 0 -41.5 -4.83301 -58.5 -14.5s-30.333 -23 -40 -40s-14.5 -36.833 -14.5 -59.5s4.83301 -42.667 14.5 -60s23.167 -31 40.5 -41s36.666 -15 57.999 -15c20 0 37.833 3.5 53.5 10.5s29.167 16.833 40.5 29.5l97 -98
c-25.333 -26.667 -54 -46.834 -86 -60.501s-67.667 -20.5 -107 -20.5zM232.998 168.001h110v-158h-110v158zM342.998 528.001h-110v168h110v-168z" />
    <glyph glyph-name="dollar.BRACKET.600" horiz-adv-x="603" 
d="M290 -11c-54.667 0 -102.335 9.50098 -143.002 28.501s-77.667 47.833 -111 86.5l99 101c22 -26.667 46.333 -47.5 73 -62.5s57.334 -22.5 92.001 -22.5c32.667 0 58 6.16699 76 18.5s27 29.833 27 52.5c0 19.333 -5.83301 35 -17.5 47s-27.167 22.333 -46.5 31
s-40.666 17 -63.999 25s-46.5 17.167 -69.5 27.5s-44.167 23.333 -63.5 39s-35 35.334 -47 59.001s-18 53.5 -18 89.5c0 43.333 10.5 80.666 31.5 111.999s49.833 55.166 86.5 71.499s78.667 24.5 126 24.5c46 0 89 -8.66699 129 -26s72.667 -41 98 -71l-99 -101
c-20.667 22 -41.5 38.833 -62.5 50.5s-43.833 17.5 -68.5 17.5c-28.667 0 -51 -5.33301 -67 -16s-24 -26.334 -24 -47.001c0 -18 6 -32.5 18 -43.5s27.833 -20.5 47.5 -28.5s41 -16 64 -24s46.167 -17.333 69.5 -28s44.833 -24.167 64.5 -40.5s35.5 -37 47.5 -62
s18 -55.833 18 -92.5c0 -67.333 -23.5 -120.166 -70.5 -158.499s-112.167 -57.5 -195.5 -57.5zM256.999 67.001h110v-168h-110v168zM366.999 645.001h-110v162h110v-162z" />
    </font>
</defs>
</svg>
