<?xml version="1.0" encoding="utf-8"?>
<svg viewBox="0 0 32 32" width="32px" height="32px" xmlns="http://www.w3.org/2000/svg">
  <path d="M 14.59 7.889 C 14.196 7.883 13.875 8.201 13.875 8.595 L 9.653 8.595 C 9.11 8.587 8.762 9.17 9.027 9.644 C 9.153 9.869 9.394 10.009 9.653 10.004 L 22.348 10.004 C 22.891 10.012 23.239 9.429 22.974 8.955 C 22.847 8.729 22.607 8.591 22.348 8.595 L 18.125 8.595 C 18.125 8.201 17.804 7.883 17.411 7.889 L 14.59 7.889 Z M 9.653 11.416 L 9.653 22.7 C 9.653 23.479 10.284 24.111 11.063 24.111 L 20.937 24.111 C 21.717 24.111 22.348 23.479 22.348 22.7 L 22.348 11.416 L 9.653 11.416 Z" style=""/>
</svg>